<?xml version="1.0" standalone="no"?><!DOCTYPE svg PUBLIC "-//W3C//DTD SVG 1.1//EN" "http://www.w3.org/Graphics/SVG/1.1/DTD/svg11.dtd"><svg t="1757470230999" class="icon" viewBox="0 0 1024 1024" version="1.1" xmlns="http://www.w3.org/2000/svg" p-id="3521" width="64" height="64" xmlns:xlink="http://www.w3.org/1999/xlink"><path d="M864 992c-7.8 0-15.5-2.9-21.5-8.3L512 683.2 181.5 983.7c-9.4 8.5-22.9 10.7-34.5 5.6s-19-16.6-19-29.3V64c0-17.7 14.3-32 32-32h704c17.7 0 32 14.3 32 32v896c0 12.7-7.5 24.1-19.1 29.3-4.1 1.8-8.5 2.7-12.9 2.7zM512 608c7.7 0 15.4 2.8 21.5 8.3L832 887.7V96H192v791.7l298.5-271.3c6.1-5.6 13.8-8.4 21.5-8.4z" fill="#2c2c2c" p-id="3522"></path></svg>