<?xml version="1.0" standalone="no"?><!DOCTYPE svg PUBLIC "-//W3C//DTD SVG 1.1//EN" "http://www.w3.org/Graphics/SVG/1.1/DTD/svg11.dtd"><svg t="1759886905677" class="icon" viewBox="0 0 1024 1024" version="1.1" xmlns="http://www.w3.org/2000/svg" p-id="42296" width="64" height="64" xmlns:xlink="http://www.w3.org/1999/xlink"><path d="M883.445312 64.784492H237.387084c-40.539298 0-73.52148 32.981159-73.521481 73.521481v91.674932h-56.864102c-24.639167 0-44.61308 19.974937-44.61308 44.614104s19.973914 44.612057 44.61308 44.612057h56.864102v148.1819h-56.864102c-24.639167 0-44.61308 19.974937-44.61308 44.614104 0 24.64019 19.973914 44.611034 44.61308 44.611034h56.864102v148.182924h-56.864102c-24.639167 0-44.61308 19.974937-44.61308 44.614103s19.973914 44.612057 44.61308 44.612057h56.864102v93.659123c0 40.539298 32.981159 73.52148 73.521481 73.521481h646.058228c40.539298 0 73.52148-32.981159 73.521481-73.521481V138.305973c0-40.540322-32.982182-73.52148-73.521481-73.521481z m-15.506159 807.388591H252.894266v-78.152965h28.249391v-0.574074c2.321882 0.372483 4.702092 0.574075 7.128351 0.574074 24.639167 0 44.612057-19.97289 44.612057-44.612057s-19.97289-44.614104-44.612057-44.614103a44.851511 44.851511 0 0 0-7.128351 0.574074v-0.574074h-28.249391V556.612057h28.249391v-0.574075a44.841278 44.841278 0 0 0 7.128351 0.574075c24.639167 0 44.612057-19.970844 44.612057-44.611034 0-24.639167-19.97289-44.614104-44.612057-44.614103a44.841278 44.841278 0 0 0-7.128351 0.574074v-0.574074h-28.249391V319.206042h28.249391v-0.574074c2.321882 0.372483 4.701069 0.574075 7.128351 0.574074 24.639167 0 44.612057-19.97289 44.612057-44.612057s-19.97289-44.614104-44.612057-44.614103a44.841278 44.841278 0 0 0-7.128351 0.574074v-0.574074h-28.249391v-76.168774h615.044887v718.361975z" fill="#2c2c2c" p-id="42297"></path><path d="M466.683397 348.881922h266.944771c24.639167 0 44.612057-19.97289 44.612057-44.612057s-19.97289-44.614104-44.612057-44.614104H466.683397c-24.638143 0-44.61308 19.974937-44.613081 44.614104s19.974937 44.612057 44.613081 44.612057zM466.683397 487.36902h266.944771c24.639167 0 44.612057-19.97289 44.612057-44.612057s-19.97289-44.614104-44.612057-44.614104H466.683397c-24.638143 0-44.61308 19.974937-44.613081 44.614104s19.974937 44.612057 44.613081 44.612057zM466.683397 625.857141h266.944771c24.639167 0 44.612057-19.97289 44.612057-44.612057 0-24.64019-19.97289-44.615127-44.612057-44.615127H466.683397c-24.638143 0-44.61308 19.974937-44.613081 44.615127 0 24.639167 19.974937 44.612057 44.613081 44.612057zM466.683397 764.344239h266.944771c24.639167 0 44.612057-19.97289 44.612057-44.612057s-19.97289-44.614104-44.612057-44.614104H466.683397c-24.638143 0-44.61308 19.974937-44.613081 44.614104s19.974937 44.612057 44.613081 44.612057z" fill="#2c2c2c" p-id="42298"></path></svg>