<?xml version="1.0" standalone="no"?><!DOCTYPE svg PUBLIC "-//W3C//DTD SVG 1.1//EN" "http://www.w3.org/Graphics/SVG/1.1/DTD/svg11.dtd"><svg t="1757548342208" class="icon" viewBox="0 0 1024 1024" version="1.1" xmlns="http://www.w3.org/2000/svg" p-id="1535" width="64" height="64" xmlns:xlink="http://www.w3.org/1999/xlink"><path d="M132.608 994.304L128 128.512c0-29.184 11.264-56.832 31.744-77.312s48.128-31.744 76.8-31.744h552.448c29.184 0 56.32 11.264 76.8 31.744s31.744 48.128 31.744 76.8v863.744L516.096 675.84 132.608 994.304zM237.056 96.256c-8.704 0-16.896 3.584-22.528 9.216s-9.728 14.336-9.728 23.04l3.584 702.976L515.584 576l305.664 252.928V128.512c0-8.704-3.584-16.896-9.216-22.528s-14.336-9.216-22.528-9.216H237.056z" p-id="1536" fill="#2c2c2c"></path></svg>