<?xml version="1.0" standalone="no"?><!DOCTYPE svg PUBLIC "-//W3C//DTD SVG 1.1//EN" "http://www.w3.org/Graphics/SVG/1.1/DTD/svg11.dtd"><svg t="1757474206604" class="icon" viewBox="0 0 1024 1024" version="1.1" xmlns="http://www.w3.org/2000/svg" p-id="26684" width="64" height="64" xmlns:xlink="http://www.w3.org/1999/xlink"><path d="M855.467 273.067c2.133 0 6.4 2.133 6.4 6.4v595.2H738.133V279.467c0-6.4 4.267-6.4 6.4-6.4h110.934m2.133-53.334H742.4c-34.133 2.134-59.733 29.867-57.6 64V928h230.4V283.733c2.133-34.133-23.467-61.866-57.6-64z" fill="#2c2c2c" p-id="26685"></path><path d="M727.467 755.2h147.2v42.667h-147.2zM582.4 337.067c2.133 0 6.4 2.133 6.4 6.4v531.2H465.067V343.467c0-6.4 4.266-6.4 6.4-6.4H582.4m2.133-53.334h-115.2c-34.133 2.134-59.733 29.867-57.6 64V928h230.4V347.733c2.134-34.133-23.466-61.866-57.6-64z m-362.666-198.4v53.334L334.933 153.6c2.134 0 4.267 2.133 4.267 4.267 0 0 2.133 2.133 0 4.266v4.267l-17.067 128-64 512-10.666 74.667L123.733 864l10.667-74.667 64-512 17.067-128v-4.266c0-4.267 2.133-6.4 6.4-6.4V85.333m0 0c-32 0-57.6 23.467-59.734 55.467l-17.066 128-64 512L64 908.8l230.4 29.867 17.067-128 64-512 17.066-128c6.4-32-14.933-64-49.066-70.4l-115.2-14.934h-6.4z" fill="#2c2c2c" p-id="26686"></path></svg>