<?xml version="1.0" standalone="no"?><!DOCTYPE svg PUBLIC "-//W3C//DTD SVG 1.1//EN" "http://www.w3.org/Graphics/SVG/1.1/DTD/svg11.dtd"><svg t="1757472653113" class="icon" viewBox="0 0 1024 1024" version="1.1" xmlns="http://www.w3.org/2000/svg" p-id="7330" width="64" height="64" xmlns:xlink="http://www.w3.org/1999/xlink"><path d="M879.104 181.6576c22.1184 0 40.2432 17.7152 41.1648 40.2432 0.9216 22.4256-15.7696 41.6768-37.7856 43.52l-3.3792 0.1024H337.8176c-22.1184 0-40.2432-17.7152-41.1648-40.2432-0.9216-22.528 15.7696-41.6768 37.7856-43.52l3.3792-0.1024h541.2864zM879.104 469.4016c22.1184 0 40.2432 17.7152 41.1648 40.2432 0.9216 22.4256-15.7696 41.6768-37.7856 43.52l-3.3792 0.1024H337.8176c-22.1184 0-40.2432-17.7152-41.1648-40.2432-0.9216-22.4256 15.7696-41.6768 37.7856-43.52l3.3792-0.1024h541.2864zM879.104 757.1456c22.1184 0 40.2432 17.7152 41.1648 40.2432 0.9216 22.528-15.7696 41.6768-37.7856 43.52l-3.3792 0.1024H337.8176c-22.1184 0-40.2432-17.7152-41.1648-40.2432-0.9216-22.4256 15.7696-41.6768 37.7856-43.52l3.3792-0.1024h541.2864zM102.4 223.5392c0 33.0752 26.3168 59.904 58.88 59.904 32.4608 0 58.88-26.8288 58.88-59.904 0-33.0752-26.3168-59.904-58.88-59.904S102.4 190.464 102.4 223.5392z m0 0" fill="#2c2c2c" p-id="7331"></path><path d="M102.4 511.2832c0 33.0752 26.3168 59.904 58.88 59.904 32.4608 0 58.88-26.8288 58.88-59.904 0-33.0752-26.3168-59.904-58.88-59.904S102.4 478.208 102.4 511.2832z m0 0M102.4 799.0272c0 33.0752 26.3168 59.904 58.88 59.904 32.4608 0 58.88-26.8288 58.88-59.904 0-33.0752-26.3168-59.904-58.88-59.904S102.4 765.952 102.4 799.0272z m0 0" fill="#2c2c2c" p-id="7332"></path></svg>