<?xml version="1.0" standalone="no"?><!DOCTYPE svg PUBLIC "-//W3C//DTD SVG 1.1//EN" "http://www.w3.org/Graphics/SVG/1.1/DTD/svg11.dtd"><svg t="1757718098334" class="icon" viewBox="0 0 1024 1024" version="1.1" xmlns="http://www.w3.org/2000/svg" p-id="5960" width="64" height="64" xmlns:xlink="http://www.w3.org/1999/xlink"><path d="M508.692443 0.172999l2.303803-0.12799 0.063994-0.042663a510.377632 510.377632 0 0 1 362.912926 149.960493 512.446788 512.446788 0 0 1 83.875485 110.198565l6.058148 11.028389 5.034235 9.684504a512.638772 512.638772 0 0 1 54.182028 259.561775l-164.252603-164.231271 57.424417-57.381754a447.236372 447.236372 0 0 0-87.587167-123.616082A446.511101 446.511101 0 0 0 516.521106 63.996867l-0.319972-0.298641a31.99726 31.99726 0 0 1-7.530022-63.56789zM0.789266 483.480949l164.252602 164.231271-57.424416 57.381753a447.236372 447.236372 0 0 0 87.587167 123.616082A446.511101 446.511101 0 0 0 507.391221 959.920154l0.341304 0.341304a31.99726 31.99726 0 1 1 4.09565 63.738542l1.023912-0.063995a510.356301 510.356301 0 0 1-362.912926-149.960492 511.508202 511.508202 0 0 1-95.053194-131.08211l-4.735594-9.599178a512.61744 512.61744 0 0 1-49.361107-249.791945zM376.202454 74.534631a42.663014 42.663014 0 0 1 60.325502 0L919.217292 557.181305a42.663014 42.663014 0 0 1 0 60.346832L617.547123 919.219638a42.663014 42.663014 0 0 1-60.346833 0L74.532285 436.530302a42.663014 42.663014 0 0 1 0-60.325501L376.202454 74.534631z m30.162751 90.509584L165.041868 406.367551l422.342504 422.363836 241.323337-241.344669-422.342504-422.363835z" fill="#ffffff" p-id="5961"></path></svg>