<?xml version="1.0" standalone="no"?><!DOCTYPE svg PUBLIC "-//W3C//DTD SVG 1.1//EN" "http://www.w3.org/Graphics/SVG/1.1/DTD/svg11.dtd"><svg t="1757470278815" class="icon" viewBox="0 0 1085 1024" version="1.1" xmlns="http://www.w3.org/2000/svg" p-id="4675" width="67.8125" height="64" xmlns:xlink="http://www.w3.org/1999/xlink"><path d="M546.904228 18.10573c-277.76918 0-502.94529 225.17611-502.94529 502.94529 0 277.77164 225.17488 502.94775 502.94529 502.94775 277.76795 0 502.94529-225.17611 502.94529-502.94775C1049.849518 243.28307 824.672178 18.10573 546.904228 18.10573L546.904228 18.10573zM546.904228 973.701659c-249.992631 0-452.651868-202.659237-452.651868-452.651868 0-249.990172 202.659237-452.649408 452.651868-452.649408s452.650638 202.659237 452.650638 452.649408C999.554866 771.042422 796.896859 973.701659 546.904228 973.701659L546.904228 973.701659zM775.203924 485.406478c-78.267962-53.25591-220.1919-132.967608-301.004232-182.358388-33.132146-20.893592-60.993549-12.502952-63.667043 24.399633-1.938099 98.840588 0 289.550264 0 390.101445 1.681079 37.462125 34.709926 42.403293 63.37559 27.362121 80.72133-48.906255 219.456505-132.95777 300.588574-182.112436C773.968017 562.476656 836.097862 528.305364 775.203924 485.406478L775.203924 485.406478z" fill="#ffffff" p-id="4676"></path></svg>