<?xml version="1.0" standalone="no"?><!DOCTYPE svg PUBLIC "-//W3C//DTD SVG 1.1//EN" "http://www.w3.org/Graphics/SVG/1.1/DTD/svg11.dtd"><svg t="1764201329992" class="icon" viewBox="0 0 1024 1024" version="1.1" xmlns="http://www.w3.org/2000/svg" p-id="1616" width="64" height="64" xmlns:xlink="http://www.w3.org/1999/xlink"><path d="M836.649529 512.341333l120.32 126.805334a37.262222 37.262222 0 0 1 0 50.744889 32.824889 32.824889 0 0 1-48.128 0L788.521529 563.2l-120.32 126.805333a32.824889 32.824889 0 0 1-48.128 0 37.262222 37.262222 0 0 1 0-50.744889l120.32-126.805333L620.187307 385.479111a37.262222 37.262222 0 0 1 0-50.744889 32.824889 32.824889 0 0 1 48.128 0l120.32 126.805334 120.32-126.805334a32.824889 32.824889 0 0 1 48.128 0 37.262222 37.262222 0 0 1 0 50.744889z m-379.562667 442.424889l-235.861333-196.494222H73.71264A78.051556 78.051556 0 0 1 0.098418 676.977778V347.989333a77.425778 77.425778 0 0 1 73.614222-81.123555h147.512889l235.861333-196.551111c32.540444-27.136 58.936889-11.832889 58.936889 32.938666V921.6c0.056889 45.511111-26.112 60.529778-58.936889 33.166222z" fill="#FF8800" p-id="1617"></path></svg>