<?xml version="1.0" standalone="no"?><!DOCTYPE svg PUBLIC "-//W3C//DTD SVG 1.1//EN" "http://www.w3.org/Graphics/SVG/1.1/DTD/svg11.dtd"><svg t="1757559491773" class="icon" viewBox="0 0 1024 1024" version="1.1" xmlns="http://www.w3.org/2000/svg" p-id="9982" width="64" height="64" xmlns:xlink="http://www.w3.org/1999/xlink"><path d="M512.022746 0a511.99251 511.99251 0 1 0 511.977224 511.99251A512.01391 512.01391 0 0 0 512.022746 0z m0 967.023931a455.159822 455.159822 0 1 1 455.147593-455.159822 455.147593 455.147593 0 0 1-455.147593 455.159822z" fill="#2c2c2c" p-id="9983"></path><path d="M625.79818 341.240701h-227.578383a56.86326 56.86326 0 0 0-56.829631 56.829631v227.58144a56.86326 56.86326 0 0 0 56.829631 56.82963h227.578383a56.86326 56.86326 0 0 0 56.82963-56.82963v-227.453039a56.893831 56.893831 0 0 0-56.82963-56.958032z" fill="#2c2c2c" p-id="9984"></path></svg>