<?xml version="1.0" standalone="no"?><!DOCTYPE svg PUBLIC "-//W3C//DTD SVG 1.1//EN" "http://www.w3.org/Graphics/SVG/1.1/DTD/svg11.dtd"><svg t="1764126857638" class="icon" viewBox="0 0 1024 1024" version="1.1" xmlns="http://www.w3.org/2000/svg" p-id="4579" width="64" height="64" xmlns:xlink="http://www.w3.org/1999/xlink"><path d="M551.253333 141.482667c34.389333-30.592 88.746667-6.186667 88.746667 39.850666v661.162667c0 45.994667-54.357333 70.4-88.746667 39.850667l-191.658666-170.410667a32 32 0 0 0-21.248-8.106667H181.333333A96 96 0 0 1 85.333333 607.872V416a96 96 0 0 1 96-96h157.013334a32 32 0 0 0 21.248-8.106667l191.616-170.368z m24.746667 63.573333L402.133333 359.68A96 96 0 0 1 338.346667 384H181.333333a32 32 0 0 0-32 32v191.872c0 17.706667 14.336 32 32 32h157.013334a96 96 0 0 1 63.786666 24.32l173.866667 154.581333V205.098667zM692.053333 393.386667a32 32 0 0 1 45.226667 0L810.666667 466.773333l73.386666-73.386666a32 32 0 1 1 45.226667 45.226666L855.893333 512l73.386667 73.386667a32 32 0 1 1-45.226667 45.226666L810.666667 557.226667l-73.386667 73.386666a32 32 0 1 1-45.226667-45.226666L765.44 512l-73.386667-73.386667a32 32 0 0 1 0-45.226666z" p-id="4580" fill="#2c2c2c"></path></svg>