<?xml version="1.0" standalone="no"?><!DOCTYPE svg PUBLIC "-//W3C//DTD SVG 1.1//EN" "http://www.w3.org/Graphics/SVG/1.1/DTD/svg11.dtd"><svg t="1714296344732" class="icon" viewBox="0 0 1024 1024" version="1.1" xmlns="http://www.w3.org/2000/svg" p-id="2447" xmlns:xlink="http://www.w3.org/1999/xlink" width="128" height="128"><path d="M512 192c194.4 0 352 157.6 352 352s-157.6 352-352 352S160 738.4 160 544 317.6 192 512 192z m0 64a288 288 0 1 0 0 576 288 288 0 0 0 0-576z m31.104 99.52V512h156.48v62.624h-219.072V355.52h62.592zM273.056 128l44.288 44.256-177.088 177.088L96 305.056 273.056 128z m477.888 0L928 305.056l-44.256 44.288-177.088-177.088L750.944 128z" fill="#2c2c2c" p-id="2448"></path></svg>