<?xml version="1.0" ?><svg height="512" id="Layer_1" version="1.1" viewBox="0 0 512 512" width="512" xml:space="preserve" xmlns="http://www.w3.org/2000/svg" xmlns:cc="http://creativecommons.org/ns#" xmlns:dc="http://purl.org/dc/elements/1.1/" xmlns:inkscape="http://www.inkscape.org/namespaces/inkscape" xmlns:rdf="http://www.w3.org/1999/02/22-rdf-syntax-ns#" xmlns:sodipodi="http://sodipodi.sourceforge.net/DTD/sodipodi-0.dtd" xmlns:svg="http://www.w3.org/2000/svg"><defs id="defs12"/><g id="g4724"><rect height="512" id="rect2987" style="fill:#ff4700;fill-opacity:1;fill-rule:nonzero;stroke:none" width="512" x="0" y="5.6843419e-014"/><path d="m 55.99947,296.1065 c 0,13.51959 6.15447,25.61433 15.85822,33.76403 V 262.35062 C 62.15394,270.4817 55.99947,282.58809 55.99947,296.1065 M 88.6297,253.47454 v 85.25694 c 3.96833,1.10238 8.14271,1.71352 12.45096,1.71352 h 4.3292 v -88.46979 c -1.44928,-0.12571 -2.88924,-0.20255 -4.35947,-0.20255 -4.312909,-0.001 -8.47331,0.59833 -12.420689,1.70188 m 37.047879,5.53402 c -1.14312,-0.73337 -2.28508,-1.41086 -3.50852,-2.03247 v 83.46775 h 16.77201 V 228.80428 c -6.67481,8.70961 -11.32647,18.99539 -13.26349,30.20428 m 30.04365,-45.90418 V 340.445 h 16.77201 V 204.84759 c -5.98918,2.0185 -11.62214,4.82859 -16.77201,8.25679 m 33.54169,-11.72924 v 139.0687 h 16.78132 V 201.88851 c -3.43984,-0.51337 -6.98213,-0.77761 -10.58378,-0.77761 -2.1,0 -4.16507,0.10014 -6.19754,0.26424 m 42.79609,9.80852 c -5.47698,-3.24894 -11.37302,-5.80409 -17.62993,-7.51761 V 340.445 h 25.15685 V 201.09344 c -2.75076,3.17211 -5.26745,6.54909 -7.52692,10.09022 m 15.91992,-18.49834 V 340.445 h 159.3445 v -0.1944 c 33.5488,-2.14888 48.6771,-22.96373 48.6771,-48.36154 0,-26.82264 -20.2783,-48.55595 -47.57,-48.55595 -7.0031,0 -12.7688,1.44578 -18.8615,4.06146 -4.3677,-42.58888 -40.4947,-75.83956 -84.9846,-75.83956 -21.7519,-0.002 -41.5365,7.96578 -56.6055,21.13031" id="SoundCloud_3_" style="fill:#ffffff"/></g></svg>