<?xml version="1.0" standalone="no"?><!DOCTYPE svg PUBLIC "-//W3C//DTD SVG 1.1//EN" "http://www.w3.org/Graphics/SVG/1.1/DTD/svg11.dtd"><svg t="1758419113661" class="icon" viewBox="0 0 1024 1024" version="1.1" xmlns="http://www.w3.org/2000/svg" p-id="10008" width="64" height="64" xmlns:xlink="http://www.w3.org/1999/xlink"><path d="M654.64 312.26H183l140.29-135.42c14-13.54 14-33.86 0-47.4s-35.06-13.54-49.09 0L74.34 320.72c-7 6.77-10.52 15.24-10.52 23.7s3.51 16.93 10.52 23.7L272.45 559.4c14 13.54 35.06 13.54 49.09 0s14-33.86 0-47.4L184.79 380h469.85c131.49 0 236.68 101.56 236.68 228.52S786.13 837 654.64 837h-359.4c-19.29 0-35.06 15.24-35.06 33.86s15.77 33.85 35.06 33.85h359.4c170.06 0 306.81-132 306.81-296.22S824.7 312.26 654.64 312.26z" fill="#2c2c2c" p-id="10009"></path></svg>