<?xml version="1.0" standalone="no"?><!DOCTYPE svg PUBLIC "-//W3C//DTD SVG 1.1//EN" "http://www.w3.org/Graphics/SVG/1.1/DTD/svg11.dtd"><svg t="1716719225599" class="icon" viewBox="0 0 1024 1024" version="1.1" xmlns="http://www.w3.org/2000/svg" p-id="137027" xmlns:xlink="http://www.w3.org/1999/xlink" width="32" height="32"><path d="M288 768V480h64V768h-64zM480 288V768h64V288h-64zM672 768V576h64v192h-64z" fill="#ffffff" fill-opacity=".9" p-id="137028"></path><path d="M128 192a64 64 0 0 1 64-64h640a64 64 0 0 1 64 64v640a64 64 0 0 1-64 64H192a64 64 0 0 1-64-64V192z m64 0v640h640V192H192z" fill="#ffffff" fill-opacity=".9" p-id="137029"></path></svg>