<?xml version="1.0" standalone="no"?><!DOCTYPE svg PUBLIC "-//W3C//DTD SVG 1.1//EN" "http://www.w3.org/Graphics/SVG/1.1/DTD/svg11.dtd"><svg t="1718599795161" class="icon" viewBox="0 0 1024 1024" version="1.1" xmlns="http://www.w3.org/2000/svg" p-id="20918" xmlns:xlink="http://www.w3.org/1999/xlink" width="64" height="64"><path d="M965.728 174.016c0-24.544-15.424-59.328-89.056-85.632-49.76-17.76-115.456-27.552-184.96-27.552-69.536 0-135.232 9.824-184.96 27.552-73.6 26.336-89.056 61.088-89.056 85.632 0 3.648-0.512 7.328 0.192 10.944C417.184 187.232 416 189.568 416 191.872l0 107.264c0 3.712 0.352 7.392 1.024 10.976C416.352 312.352 416 314.656 416 317.024l0 52.64c-32-3.232-54.016-4.864-82.656-4.864-69.632 0-134.88 9.824-184.544 27.552-73.6 26.272-88.864 61.024-88.864 85.568 0 3.744 2.4 7.424 3.104 11.008C62.336 491.2 64 493.536 64 495.808l0 107.264c0 3.712 0.352 7.36 1.056 10.944C64.352 616.384 64 618.624 64 620.896l0 107.328c0 3.712 0.352 7.36 1.056 10.976C64.352 741.504 64 743.808 64 746.048l0 107.264c0 24.544 13.536 59.296 87.104 85.6 49.664 17.76 114.4 27.552 184.032 27.552s134.752-9.824 184.384-27.552c73.6-26.304 88.48-61.056 88.48-85.6l0-70.528c32 3.296 54.976 4.928 83.616 4.928 69.504 0 132.384-9.824 182.144-27.552 73.6-26.304 86.24-61.088 86.24-85.632l0-107.232c0-2.368-0.352-4.704-1.056-6.944C959.648 556.832 960 553.152 960 549.44l0-107.296c0-2.368-0.352-4.704-1.056-6.944C959.648 431.712 960 428.128 960 424.288L960 317.024c0-2.4-0.352-4.736-1.056-6.944C959.648 306.56 960 302.944 960 299.136L960 191.872c0-2.368 2.528-4.672 1.824-6.912C962.528 181.44 965.728 177.76 965.728 174.016zM691.712 740.16c-28.992 0-57.312-1.792-84-5.312C607.968 732.672 608 730.464 608 728.224l0-70.56c32 3.296 55.072 4.928 83.616 4.928 69.44 0 140.096-9.824 189.92-27.584C897.44 629.28 896 622.944 928 616.064l0 58.464c0 7.008-16.928 24.576-62.4 40.832C820.896 731.36 756 740.16 691.712 740.16zM865.6 590.24c-44.864 16-107.296 24.8-171.424 24.8-28.864 0-58.368-1.792-85.216-5.376 0.224-2.144-0.96-4.352-0.96-6.624l0-70.56c32 3.296 54.784 4.928 83.616 4.928 69.408 0 140.032-9.824 189.92-27.552C897.44 504.16 896 497.792 928 490.944l0 58.496C928 556.448 911.072 573.984 865.6 590.24zM865.6 465.088c-44.864 16-107.296 24.8-171.424 24.8-28.736 0-58.176-1.824-85.12-5.376 0.224-2.144-0.256-4.352-0.256-6.624 0-24.512-8.32-59.296-81.952-85.632C510.528 386.496 480 381.504 480 377.44l0-11.648c0 6.976 18.336 13.312 34.144 18.944 49.664 17.76 111.648 27.552 181.28 27.552 69.6 0 138.336-9.824 188-27.552C899.296 379.072 896 372.704 928 365.792l0 58.496C928 431.296 911.072 448.832 865.6 465.088zM864.16 339.936c-45.728 16.032-109.632 24.832-175.328 24.832-65.76 0-128.704-8.8-174.432-24.832-46.528-16.224-60.384-33.792-60.384-40.8L454.016 240.672c0 6.912 26.592 13.248 42.816 18.944 50.944 17.792 118.304 27.584 189.344 27.584 71.04 0 143.328-9.824 194.272-27.584C896.736 253.888 895.264 247.52 928 240.672l0 58.464C928 306.144 910.688 323.712 864.16 339.936zM860.704 214.848c-44.8 16-104.8 24.768-168.992 24.768-64.224 0-124.256-8.768-168.992-24.768-45.504-16.288-57.536-33.824-57.536-40.8 0-7.04 12.032-24.608 57.536-40.832 44.768-16 104.768-24.768 169.024-24.768 64.192 0 124.192 8.768 168.992 24.768 45.472 16.256 57.504 33.824 57.504 40.832C918.208 181.024 906.176 198.56 860.704 214.848zM576 794.816l0 58.496c0 7.04-19.68 24.608-65.184 40.8-44.832 16-108.672 24.768-172.832 24.768-64.192 0-131.936-8.768-176.736-24.768C115.776 877.92 96 860.352 96 853.312L96 794.88c32 6.912 31.52 13.248 47.36 18.912 49.696 17.76 118.304 27.52 187.872 27.52s144.384-9.792 194.048-27.52C541.216 808.096 544 801.76 576 794.816zM510.816 768.992c-44.8 16-108.64 24.8-172.832 24.8-64.224 0-131.968-8.8-176.736-24.8C115.776 752.736 96 735.232 96 728.224l0-58.496c32 6.912 31.52 13.248 47.36 18.912 49.792 17.792 118.432 27.584 187.872 27.584 69.472 0 144.256-9.824 194.048-27.584C541.152 682.976 544 676.64 576 669.696l0 58.528C576 735.232 556.32 752.736 510.816 768.992zM510.816 643.872c-44.736 16-108.576 24.768-172.832 24.768-64.288 0-132.032-8.768-176.704-24.768C115.776 627.584 96 610.048 96 603.072l0-58.496c32 6.976 31.584 13.344 47.36 18.976 49.824 17.76 118.464 27.552 187.872 27.552 69.44 0 144.256-9.824 194.048-27.552C541.088 557.92 544 551.52 576 544.576l0 58.496C576 610.048 556.32 627.584 510.816 643.872zM503.2 518.72c-44.736 16-104.768 24.768-169.024 24.768-64.288 0-124.288-8.768-168.992-24.768-45.472-16.256-57.504-33.824-57.504-40.8s12.032-24.544 57.504-40.8c44.736-16 104.768-24.8 168.992-24.8 64.224 0 124.256 8.8 169.024 24.8 45.504 16.288 57.536 33.824 57.536 40.8S548.672 502.464 503.2 518.72z" p-id="20919" fill="#ffffff"></path></svg>