<?xml version="1.0" standalone="no"?><!DOCTYPE svg PUBLIC "-//W3C//DTD SVG 1.1//EN" "http://www.w3.org/Graphics/SVG/1.1/DTD/svg11.dtd"><svg t="1718597759495" class="icon" viewBox="0 0 1024 1024" version="1.1" xmlns="http://www.w3.org/2000/svg" p-id="5986" xmlns:xlink="http://www.w3.org/1999/xlink" width="64" height="64"><path d="M886.723 298.387L527.101 139.993a37.465 37.465 0 0 0-30.202 0L137.277 298.387c-29.818 13.133-29.818 55.44 0 68.572l359.622 158.394a37.465 37.465 0 0 0 30.202 0l359.622-158.394c29.818-13.133 29.818-55.44 0-68.572z m-108.047 34.285L512 450.128 245.324 332.672 512 215.216l266.676 117.456z" p-id="5987" fill="#2c2c2c"></path><path d="M856.52 485.71c18.937-8.34 41.048 0.25 49.388 19.185 8.257 18.746-0.079 40.605-18.62 49.133l-0.565 0.254-359.622 158.394a37.465 37.465 0 0 1-29.728 0.205l-0.474-0.205-359.622-158.394c-18.936-8.34-27.526-30.451-19.185-49.387 8.256-18.747 30.01-27.353 48.818-19.43l0.57 0.245L512 637.45 856.52 485.71z" p-id="5988" fill="#2c2c2c"></path><path d="M856.52 673.033c18.937-8.34 41.048 0.25 49.388 19.185 8.257 18.747-0.079 40.606-18.62 49.133l-0.565 0.255-359.622 158.393a37.465 37.465 0 0 1-29.728 0.205l-0.474-0.205-359.622-158.393c-18.936-8.34-27.526-30.452-19.185-49.388 8.256-18.746 30.01-27.352 48.818-19.43l0.57 0.245L512 824.775l344.52-151.742z" p-id="5989" fill="#2c2c2c"></path></svg>