<?xml version="1.0" standalone="no"?><!DOCTYPE svg PUBLIC "-//W3C//DTD SVG 1.1//EN" "http://www.w3.org/Graphics/SVG/1.1/DTD/svg11.dtd"><svg t="1762825062905" class="icon" viewBox="0 0 1024 1024" version="1.1" xmlns="http://www.w3.org/2000/svg" p-id="7525" width="64" height="64" xmlns:xlink="http://www.w3.org/1999/xlink"><path d="M824 288V200H720a40 40 0 0 1 0-80h144a40 40 0 0 1 40 40v704a40 40 0 0 1-40 40H176a40 40 0 0 1-40-40V160a40 40 0 0 1 40-40h128a40 40 0 0 1 0 80H216v88h608z m0 72H216v464h608V360zM456 120h112a40 40 0 0 1 0 80H456a40 40 0 0 1 0-80zM360 456a48 48 0 1 1 0 96 48 48 0 0 1 0-96z m160 0a48 48 0 1 1 0 96 48 48 0 0 1 0-96z m160 0a48 48 0 1 1 0 96 48 48 0 0 1 0-96zM360 616a48 48 0 1 1 0 96 48 48 0 0 1 0-96z m160 0a48 48 0 1 1 0 96 48 48 0 0 1 0-96z m160 0a48 48 0 1 1 0 96 48 48 0 0 1 0-96z" fill="#2c2c2c" p-id="7526"></path></svg>