<?xml version="1.0" standalone="no"?><!DOCTYPE svg PUBLIC "-//W3C//DTD SVG 1.1//EN" "http://www.w3.org/Graphics/SVG/1.1/DTD/svg11.dtd"><svg t="1713688854940" class="icon" viewBox="0 0 1024 1024" version="1.1" xmlns="http://www.w3.org/2000/svg" p-id="111392" xmlns:xlink="http://www.w3.org/1999/xlink" width="128" height="128"><path d="M512 960C264.961 960 64 759.039 64 512S264.961 64 512 64s448 200.961 448 448-200.961 448-448 448z m0-831.713c-211.584 0-383.713 172.128-383.713 383.713 0 211.552 172.128 383.713 383.713 383.713 211.552 0 383.713-172.159 383.713-383.713 0-211.584-172.161-383.713-383.713-383.713z m45.055 385.089l138.368-136.864c12.576-12.416 12.673-32.672 0.256-45.248s-32.704-12.673-45.248-0.256l-138.56 137.024-136.448-136.864c-12.513-12.513-32.735-12.576-45.248-0.064-12.513 12.48-12.544 32.735-0.064 45.248l136.255 136.672-137.377 135.904c-12.576 12.447-12.673 32.672-0.256 45.248a31.888 31.888 0 0 0 22.751 9.504c8.128 0 16.256-3.103 22.497-9.248l137.568-136.064 138.688 139.137c6.241 6.272 14.432 9.408 22.657 9.408a31.936 31.936 0 0 0 22.591-9.344c12.513-12.48 12.544-32.704 0.064-45.248L557.056 513.377z" p-id="111393" fill="#ffffff"></path></svg>