<?xml version="1.0" standalone="no"?><!DOCTYPE svg PUBLIC "-//W3C//DTD SVG 1.1//EN" "http://www.w3.org/Graphics/SVG/1.1/DTD/svg11.dtd"><svg t="1757117022941" class="icon" viewBox="0 0 1024 1024" version="1.1" xmlns="http://www.w3.org/2000/svg" p-id="3531" width="64" height="64" xmlns:xlink="http://www.w3.org/1999/xlink"><path d="M512 42.666667c259.2 0 469.333333 210.133333 469.333333 469.333333s-210.133333 469.333333-469.333333 469.333333S42.666667 771.2 42.666667 512 252.8 42.666667 512 42.666667z m0 64C288.149333 106.666667 106.666667 288.149333 106.666667 512s181.482667 405.333333 405.333333 405.333333 405.333333-181.482667 405.333333-405.333333S735.850667 106.666667 512 106.666667z m162.133333 294.592c4.693333 0 8.533333 3.818667 8.533334 8.533333v66.346667a8.533333 8.533333 0 0 1-2.496 6.037333l-153.088 153.088-2.005334 1.770667a21.248 21.248 0 0 1-11.818666 4.437333h-2.517334a21.248 21.248 0 0 1-13.824-6.186667l-153.088-153.088a8.533333 8.533333 0 0 1-2.496-6.016v-66.389333a8.533333 8.533333 0 0 1 14.570667-6.037333l156.074667 156.074666 156.117333-156.074666a8.533333 8.533333 0 0 1 6.037333-2.496z" fill="#2c2c2c" p-id="3532"></path></svg>