<?xml version="1.0" standalone="no"?><!DOCTYPE svg PUBLIC "-//W3C//DTD SVG 1.1//EN" "http://www.w3.org/Graphics/SVG/1.1/DTD/svg11.dtd"><svg t="1773735263881" class="icon" viewBox="0 0 1024 1024" version="1.1" xmlns="http://www.w3.org/2000/svg" p-id="2890" width="64" height="64" xmlns:xlink="http://www.w3.org/1999/xlink"><path d="M511.5904 980.6848c-256.896 0-465.92-208.9984-465.92-465.92 0-256.896 209.024-465.92 465.92-465.92s465.92 209.024 465.92 465.92c0 256.9216-208.9984 465.92-465.92 465.92z m0-870.4c-223.0272 0-404.48 181.4528-404.48 404.48s181.4528 404.48 404.48 404.48 404.48-181.4528 404.48-404.48-181.4528-404.48-404.48-404.48z" fill="#d81e06" p-id="2891"></path><path d="M408.7552 700.032c-16.9728 0-30.72-13.7472-30.72-30.72V358.7328c0-16.9728 13.7472-30.72 30.72-30.72s30.72 13.7472 30.72 30.72v310.6048c0 16.9472-13.7472 30.6944-30.72 30.6944zM610.56 700.032c-16.9728 0-30.72-13.7472-30.72-30.72V358.7328c0-16.9728 13.7472-30.72 30.72-30.72s30.72 13.7472 30.72 30.72v310.6048c0 16.9472-13.7728 30.6944-30.72 30.6944z" fill="#d81e06" p-id="2892"></path></svg>