<?xml version="1.0" ?><svg id="object" viewBox="0 0 32 32" xmlns="http://www.w3.org/2000/svg"><defs><style>.cls-1{fill:#91e085;}.cls-2{fill:#6d6daa;}.cls-3{fill:#d6b5b0;}</style></defs><title/><path class="cls-1" d="M26,10V28a2,2,0,0,1-2,2H8a2,2,0,0,1-2-2V6a4,4,0,0,0,4,4Z"/><path class="cls-2" d="M24,31H8a3,3,0,0,1-3-3V6A1,1,0,0,1,7,6a3,3,0,0,0,3,3H26a1,1,0,0,1,1,1V28A3,3,0,0,1,24,31ZM7,10V28a1,1,0,0,0,1,1H24a1,1,0,0,0,1-1V11H10A5,5,0,0,1,7,10Z"/><path class="cls-3" d="M10,2H24a2,2,0,0,1,2,2v6a0,0,0,0,1,0,0H10A4,4,0,0,1,6,6V6A4,4,0,0,1,10,2Z"/><path class="cls-2" d="M26,11H10A5,5,0,0,1,10,1H24a3,3,0,0,1,3,3v6A1,1,0,0,1,26,11ZM10,3a3,3,0,0,0,0,6H25V4a1,1,0,0,0-1-1Z"/></svg>