<?xml version="1.0" standalone="no"?><!DOCTYPE svg PUBLIC "-//W3C//DTD SVG 1.1//EN" "http://www.w3.org/Graphics/SVG/1.1/DTD/svg11.dtd"><svg t="1742724924490" class="icon" viewBox="0 0 1024 1024" version="1.1" xmlns="http://www.w3.org/2000/svg" p-id="8356" width="64" height="64" xmlns:xlink="http://www.w3.org/1999/xlink"><path d="M512 960C264.533333 960 64 759.466667 64 512S264.533333 64 512 64s448 200.533333 448 448-200.533333 448-448 448z m0-853.333333C288 106.666667 106.666667 288 106.666667 512s181.333333 405.333333 405.333333 405.333333 405.333333-181.333333 405.333333-405.333333S736 106.666667 512 106.666667z" fill="#ffffff" p-id="8357"></path><path d="M320 725.333333c-6.4 0-10.666667-2.133333-14.933333-6.4-6.4-6.4-8.533333-12.8-6.4-21.333333l89.6-294.4c2.133333-6.4 6.4-12.8 14.933333-14.933333L697.6 298.666667c8.533333-2.133333 14.933333 0 21.333333 6.4 6.4 6.4 8.533333 12.8 6.4 21.333333l-89.6 294.4c-2.133333 6.4-6.4 12.8-14.933333 14.933333L326.4 725.333333H320z m106.666667-298.666666l-74.666667 247.466666L597.333333 597.333333l74.666667-247.466666L426.666667 426.666667z" fill="#ffffff" p-id="8358"></path></svg>