<?xml version="1.0" standalone="no"?><!DOCTYPE svg PUBLIC "-//W3C//DTD SVG 1.1//EN" "http://www.w3.org/Graphics/SVG/1.1/DTD/svg11.dtd"><svg t="1759132752206" class="icon" viewBox="0 0 1024 1024" version="1.1" xmlns="http://www.w3.org/2000/svg" p-id="12446" width="64" height="64" xmlns:xlink="http://www.w3.org/1999/xlink"><path d="M512 51.2C260.266667 51.2 51.2 260.266667 51.2 512S260.266667 972.8 512 972.8 972.8 763.733333 972.8 512 763.733333 51.2 512 51.2z m0 853.333333c-217.6 0-392.533333-174.933333-392.533333-392.533333S294.4 119.466667 512 119.466667s392.533333 174.933333 392.533333 392.533333-174.933333 392.533333-392.533333 392.533333z" p-id="12447" fill="#ffffff"></path><path d="M669.866667 311.466667l-230.4 110.933333c-8.533333 4.266667-12.8 8.533333-17.066667 17.066667l-110.933333 230.4c-4.266667 12.8-4.266667 25.6 4.266666 38.4 4.266667 4.266667 12.8 8.533333 21.333334 8.533333 4.266667 0 8.533333 0 12.8-4.266667l226.133333-110.933333c4.266667-4.266667 12.8-8.533333 12.8-12.8l115.2-230.4c4.266667-12.8 4.266667-25.6-4.266667-38.4-4.266667-12.8-17.066667-12.8-29.866666-8.533333z m-128 234.666666l-132.266667 64 64-136.533333 136.533333-64-68.266666 136.533333z" p-id="12448" fill="#ffffff"></path></svg>