<?xml version="1.0" standalone="no"?><!DOCTYPE svg PUBLIC "-//W3C//DTD SVG 1.1//EN" "http://www.w3.org/Graphics/SVG/1.1/DTD/svg11.dtd"><svg t="1757147511624" class="icon" viewBox="0 0 1024 1024" version="1.1" xmlns="http://www.w3.org/2000/svg" p-id="15092" width="64" height="64" xmlns:xlink="http://www.w3.org/1999/xlink"><path d="M948.032 902.784l-206.976-206.976C797.696 628.928 832 542.528 832 448c0-212.064-171.936-384-384-384S64 235.936 64 448s171.936 384 384 384c94.528 0 180.928-34.304 247.808-90.912l206.976 206.976c14.016 14.016 35.488 15.232 48 2.72C963.264 938.272 962.048 916.8 948.032 902.784zM448 768C271.264 768 128 624.736 128 448S271.264 128 448 128s320 143.264 320 320S624.736 768 448 768z" fill="#2c2c2c" p-id="15093"></path></svg>