<?xml version="1.0" standalone="no"?><!DOCTYPE svg PUBLIC "-//W3C//DTD SVG 1.1//EN" "http://www.w3.org/Graphics/SVG/1.1/DTD/svg11.dtd"><svg t="1759142757653" class="icon" viewBox="0 0 1024 1024" version="1.1" xmlns="http://www.w3.org/2000/svg" p-id="58144" width="64" height="64" xmlns:xlink="http://www.w3.org/1999/xlink"><path d="M85.333333 179.2h853.333334c17.066667 0 34.133333-12.8 34.133333-34.133333s-17.066667-25.6-34.133333-25.6H85.333333c-17.066667 0-34.133333 12.8-34.133333 34.133333s17.066667 25.6 34.133333 25.6zM320 460.8H85.333333c-17.066667 0-34.133333 12.8-34.133333 34.133333s12.8 34.133333 34.133333 34.133334h234.666667c17.066667 0 34.133333-12.8 34.133333-34.133334s-17.066667-34.133333-34.133333-34.133333zM320 802.133333H85.333333c-17.066667 0-34.133333 12.8-34.133333 34.133334s12.8 34.133333 34.133333 34.133333h234.666667c17.066667 0 34.133333-12.8 34.133333-34.133333s-17.066667-34.133333-34.133333-34.133334zM832 682.666667c29.866667-38.4 51.2-85.333333 51.2-136.533334 0-119.466667-93.866667-213.333333-213.333333-213.333333s-213.333333 93.866667-213.333334 213.333333 93.866667 213.333333 213.333334 213.333334c42.666667 0 81.066667-12.8 115.2-34.133334l132.266666 132.266667c4.266667 4.266667 12.8 8.533333 21.333334 8.533333s17.066667-4.266667 21.333333-8.533333c12.8-12.8 12.8-34.133333 0-46.933333l-128-128z m-311.466667-136.533334c0-81.066667 68.266667-149.333333 149.333334-149.333333s149.333333 68.266667 149.333333 149.333333-68.266667 149.333333-149.333333 149.333334-149.333333-68.266667-149.333334-149.333334z" p-id="58145" fill="#2c2c2c"></path></svg>