<?xml version="1.0" standalone="no"?><!DOCTYPE svg PUBLIC "-//W3C//DTD SVG 1.1//EN" "http://www.w3.org/Graphics/SVG/1.1/DTD/svg11.dtd"><svg t="1716681009857" class="icon" viewBox="0 0 1024 1024" version="1.1" xmlns="http://www.w3.org/2000/svg" p-id="14470" xmlns:xlink="http://www.w3.org/1999/xlink" width="32" height="32"><path d="M258.5856 413.806933A42.666667 42.666667 0 0 1 234.666667 375.466667c0-23.5648 19.101867-42.666667 42.666666-42.666667s42.666667 19.101867 42.666667 42.666667a42.568533 42.568533 0 0 1-14.8608 32.362666C322.304 505.429333 369.105067 550.749867 448 550.749867c78.656 0 125.879467-45.060267 144.064-141.922134A42.589867 42.589867 0 0 1 576 375.466667c0-23.5648 19.101867-42.666667 42.666667-42.666667s42.666667 19.101867 42.666666 42.666667c0 16.213333-9.045333 30.318933-22.365866 37.538133-21.687467 120.733867-86.190933 184.6784-190.967467 184.6784-104.571733 0-168.558933-63.701333-189.4144-183.876267zM797.866667 832v29.866667c0 37.704533-30.562133 68.266667-68.266667 68.266666H166.4c-37.704533 0-68.266667-30.562133-68.266667-68.266666V264.533333c0-37.704533 30.562133-68.266667 68.266667-68.266666h59.733333v-29.866667c0-37.704533 30.562133-68.266667 68.266667-68.266667h567.466667c37.704533 0 68.266667 30.562133 68.266666 68.266667v597.333333c0 37.704533-30.562133 68.266667-68.266666 68.266667h-64z m0-51.2h64a17.066667 17.066667 0 0 0 17.066666-17.066667V166.4a17.066667 17.066667 0 0 0-17.066666-17.066667H294.4a17.066667 17.066667 0 0 0-17.066667 17.066667v29.866667h452.266667c37.704533 0 68.266667 30.562133 68.266667 68.266666v516.266667zM166.4 247.466667a17.066667 17.066667 0 0 0-17.066667 17.066666v597.333334a17.066667 17.066667 0 0 0 17.066667 17.066666h563.2a17.066667 17.066667 0 0 0 17.066667-17.066666V264.533333a17.066667 17.066667 0 0 0-17.066667-17.066666H166.4z" fill="#ffffff" p-id="14471"></path></svg>