<?xml version="1.0" standalone="no"?><!DOCTYPE svg PUBLIC "-//W3C//DTD SVG 1.1//EN" "http://www.w3.org/Graphics/SVG/1.1/DTD/svg11.dtd"><svg t="1749110368577" class="icon" viewBox="0 0 1024 1024" version="1.1" xmlns="http://www.w3.org/2000/svg" p-id="8835" xmlns:xlink="http://www.w3.org/1999/xlink" width="128" height="128"><path d="M246.4 912a2.1 2.1 0 1 0 134.4 0 2.1 2.1 0 1 0-134.4 0zM716.8 912a2.1 2.1 0 1 0 134.4 0 2.1 2.1 0 1 0-134.4 0zM905.6 764.8H368c-28.8 0-57.6-25.6-64-54.4L208 144c-9.6-54.4-60.8-96-115.2-96H70.4c-12.8 0-25.6 12.8-25.6 25.6s12.8 25.6 25.6 25.6h22.4c28.8 0 57.6 25.6 64 54.4l96 566.4c9.6 54.4 60.8 96 115.2 96h537.6c12.8 0 25.6-12.8 25.6-25.6s-9.6-25.6-25.6-25.6z" fill="#ffffff" p-id="8836"></path><path d="M880 179.2H307.2c-12.8 0-25.6 12.8-25.6 25.6s12.8 25.6 25.6 25.6H880c25.6 0 38.4 16 32 41.6l-70.4 281.6c-6.4 32-41.6 57.6-73.6 60.8l-396.8 28.8c-12.8 0-25.6 12.8-22.4 28.8 0 12.8 12.8 25.6 28.8 22.4l396.8-28.8c54.4-3.2 105.6-48 118.4-99.2l70.4-281.6c12.8-54.4-25.6-105.6-83.2-105.6z" fill="#ffffff" p-id="8837"></path></svg>