<?xml version="1.0" standalone="no"?><!DOCTYPE svg PUBLIC "-//W3C//DTD SVG 1.1//EN" "http://www.w3.org/Graphics/SVG/1.1/DTD/svg11.dtd"><svg t="1755436380094" class="icon" viewBox="0 0 1024 1024" version="1.1" xmlns="http://www.w3.org/2000/svg" p-id="5010" width="64" height="64" xmlns:xlink="http://www.w3.org/1999/xlink"><path d="M832.65 710.71c-23.06 0-44.64 6.28-63.16 17.2l-104.1-104.1c23.26-31.74 37-70.89 37-113.25 0-44.18-14.95-84.87-40.05-117.3l4.8 4.8 141.63-141.63c14.71 8.17 31.64 12.83 49.66 12.83 56.58 0 102.46-45.87 102.46-102.46S915.01 64.33 858.43 64.33c-56.58 0-102.46 45.87-102.46 102.46 0 16.35 3.84 31.8 10.65 45.51L624 354.92l3.86 3.86c-32.43-25.1-73.12-40.05-117.3-40.05-42.84 0-82.39 14.04-114.31 37.77l0.19-0.19-107.13-107.13c7.76-14.43 12.17-30.93 12.17-48.46 0-56.58-45.87-102.46-102.46-102.46S96.56 144.13 96.56 200.72s45.87 102.46 102.46 102.46c16.84 0 32.73-4.06 46.75-11.27L353.3 399.44l3.2-3.2c-23.73 31.93-37.77 71.48-37.77 114.32 0 42.36 13.74 81.51 37 113.25l-85.98 85.98c-21.92-19.27-50.67-30.96-82.15-30.96-68.75 0-124.48 55.73-124.48 124.48s55.73 124.48 124.48 124.48 124.48-55.73 124.48-124.48c0-14.83-2.6-29.04-7.35-42.23l94.38-94.38c31.42 22.46 69.89 35.69 111.46 35.69 41.57 0 80.04-13.22 111.46-35.69L726.1 770.79c-11.38 18.79-17.93 40.83-17.93 64.4 0 68.75 55.73 124.48 124.48 124.48s124.48-55.73 124.48-124.48-55.73-124.48-124.48-124.48z m25.78-585.38c22.86 0 41.46 18.6 41.46 41.46s-18.6 41.46-41.46 41.46-41.46-18.6-41.46-41.46 18.6-41.46 41.46-41.46z m-700.87 75.39c0-22.86 18.6-41.46 41.46-41.46s41.46 18.6 41.46 41.46-18.6 41.46-41.46 41.46-41.46-18.6-41.46-41.46z m30.04 666.07c-35 0-63.48-28.48-63.48-63.48s28.48-63.48 63.48-63.48 63.48 28.48 63.48 63.48-28.48 63.48-63.48 63.48z m230.45-263.72c-24.71-24.71-38.32-57.56-38.32-92.51s13.61-67.8 38.32-92.51 57.56-38.32 92.51-38.32 67.8 13.61 92.51 38.32c24.71 24.71 38.32 57.56 38.32 92.51s-13.61 67.8-38.32 92.51c-24.71 24.71-57.56 38.32-92.51 38.32s-67.8-13.61-92.51-38.32z m414.6 295.6c-35 0-63.48-28.48-63.48-63.48s28.48-63.48 63.48-63.48 63.48 28.48 63.48 63.48-28.48 63.48-63.48 63.48z" p-id="5011"></path></svg>