<?xml version="1.0" standalone="no"?><!DOCTYPE svg PUBLIC "-//W3C//DTD SVG 1.1//EN" "http://www.w3.org/Graphics/SVG/1.1/DTD/svg11.dtd"><svg t="1764041821357" class="icon" viewBox="0 0 1024 1024" version="1.1" xmlns="http://www.w3.org/2000/svg" p-id="4737" width="64" height="64" xmlns:xlink="http://www.w3.org/1999/xlink"><path d="M87.68 87.68q-34.368 34.368-34.368 83.008 0 48.64 34.368 82.944 34.368 34.368 82.944 34.368 31.808 0 57.472-14.72l60.48 60.544q-21.888 41.856-21.888 92.8 0 83.968 59.328 143.36 4.8 4.736 9.664 9.088l-47.168 47.168Q254.72 608 213.312 608q-66.304 0-113.152 46.848T53.312 768q0 66.304 46.848 113.152t113.152 46.848q66.304 0 113.152-46.848T373.312 768q0-57.6-35.456-100.608l53.12-53.12q36.096 15.04 78.4 15.04 66.176 0 117.12-36.928l96.896 121.088q-32.704 41.856-32.704 97.216 0 66.24 46.848 113.088 46.848 46.912 113.152 46.912t113.152-46.912q46.848-46.848 46.848-113.088 0-66.304-46.848-113.152t-113.152-46.848q-43.84 0-79.168 20.48L632.448 547.392q39.552-52.16 39.552-120.704 0-67.52-38.4-119.104l28.992-28.928a32 32 0 0 0 4.544-5.76q25.984 15.104 58.24 15.104 48.576 0 82.944-34.368t34.368-82.944q0-48.64-34.368-83.008-34.368-34.368-83.008-34.368-48.64 0-82.944 34.368-34.368 34.368-34.368 83.008 0 32.192 15.104 58.112a32 32 0 0 0-5.76 4.544l-28.928 28.992Q536.832 224 469.376 224q-83.072 0-142.08 58.048l-53.952-54.016q14.656-25.6 14.656-57.344 0-48.64-34.368-83.008Q219.264 53.312 170.624 53.312q-48.64 0-82.944 34.368z m45.248 120.704q-15.616-15.616-15.616-37.76 0-22.08 15.616-37.696t37.76-15.616q22.08 0 37.696 15.616 15.616 15.68 15.616 37.76t-15.616 37.696q-15.616 15.616-37.76 15.616-22.08 0-37.696-15.616z m554.688 0q-15.616-15.616-15.616-37.76 0-22.016 15.616-37.696 15.616-15.616 37.76-15.616 22.08 0 37.696 15.616 15.616 15.68 15.616 37.76t-15.616 37.696q-15.616 15.616-37.76 15.616-22.08 0-37.696-15.616zM371.328 524.736q-40.64-40.64-40.64-98.048 0-57.472 40.64-98.048 40.576-40.64 98.048-40.64 57.408 0 98.048 40.64 40.576 40.576 40.576 98.048 0 57.408-40.576 98.048-40.64 40.576-98.048 40.576-57.472 0-98.048-40.576z m-225.92 311.168q-28.096-28.16-28.096-67.904t28.16-67.84q28.096-28.16 67.84-28.16t67.84 28.16q28.16 28.096 28.16 67.84t-28.16 67.84q-28.096 28.16-67.84 28.16t-67.84-28.16z m569.28-25.216q0-39.808 28.16-67.904 28.096-28.16 67.84-28.16t67.84 28.16q28.16 28.16 28.16 67.84 0 39.808-28.16 67.904-28.096 28.16-67.84 28.16t-67.84-28.16q-28.16-28.096-28.16-67.84z" p-id="4738" fill="#2c2c2c"></path></svg>