<?xml version="1.0" standalone="no"?><!DOCTYPE svg PUBLIC "-//W3C//DTD SVG 1.1//EN" "http://www.w3.org/Graphics/SVG/1.1/DTD/svg11.dtd"><svg t="1715767941124" class="icon" viewBox="0 0 1024 1024" version="1.1" xmlns="http://www.w3.org/2000/svg" p-id="9188" xmlns:xlink="http://www.w3.org/1999/xlink" width="128" height="128"><path d="M725.44 430.272a33.856 33.856 0 0 0-35.904 7.68L604.8 522.56a33.856 33.856 0 0 0-6.912 37.504A263.552 263.552 0 0 1 566.72 832L383.36 648.704 192 457.344a263.872 263.872 0 0 1 271.872-31.232 34.048 34.048 0 0 0 37.504-6.848l84.736-84.736a33.92 33.92 0 0 0 7.616-35.968A106.88 106.88 0 0 1 610.752 192L832 413.248a106.816 106.816 0 0 1-106.624 16.96m161.088-35.52l-257.216-257.28a32.256 32.256 0 0 0-45.44 0l-15.936 15.872a166.4 166.4 0 0 0-43.776 156.928l-52.032 52.16A319.616 319.616 0 0 0 137.344 435.2a32.192 32.192 0 0 0 0 45.44l184.32 184.32-108.928 108.544a32.128 32.128 0 0 0 45.44 45.44l108.8-108.8 176.448 176.448a32 32 0 0 0 45.44 0 319.36 319.36 0 0 0 72.64-334.72l52.224-52.032a165.76 165.76 0 0 0 156.928-43.776l15.872-15.872a32.128 32.128 0 0 0 0-45.504" fill="#ffffff" p-id="9189"></path><path d="M547.456 611.84c1.152 2.624 11.456 26.432 10.688 52.608a29.248 29.248 0 1 1-58.368-1.664 74.368 74.368 0 0 0-5.76-27.2 29.312 29.312 0 0 1 53.44-23.68z" fill="#ffffff" p-id="9190"></path></svg>