<?xml version="1.0" standalone="no"?><!DOCTYPE svg PUBLIC "-//W3C//DTD SVG 1.1//EN" "http://www.w3.org/Graphics/SVG/1.1/DTD/svg11.dtd"><svg t="1760318942224" class="icon" viewBox="0 0 1024 1024" version="1.1" xmlns="http://www.w3.org/2000/svg" p-id="23675" width="64" height="64" xmlns:xlink="http://www.w3.org/1999/xlink"><path d="M878.272 392.128l-246.4-246.4a33.088 33.088 0 0 0-46.976 0L423.808 306.88A329.6 329.6 0 0 0 180.48 377.152a33.28 33.28 0 0 0-2.688 49.472l181.76 181.696-215.424 215.168a15.808 15.808 0 0 0-4.608 9.792l-3.392 37.248a16 16 0 0 0 15.872 17.344l1.472-0.064 37.248-3.392a15.808 15.808 0 0 0 9.792-4.608l215.36-215.424 181.76 181.76a33.088 33.088 0 0 0 49.344-2.752 330.304 330.304 0 0 0 70.208-243.392l161.088-161.088a33.152 33.152 0 0 0 0-46.784zM666.24 549.312l-24.448 24.512 3.776 34.368a259.904 259.904 0 0 1-30.4 153.92l-353.088-353.28a258.624 258.624 0 0 1 153.92-30.4l34.368 3.776 24.512-24.512L608.512 224 800 415.488l-133.76 133.76z" fill="#2c2c2c" p-id="23676"></path></svg>