<?xml version="1.0" standalone="no"?><!DOCTYPE svg PUBLIC "-//W3C//DTD SVG 1.1//EN" "http://www.w3.org/Graphics/SVG/1.1/DTD/svg11.dtd"><svg t="1779695404764" class="icon" viewBox="0 0 1024 1024" version="1.1" xmlns="http://www.w3.org/2000/svg" p-id="7186" width="64" height="64" xmlns:xlink="http://www.w3.org/1999/xlink"><path d="M394.666667 755.626667a29.44 29.44 0 1 1-58.88 0v-160.853334a98.133333 98.133333 0 0 1 27.306666-67.413333 91.733333 91.733333 0 0 1 65.706667-27.733333H597.333333a92.586667 92.586667 0 0 1 65.706667 27.733333 97.706667 97.706667 0 0 1 26.88 67.413333v256a112.213333 112.213333 0 0 1-31.146667 78.08 106.24 106.24 0 0 1-75.946666 32.426667h-298.666667a124.586667 124.586667 0 0 1-90.026667-38.4 131.413333 131.413333 0 0 1-37.12-92.16v-311.893333H50.773333a29.44 29.44 0 0 1-29.44-29.866667 30.293333 30.293333 0 0 1 11.946667-24.32l462.506667-393.813333a29.013333 29.013333 0 0 1 38.4 0l457.813333 394.24a29.866667 29.866667 0 0 1-18.773333 52.906666h-104.106667v360.96a80.213333 80.213333 0 0 1-23.04 59.733334 76.8 76.8 0 0 1-55.04 23.466666h-7.68a29.44 29.44 0 0 1-29.013333-30.293333 29.44 29.44 0 0 1 29.013333-29.866667h7.68a18.346667 18.346667 0 0 0 13.653333-5.973333 21.333333 21.333333 0 0 0 5.973334-14.08v-392.96a29.44 29.44 0 0 1 29.013333-30.293333h53.333333l-378.453333-325.546667-384 325.546667h53.76a29.44 29.44 0 0 1 29.013333 30.293333v341.333333a69.546667 69.546667 0 0 0 20.48 49.493334 66.986667 66.986667 0 0 0 48.213334 20.906666h298.666666a48.64 48.64 0 0 0 34.56-14.933333 49.493333 49.493333 0 0 0 14.506667-35.413333v-256a34.56 34.56 0 0 0-10.24-24.746667 32.426667 32.426667 0 0 0-23.893333-10.24h-166.826667a34.133333 34.133333 0 0 0-24.32 10.24 35.84 35.84 0 0 0-9.813333 24.746667v160.853333z" fill="#ffffff" p-id="7187"></path></svg>