<?xml version="1.0" standalone="no"?><!DOCTYPE svg PUBLIC "-//W3C//DTD SVG 1.1//EN" "http://www.w3.org/Graphics/SVG/1.1/DTD/svg11.dtd"><svg t="1749110040522" class="icon" viewBox="0 0 1024 1024" version="1.1" xmlns="http://www.w3.org/2000/svg" p-id="7512" xmlns:xlink="http://www.w3.org/1999/xlink" width="128" height="128"><path d="M161.984 580.992l30.08 59.008c-20.672 20.032-31.36 41.344-32 64 2.624 42.688 36.8 79.68 102.464 111.04s148.8 47.616 249.536 48.96c100.608-1.344 183.808-17.664 249.472-48.96 65.664-31.36 99.84-68.352 102.528-111.04-0.64-22.656-11.392-44.032-32-64l30.976-59.008c20.672 17.344 36.672 36.352 48 56.96 11.328 20.672 17.024 42.688 17.024 66.048-3.392 65.984-44.352 119.488-123.008 160.512-78.72 40.96-176.384 62.144-293.056 63.488-116.608-1.344-214.272-22.528-292.992-63.488-78.656-40.96-119.68-94.464-123.008-160.512 0-23.36 5.888-45.376 17.536-65.984 11.648-20.672 27.84-39.68 48.512-57.024z m0-192l30.08 59.008c-20.672 20.032-31.36 41.344-32 64 2.624 42.688 36.8 79.68 102.464 111.04s148.8 47.616 249.536 48.96c100.608-1.344 183.808-17.664 249.472-48.96 65.664-31.36 99.84-68.352 102.528-111.04-0.64-22.656-11.392-44.032-32-64l30.976-59.008c20.672 17.344 36.672 36.352 48 56.96 11.328 20.672 17.024 42.688 17.024 66.048-3.392 65.984-44.352 119.488-123.008 160.512-78.72 40.96-176.384 62.144-293.056 63.488-116.608-1.344-214.272-22.528-292.992-63.488C140.352 631.552 99.328 578.048 96 512c0-23.36 5.888-45.312 17.536-66.048 11.648-20.608 27.84-39.68 48.512-56.96zM512 544c-116.672-1.344-214.336-22.528-292.992-63.488S99.328 386.048 96 320c3.328-65.984 44.352-119.488 123.008-160.512C297.728 118.528 395.328 97.344 512 96c116.672 1.344 214.336 22.528 292.992 63.488S924.672 253.952 928 320c-3.328 65.984-44.352 119.488-123.008 160.512-78.72 40.96-176.32 62.144-292.992 63.488z m0-64c100.672-1.344 183.872-17.664 249.536-49.024C827.2 399.68 861.376 362.688 864 320c-2.688-42.688-36.8-79.68-102.464-111.04S612.608 161.344 512 160c-100.672 1.344-183.808 17.664-249.536 48.96C196.8 240.32 162.624 277.312 160 320c2.688 42.688 36.8 79.68 102.464 110.976 65.728 31.36 148.864 47.68 249.536 49.024z" fill="#000000" p-id="7513"></path></svg>