<?xml version="1.0" standalone="no"?><!DOCTYPE svg PUBLIC "-//W3C//DTD SVG 1.1//EN" "http://www.w3.org/Graphics/SVG/1.1/DTD/svg11.dtd"><svg t="1716644168728" class="icon" viewBox="0 0 1024 1024" version="1.1" xmlns="http://www.w3.org/2000/svg" p-id="49546" xmlns:xlink="http://www.w3.org/1999/xlink" width="32" height="32"><path d="M517.21 568.32c-176.71 0-331.93-61.94-395.41-157.79-19.85-29.97-29.92-61.91-29.92-94.94 0-141.71 186.83-252.71 425.33-252.71s425.33 111 425.33 252.71c0 30.97-8.9 61.1-26.45 89.51-61.24 99.14-217.81 163.22-398.88 163.22z m0-430.77c-190.08 0-350.67 81.54-350.67 178.04 0 18.1 5.89 36.17 17.5 53.7 49.27 74.39 183.16 124.36 333.17 124.36 150.97 0 288.88-52.55 335.35-127.79 10.16-16.44 15.31-33.36 15.31-50.28 0.01-96.5-160.57-178.03-350.66-178.03z" p-id="49547" fill="#2c2c2c"></path><path d="M517.21 744.98c-180.93 0-340.78-58.83-417.14-153.51-12.94-16.06-10.43-39.56 5.62-52.5 16.05-12.98 39.56-10.41 52.49 5.61 61.6 76.38 202.52 125.73 359.02 125.73 148.05 0 285.89-45.77 351.15-116.59 13.96-15.15 37.59-16.11 52.76-2.15 15.16 13.96 16.12 37.59 2.15 52.76-79.94 86.74-235.53 140.65-406.05 140.65z" p-id="49548" fill="#2c2c2c"></path><path d="M517.21 958.88c-180.87 0-340.68-58.79-417.07-153.43-12.95-16.04-10.45-39.54 5.6-52.5 16.06-12.92 39.56-10.45 52.5 5.61 61.61 76.33 202.52 125.65 358.97 125.65 157.5 0 302.93-51.99 361.89-129.37 12.49-16.41 35.93-19.6 52.32-7.07 16.41 12.49 19.57 35.91 7.07 52.32-73.48 96.46-238.85 158.79-421.28 158.79z" p-id="49549" fill="#2c2c2c"></path></svg>