<?xml version="1.0" standalone="no"?><!DOCTYPE svg PUBLIC "-//W3C//DTD SVG 1.1//EN" "http://www.w3.org/Graphics/SVG/1.1/DTD/svg11.dtd"><svg t="1714031298551" class="icon" viewBox="0 0 1024 1024" version="1.1" xmlns="http://www.w3.org/2000/svg" p-id="2483" xmlns:xlink="http://www.w3.org/1999/xlink" width="128" height="128"><path d="M512.804571 73.142857a207.238095 207.238095 0 0 1 207.238096 207.238095l-0.024381 60.952381H828.952381a73.142857 73.142857 0 0 1 73.142857 73.142857v438.857143a73.142857 73.142857 0 0 1-73.142857 73.142857H195.047619a73.142857 73.142857 0 0 1-73.142857-73.142857V414.47619a73.142857 73.142857 0 0 1 73.142857-73.142857h110.494476v-60.952381a207.238095 207.238095 0 0 1 207.238095-207.238095zM828.952381 414.47619H195.047619v438.857143h633.904762V414.47619z m-273.383619 121.904762v195.047619h-73.142857v-195.047619h73.142857zM512.804571 146.285714a134.095238 134.095238 0 0 0-134.095238 134.095238V341.333333h268.190477v-60.952381a134.095238 134.095238 0 0 0-134.095239-134.095238z" p-id="2484" fill="#ffffff"></path></svg>