<?xml version="1.0" standalone="no"?><!DOCTYPE svg PUBLIC "-//W3C//DTD SVG 1.1//EN" "http://www.w3.org/Graphics/SVG/1.1/DTD/svg11.dtd"><svg t="1760318005547" class="icon" viewBox="0 0 1024 1024" version="1.1" xmlns="http://www.w3.org/2000/svg" p-id="4077" width="64" height="64" xmlns:xlink="http://www.w3.org/1999/xlink"><path d="M640 206.933333h256c23.466667 0 42.666667 19.2 42.666667 42.666667s-19.2 42.666667-42.666667 42.666667h-256c-23.466667 0-42.666667-19.2-42.666667-42.666667s19.2-42.666667 42.666667-42.666667z m0 234.666667h256c23.466667 0 42.666667 19.2 42.666667 42.666667s-19.2 42.666667-42.666667 42.666666h-256c-23.466667 0-42.666667-19.2-42.666667-42.666666s19.2-42.666667 42.666667-42.666667z m0 234.666667h256c23.466667 0 42.666667 19.2 42.666667 42.666666s-19.2 42.666667-42.666667 42.666667h-256c-23.466667 0-42.666667-19.2-42.666667-42.666667s19.2-42.666667 42.666667-42.666666zM420.266667 810.666667l76.373333-76.373334c8.533333-8.533333 8.533333-21.76 0-30.293333l-76.373333-76.373333a21.12 21.12 0 0 0-36.266667 14.933333v153.173333c0 18.773333 23.04 28.16 36.266667 14.933334zM384 676.266667h-12.8c-100.266667 0-189.866667-72.96-199.68-172.8A192.384 192.384 0 0 1 362.666667 292.266667H469.333333c23.466667 0 42.666667-19.2 42.666667-42.666667s-19.2-42.666667-42.666667-42.666667H362.666667c-164.693333 0-296.96 145.066667-274.773334 314.026667 17.92 139.946667 143.786667 240.64 284.586667 240.64H384v-85.333333z" p-id="4078" fill="#ffffff"></path></svg>