<?xml version="1.0" standalone="no"?><!DOCTYPE svg PUBLIC "-//W3C//DTD SVG 1.1//EN" "http://www.w3.org/Graphics/SVG/1.1/DTD/svg11.dtd"><svg t="1716723905075" class="icon" viewBox="0 0 1024 1024" version="1.1" xmlns="http://www.w3.org/2000/svg" p-id="153868" xmlns:xlink="http://www.w3.org/1999/xlink" width="32" height="32"><path d="M512 32c265.097 0 480 214.903 480 480S777.097 992 512 992 32 777.097 32 512 246.903 32 512 32z m0 64C282.25 96 96 282.25 96 512s186.25 416 416 416 416-186.25 416-416S741.75 96 512 96zM312 640a8 8 0 0 1 8 8v48a8 8 0 0 1-8 8h-48a8 8 0 0 1-8-8v-48a8 8 0 0 1 8-8h48z m448 0a8 8 0 0 1 8 8v48a8 8 0 0 1-8 8H392a8 8 0 0 1-8-8v-48a8 8 0 0 1 8-8h368zM312 480a8 8 0 0 1 8 8v48a8 8 0 0 1-8 8h-48a8 8 0 0 1-8-8v-48a8 8 0 0 1 8-8h48z m448 0a8 8 0 0 1 8 8v48a8 8 0 0 1-8 8H392a8 8 0 0 1-8-8v-48a8 8 0 0 1 8-8h368zM312 320a8 8 0 0 1 8 8v48a8 8 0 0 1-8 8h-48a8 8 0 0 1-8-8v-48a8 8 0 0 1 8-8h48z m448 0a8 8 0 0 1 8 8v48a8 8 0 0 1-8 8H392a8 8 0 0 1-8-8v-48a8 8 0 0 1 8-8h368z" fill="#2c2c2c" p-id="153869"></path></svg>