<?xml version="1.0" standalone="no"?><!DOCTYPE svg PUBLIC "-//W3C//DTD SVG 1.1//EN" "http://www.w3.org/Graphics/SVG/1.1/DTD/svg11.dtd"><svg t="1773538691363" class="icon" viewBox="0 0 1024 1024" version="1.1" xmlns="http://www.w3.org/2000/svg" p-id="12131" width="64" height="64" xmlns:xlink="http://www.w3.org/1999/xlink"><path d="M286.2 480.9h190v-190c0-104.8-85.2-190-190-190s-190 85.2-190 190 85.3 190 190 190z m0-320.5c71.9 0 130.4 58.5 130.4 130.4v130.4H286.2c-71.9 0-130.4-58.5-130.4-130.4s58.5-130.4 130.4-130.4zM927.8 290.9c0-104.8-85.2-190-190-190s-190 85.2-190 190v190h190c104.7 0 190-85.3 190-190z m-320.5 0c0-71.9 58.5-130.4 130.4-130.4S868.1 219 868.1 290.9s-58.5 130.4-130.4 130.4H607.3V290.9zM96.4 733.1c0 104.8 85.2 190 190 190s190-85.2 190-190v-190h-190c-104.8 0-190 85.3-190 190z m320.4 0c0 71.9-58.5 130.4-130.4 130.4-71.9 0.1-130.4-58.5-130.4-130.4s58.5-130.4 130.4-130.4h130.4v130.4zM737.8 543.1h-190v190c0 104.8 85.2 190 190 190s190-85.2 190-190-85.3-190-190-190z m0 320.5c-71.9 0-130.4-58.5-130.4-130.4V602.7h130.4c71.9 0 130.4 58.5 130.4 130.4s-58.5 130.5-130.4 130.5z" p-id="12132" fill="#2c2c2c"></path></svg>