<?xml version="1.0" standalone="no"?><!DOCTYPE svg PUBLIC "-//W3C//DTD SVG 1.1//EN" "http://www.w3.org/Graphics/SVG/1.1/DTD/svg11.dtd"><svg t="1761225629268" class="icon" viewBox="0 0 1024 1024" version="1.1" xmlns="http://www.w3.org/2000/svg" p-id="14876" xmlns:xlink="http://www.w3.org/1999/xlink" width="64" height="64"><path d="M476.608 115.264l39.872 32.512a70.4 70.4 0 0 0-21.568 45.824c-1.152 16.128-2.368 32.384-3.84 46.976a2.944 2.944 0 0 0-1.28 0.448 99.84 99.84 0 0 0-59.84 38.08l-0.32 0.256-0.256 0.512a71.616 71.616 0 0 0-2.752 73.92 103.04 103.04 0 0 0 80.64 48l-2.688 5.12-1.152 2.112a57.92 57.92 0 0 0-27.2-1.472l-11.776-2.752a178.368 178.368 0 0 0-42.112-6.912c-2.304 0-4.608 0-6.848 0.256-21.568 1.664-40.96 13.76-51.968 32.448a56.96 56.96 0 0 0-48.96 70.144c0.256 3.968 0.64 8.448 1.28 13.76 0.896 10.112 2.176 23.36 3.2 39.04a73.28 73.28 0 0 0-29.952-7.936h-1.92a74.56 74.56 0 0 1-7.296-26.304 496 496 0 0 1-3.2-67.968 78.464 78.464 0 0 0-39.424-68.736 96.064 96.064 0 0 0-50.048-14.08c-17.216 0-34.112 4.48-49.024 13.056l-2.24-0.896a399.488 399.488 0 0 1 340.672-265.408m411.136 305.024l13.952 8.704a408.96 408.96 0 0 1 4.352 141.248L857.6 613.696a316.992 316.992 0 0 0-44.096-52.672 63.744 63.744 0 0 1-13.376-16.448 21.312 21.312 0 0 1-2.944-11.84 52.672 52.672 0 0 1 10.112-24.512c14.4-19.392 31.68-36.48 51.328-50.56l33.408-25.6-4.48-11.584M456.704 666.24c3.904 2.496 8 4.736 12.16 6.72a160.92 160.92 0 0 1 28.16 23.232 204.66 204.66 0 0 0 43.776 33.92c6.272 16 18.56 28.992 34.24 36.096a181.44 181.44 0 0 0-26.24 51.2v-6.848l-24.384-17.472a450.56 450.56 0 0 1-36.608-29.888 163.2 163.2 0 0 1-36.672-41.92 241.927 241.927 0 0 1 3.2-32.64 126.154 126.154 0 0 0 2.368-22.4M512 56.832a455.104 455.104 0 1 0 0 910.208 455.104 455.104 0 0 0 0-910.08z m12.672 289.024c-33.92 0-58.56-18.048-47.36-35.392 14.08-21.248 64.64-9.408 69.12-52.096 2.048-19.712 3.84-41.92 5.12-60.672a13.632 13.632 0 0 1 12.8-12.608c33.088-2.368 36.48-41.792 5.504-66.944a390.464 390.464 0 0 1 97.088 27.072 400.128 400.128 0 0 1 206.208 198.912 28.608 28.608 0 0 0-15.488-4.608c-25.28 0-48.192 34.176-33.792 72.896-118.208 90.688-87.872 154.112-49.28 190.208 11.904 11.648 22.72 24.32 32.32 38.016 9.216 13.12 15.552 28.032 18.688 43.712 1.216 5.568 6.464 9.28 12.16 8.576a65.28 65.28 0 0 0 38.336-19.264 399.488 399.488 0 0 1-275.84 226.944 23.104 23.104 0 0 0-4.416-0.384 41.536 41.536 0 0 0-10.688 1.536c13.76-58.24 20.224-91.008 48.832-115.776a38.528 38.528 0 0 0-21.248-71.808 33.536 33.536 0 0 0-5.12 0.384 26.88 26.88 0 0 1-3.456 0.256c-19.776 0-6.72-30.976-27.584-32.832-22.08-1.856-50.944-45.44-83.008-60.672-16.832-8-33.344-29.504-59.52-30.656h-1.408c-16.576 0-37.696 10.112-48.384 10.112-4.224 0-6.912-1.6-6.912-5.952 0-50.56-5.056-86.848-6.08-101.12-0.32-5.12-1.728-6.336-0.96-6.336 8.064 2.304 16.384 3.456 24.768 3.264h0.192c16.512 0 8.64-34.24 24.96-35.392h2.112c14.592 0 42.24 10.496 56.704 10.496a12.864 12.864 0 0 0 7.04-1.536 1.28 1.28 0 0 1 0.64 0c7.808 0 38.528 76.736 55.552 76.736 7.168 0 11.968-13.056 11.968-49.792 0-15.168-8-41.6 0-56.32a709.572 709.572 0 0 0 58.112-110.976c-0.896-1.984-10.176-3.84-22.272-3.84-11.52 0-23.04 1.664-34.048 5.056-8.32 2.752 2.496 15.744-9.024 18.56a103.936 103.936 0 0 1-22.336 2.432v-0.128zM139.52 439.36a43.264 43.264 0 0 0 24.064-6.72 42.88 42.88 0 0 1 23.552-7.232 38.246 38.246 0 0 1 20.224 5.76 22.4 22.4 0 0 1 12.288 20.224c0 72.512 2.496 149.888 68.352 151.04 25.024 10.24 44.416 30.72 53.12 56.192 1.664 4.48 6.144 7.232 10.88 6.592 10.112 0 25.792-6.592 42.304-6.592 12.352 0 0 20.992 0 66.24 0 45.312 97.408 114.368 97.408 114.368-0.64 23.68 0.384 47.296 2.944 70.784A397.888 397.888 0 0 1 113.792 512c0-25.472 2.368-50.88 7.168-75.84a52.864 52.864 0 0 0 18.56 3.2z" fill="#2c2c2c" p-id="14877"></path></svg>