<?xml version="1.0" standalone="no"?><!DOCTYPE svg PUBLIC "-//W3C//DTD SVG 1.1//EN" "http://www.w3.org/Graphics/SVG/1.1/DTD/svg11.dtd"><svg t="1705013967361" class="icon" viewBox="0 0 1024 1024" version="1.1" xmlns="http://www.w3.org/2000/svg" p-id="5851" xmlns:xlink="http://www.w3.org/1999/xlink" width="128" height="128"><path d="M193.422222 506.311111c85.333333 0 153.6-62.577778 167.822222-142.222222H995.555556v-56.888889H361.244444c-14.222222-79.644444-82.488889-142.222222-167.822222-142.222222-93.866667 0-170.666667 76.8-170.666666 170.666666s76.8 170.666667 170.666666 170.666667z m0-284.444444c62.577778 0 113.777778 51.2 113.777778 113.777777s-51.2 113.777778-113.777778 113.777778-113.777778-51.2-113.777778-113.777778 51.2-113.777778 113.777778-113.777777zM1001.244444 713.955556h-108.088888c-14.222222-79.644444-82.488889-142.222222-167.822223-142.222223-85.333333 0-153.6 62.577778-167.822222 142.222223H28.444444v56.888888h531.911112c14.222222 79.644444 82.488889 142.222222 167.822222 142.222223s153.6-62.577778 167.822222-142.222223h108.088889v-56.888888z m-275.911111 142.222222c-62.577778 0-113.777778-51.2-113.777777-113.777778s51.2-113.777778 113.777777-113.777778 113.777778 51.2 113.777778 113.777778-51.2 113.777778-113.777778 113.777778z" fill="#ffffff" p-id="5852"></path></svg>