<?xml version="1.0" standalone="no"?><!DOCTYPE svg PUBLIC "-//W3C//DTD SVG 1.1//EN" "http://www.w3.org/Graphics/SVG/1.1/DTD/svg11.dtd"><svg t="1723364432841" class="icon" viewBox="0 0 1024 1024" version="1.1" xmlns="http://www.w3.org/2000/svg" p-id="11257" xmlns:xlink="http://www.w3.org/1999/xlink" width="200" height="200"><path d="M864.256 256H512L456.704 145.92c-5.12-11.264-16.384-17.92-28.672-17.92H159.744c-17.92 0-31.744 14.336-31.744 31.744v704c0 17.408 14.336 31.744 31.744 31.744h704c17.408 0 31.744-14.336 31.744-31.744V287.744c0.512-17.408-13.824-31.744-31.232-31.744z m-32.256 576h-640v-640h216.576l46.08 92.672 17.92 35.328h359.424v512zM256 608.256h384v96.256l128-128-128-128v96.256H256v63.488z" p-id="11258" fill="#2c2c2c"></path></svg>