<?xml version="1.0" standalone="no"?><!DOCTYPE svg PUBLIC "-//W3C//DTD SVG 1.1//EN" "http://www.w3.org/Graphics/SVG/1.1/DTD/svg11.dtd"><svg t="1714113723124" class="icon" viewBox="0 0 1024 1024" version="1.1" xmlns="http://www.w3.org/2000/svg" p-id="14376" xmlns:xlink="http://www.w3.org/1999/xlink" width="128" height="128"><path d="M618.666667 234.666667h-298.666667V298.666667h298.666667V234.666667zM320 384h298.666667v64h-298.666667V384zM618.666667 533.333333h-298.666667V597.333333h298.666667v-64z" fill="#2c2c2c" p-id="14377"></path><path d="M682.666667 85.333333H256a85.333333 85.333333 0 0 0-85.333333 85.333334v512a85.333333 85.333333 0 0 0 85.333333 85.333333h426.666667a85.333333 85.333333 0 0 0 85.333333-85.333333V170.666667a85.333333 85.333333 0 0 0-85.333333-85.333334zM256 149.333333h426.666667a21.333333 21.333333 0 0 1 21.333333 21.333334v512a21.333333 21.333333 0 0 1-21.333333 21.333333H256a21.333333 21.333333 0 0 1-21.333333-21.333333V170.666667a21.333333 21.333333 0 0 1 21.333333-21.333334z" fill="#2c2c2c" p-id="14378"></path><path d="M853.333333 341.333333v469.333334c0 29.44-13.226667 42.666667-42.624 42.666666H256v64h554.709333c64.853333 0 106.624-41.898667 106.624-106.666666V341.333333H853.333333z" fill="#2c2c2c" p-id="14379"></path></svg>