<?xml version="1.0" standalone="no"?><!DOCTYPE svg PUBLIC "-//W3C//DTD SVG 1.1//EN" "http://www.w3.org/Graphics/SVG/1.1/DTD/svg11.dtd"><svg t="1759143460982" class="icon" viewBox="0 0 1024 1024" version="1.1" xmlns="http://www.w3.org/2000/svg" p-id="59577" width="64" height="64" xmlns:xlink="http://www.w3.org/1999/xlink"><path d="M918 565.333c33.653 0 44.5 45.28 14.499 60.527l-1.103 0.61-0.588 0.34-0.64 0.377-0.886 0.537a114.636 114.636 0 0 0-7.306 4.902c-8.148 5.908-16.276 13.183-23.793 21.827-21.089 24.253-33.551 54.476-33.551 92.214 0 38.391 12.889 68.99 34.597 93.402 7.631 8.582 15.816 15.741 23.924 21.481 0.786 0.557 1.552 1.086 2.296 1.588l1.098 0.732a95.82 95.82 0 0 0 4.026 2.516l0.287 0.168 0.775 0.445 0.642 0.356 0.923 0.483C962.296 883.379 951.432 928 918 928H192.368a32 32 0 0 1-14.543-3.495l-0.783-0.405-0.581-0.308-0.627-0.34-0.673-0.372-1.093-0.616-0.783-0.45-0.826-0.484c-3.67-2.161-7.67-4.738-11.92-7.747-11.902-8.426-23.725-18.767-34.768-31.185C94.124 847.008 75 801.608 75 746.667c0-54.942 19.124-100.343 50.771-135.932 11.043-12.417 22.866-22.758 34.767-31.185 4.25-3.009 8.251-5.586 11.921-7.747l1.223-0.712 0.761-0.435 0.718-0.403 0.673-0.372 0.923-0.498 0.82-0.427 0.485-0.247a32 32 0 0 1 14.306-3.376z m-81.329 64H201.114l-0.743 0.49-1.116 0.754c-0.377 0.257-0.76 0.522-1.148 0.794l-0.586 0.412c-8.107 5.74-16.292 12.9-23.924 21.482-21.708 24.41-34.597 55.01-34.597 93.402 0 38.391 12.89 68.99 34.597 93.402 7.632 8.582 15.817 15.741 23.924 21.481 1.18 0.836 2.314 1.609 3.394 2.32l0.198 0.129h635.55l-0.282-0.4c-22.303-31.913-35.43-70.391-35.744-115.287l-0.005-1.645c0-45.352 13.044-84.242 35.455-116.5l0.584-0.834zM832.631 96a32 32 0 0 1 14.544 3.495l0.783 0.405 0.581 0.308 0.627 0.34 0.673 0.372 1.093 0.616 0.783 0.45 0.826 0.484c3.67 2.161 7.67 4.738 11.92 7.747 11.902 8.426 23.725 18.767 34.768 31.185C930.876 176.992 950 222.392 950 277.333c0 54.942-19.124 100.343-50.771 135.932-11.043 12.417-22.866 22.758-34.767 31.185-4.25 3.009-8.251 5.586-11.921 7.747l-1.223 0.712-0.761 0.435-0.718 0.403-0.673 0.372-0.923 0.498-0.82 0.427-0.485 0.247a32 32 0 0 1-14.306 3.376H107c-33.77 0-44.513-45.527-14.306-60.624l0.029-0.022 0.413-0.227 0.731-0.415 1.03-0.605a108.674 108.674 0 0 0 6.95-4.557c8.108-5.74 16.293-12.9 23.924-21.482 21.708-24.41 34.597-55.01 34.597-93.402 0-38.391-12.889-68.99-34.597-93.402-7.631-8.582-15.816-15.741-23.924-21.481a124.258 124.258 0 0 0-2.296-1.588l-1.098-0.732a95.82 95.82 0 0 0-4.026-2.516l-0.287-0.168-0.775-0.445-0.642-0.356-0.923-0.483c-28.802-15.384-18.448-59.264 14.194-60.148L107 96z m-8.745 64h-635.55l0.283 0.402c22.303 31.912 35.43 70.39 35.744 115.286l0.005 1.645c0 45.602-13.174 84.63-35.749 116.932l-0.283 0.401h635.549l0.744-0.49 1.116-0.753c0.377-0.257 0.76-0.522 1.148-0.794l0.586-0.412c8.107-5.74 16.292-12.9 23.924-21.482 21.708-24.41 34.597-55.01 34.597-93.402 0-38.391-12.89-68.99-34.597-93.402-7.632-8.582-15.817-15.741-23.924-21.481a120.992 120.992 0 0 0-3.394-2.32l-0.199-0.13z" p-id="59578" fill="#ffffff"></path></svg>