<?xml version="1.0" standalone="no"?><!DOCTYPE svg PUBLIC "-//W3C//DTD SVG 1.1//EN" "http://www.w3.org/Graphics/SVG/1.1/DTD/svg11.dtd"><svg t="1759141094589" class="icon" viewBox="0 0 1024 1024" version="1.1" xmlns="http://www.w3.org/2000/svg" p-id="29600" width="64" height="64" xmlns:xlink="http://www.w3.org/1999/xlink"><path d="M499.587879 828.509091H254.448485c-24.824242 0-44.993939-20.169697-44.99394-44.993939v-543.030304c0-24.824242 20.169697-44.993939 44.99394-44.993939h467.00606c24.824242 0 44.993939 20.169697 44.99394 44.993939v169.115152c0 21.721212 17.066667 38.787879 38.787879 38.787879s38.787879-17.066667 38.787878-38.787879v-170.666667c0-68.266667-54.30303-122.569697-122.569697-122.569697H254.448485c-66.715152 0-122.569697 55.854545-122.569697 122.569697v543.030303c0 68.266667 54.30303 122.569697 122.569697 122.569697h245.139394c21.721212 0 38.787879-17.066667 38.787879-38.787878s-17.066667-37.236364-38.787879-37.236364z" p-id="29601" fill="#ffffff"></path><path d="M844.024242 664.048485h-88.436363v-88.436364c0-21.721212-17.066667-38.787879-38.787879-38.787879s-38.787879 17.066667-38.787879 38.787879v88.436364H589.575758c-21.721212 0-38.787879 17.066667-38.787879 38.787879s17.066667 38.787879 38.787879 38.787878h88.436363v88.436364c0 21.721212 17.066667 38.787879 38.787879 38.787879s38.787879-17.066667 38.787879-38.787879v-88.436364h88.436363c21.721212 0 38.787879-17.066667 38.787879-38.787878s-17.066667-38.787879-38.787879-38.787879z" p-id="29602" fill="#ffffff"></path></svg>