<?xml version="1.0" standalone="no"?><!DOCTYPE svg PUBLIC "-//W3C//DTD SVG 1.1//EN" "http://www.w3.org/Graphics/SVG/1.1/DTD/svg11.dtd"><svg t="1759100884214" class="icon" viewBox="0 0 1024 1024" version="1.1" xmlns="http://www.w3.org/2000/svg" p-id="2388" width="64" height="64" xmlns:xlink="http://www.w3.org/1999/xlink"><path d="M928 240.8v574.5c0 97.6-77.9 176.8-173.9 176.8H297.7c-96.1 0-173.9-79.1-173.9-176.8V240.8c0-97.6 77.9-176.8 173.9-176.8h456.4c96 0 173.9 79.1 173.9 176.8zM763.7 127h-475c-54.3 0-99.1 43.1-101.7 98l-0.1 4.8v594.1c0 54.9 42.7 100.2 97 102.7l4.8 0.1h475c54.3 0 99.1-43.1 101.7-98l0.1-4.9v-594c0-54.9-42.7-100.1-97-102.7l-4.8-0.1z" fill="#ffffff" p-id="2389"></path><path d="M221.6 334.7c20.4 0 37.2 14 38 31.8 0.9 17.8-14.5 33-34.9 34.4l-3.1 0.1H102c-20.4 0-37.1-14-38-31.8-0.8-17.8 14.5-33 34.9-34.4l3.1-0.1h119.6zM221.6 644c20.4 0 37.2 14 38 31.8 0.9 17.8-14.5 32.9-34.9 34.4l-3.1 0.1H102c-20.4 0-37.1-14-38-31.8-0.8-17.7 14.5-32.9 34.9-34.4l3.1-0.1h119.6zM548 327.3c20.3 0 37.3 18.1 38.9 41.7l0.2 3.8v311.8c0 24.4-16.6 44.4-37.5 45.4s-38.8-17.4-40.5-41.7l-0.2-3.8V372.8c0-25.1 17.5-45.5 39.1-45.5z" fill="#ffffff" p-id="2390"></path><path d="M346.6 528.7c0-20.3 18.1-37.3 41.7-38.9l3.8-0.2h311.8c24.4 0 44.4 16.6 45.4 37.5s-17.4 38.8-41.7 40.5l-3.8 0.2H392c-25.1 0-45.4-17.5-45.4-39.1z" fill="#ffffff" p-id="2391"></path></svg>