<?xml version="1.0" standalone="no"?><!DOCTYPE svg PUBLIC "-//W3C//DTD SVG 1.1//EN" "http://www.w3.org/Graphics/SVG/1.1/DTD/svg11.dtd"><svg t="1704585775671" class="icon" viewBox="0 0 1024 1024" version="1.1" xmlns="http://www.w3.org/2000/svg" p-id="3481" xmlns:xlink="http://www.w3.org/1999/xlink" width="128" height="128"><path d="M706.2 188.7H189.8c-29.8 0-54 24.2-54 54V693c0 2 0.1 3.9 0.3 5.9-0.4 9.9 3.2 19.8 10.5 27l2 2c0.9 1.1 1.9 2.2 3 3.2l212.8 212.6s0.1 0.1 0.2 0.1l5.1 5.1c6.9 6.9 16.1 10.5 25.5 10.5 1.1 0 2.3-0.1 3.4-0.2 1.3 0.1 2.7 0.2 4 0.2h303.5c29.8 0 54-24.2 54-54V242.7c0.1-29.8-24.2-54-53.9-54zM259 736.4h100.2v100.2L259 736.4z m429.2 151.2h-257V700.4c0-19.9-16.1-36-36-36H207.8V260.7h480.3v626.9zM819.4 657.5h72v141.8h-72zM819.4 471.8h72v141.8h-72zM819.4 286.1h72v141.8h-72zM819.4 100.4h72v141.8h-72zM642 64.4h131v72H642zM469.9 64.4h128.8v72H469.9zM297.1 64.4H425v72H297.1z" p-id="3482" fill="#ffffff"></path></svg>