<?xml version="1.0" standalone="no"?><!DOCTYPE svg PUBLIC "-//W3C//DTD SVG 1.1//EN" "http://www.w3.org/Graphics/SVG/1.1/DTD/svg11.dtd"><svg t="1759135213014" class="icon" viewBox="0 0 1024 1024" version="1.1" xmlns="http://www.w3.org/2000/svg" p-id="22044" width="64" height="64" xmlns:xlink="http://www.w3.org/1999/xlink"><path d="M838.6 174.16H420.47l-45.64-30.49q-0.93-0.62-1.9-1.17c-57.11-32.29-125-31.82-181.7 1.24s-90.5 92-90.5 157.57V764a90.1 90.1 0 0 0 90 90H838.6a90.1 90.1 0 0 0 90-90V264.16a90.1 90.1 0 0 0-90-90z m30 589.84a30 30 0 0 1-30 30H190.73a30 30 0 0 1-30-30V301.3a122.17 122.17 0 0 1 181.75-107.09l217.32 145.2a89.71 89.71 0 0 0 50 15.17h258.8z m0-469.47H609.8a29.9 29.9 0 0 1-16.67-5.05l-82.86-55.36H838.6a30 30 0 0 1 30 30z" p-id="22045" fill="#2c2c2c"></path><path d="M550.21 409.08a49.88 49.88 0 0 0-89.45 0l-27.15 55-60.71 8.82a49.88 49.88 0 0 0-27.65 85.1l43.93 42.82-10.37 60.47a49.88 49.88 0 0 0 72.37 52.58l54.3-28.55 54.3 28.55a49.88 49.88 0 0 0 72.37-52.58l-10.37-60.47L665.72 558a49.88 49.88 0 0 0-27.64-85.08l-60.71-8.82z m36.63 156a49.87 49.87 0 0 0-14.34 44.15l10.34 60.29L528.69 641a49.87 49.87 0 0 0-46.42 0l-54.14 28.5 10.34-60.29a49.87 49.87 0 0 0-14.34-44.15l-43.8-42.7 60.53-8.79a49.87 49.87 0 0 0 37.55-27.29l27.07-54.85 27.07 54.85a49.87 49.87 0 0 0 37.56 27.29l60.53 8.79z" p-id="22046" fill="#2c2c2c"></path></svg>