<?xml version="1.0" standalone="no"?><!DOCTYPE svg PUBLIC "-//W3C//DTD SVG 1.1//EN" "http://www.w3.org/Graphics/SVG/1.1/DTD/svg11.dtd"><svg t="1765358752776" class="icon" viewBox="0 0 1024 1024" version="1.1" xmlns="http://www.w3.org/2000/svg" p-id="5619" width="64" height="64" xmlns:xlink="http://www.w3.org/1999/xlink"><path d="M615.424 990.72H234.496c-107.008 0-189.44-82.432-189.44-189.44v-583.68c0-101.888 87.552-189.44 189.44-189.44h486.4c107.008 0 189.44 82.432 189.44 189.44V655.36h-87.552V217.6c0-58.368-43.52-101.888-101.888-101.888h-486.4c-58.368 0-101.888 43.52-101.888 101.888v583.68c0 58.368 43.52 101.888 101.888 101.888h380.928v87.552z" p-id="5620" fill="#2c2c2c"></path><path d="M283.136 485.376c0 14.336 9.728 24.064 24.064 24.064h243.2c14.336 0 24.064-9.728 24.064-24.064s-9.728-24.064-24.064-24.064H307.2c-14.336-0.512-24.064 9.216-24.064 24.064z m0-145.92c0 14.336 9.728 24.064 24.064 24.064h340.48c14.336 0 24.064-9.728 24.064-24.064 0-14.336-9.728-24.064-24.064-24.064H307.2c-14.336-0.512-24.064 9.216-24.064 24.064z m0 291.84c0 14.336 9.728 24.064 24.064 24.064h97.28c14.336 0 24.064-9.728 24.064-24.064 0-14.336-9.728-24.064-24.064-24.064H307.2c-14.336-0.512-24.064 9.216-24.064 24.064z m642.56 156.16l-50.688-50.688-171.52 171.52 50.688 50.688 171.52-171.52zM742.4 969.728l-48.64-48.64-21.504 67.584 70.144-18.944z m233.472-263.168l-19.968-19.968c-8.192-8.192-22.016-8.192-30.208 0l-40.448 40.448 50.688 50.688 40.448-40.448c7.68-8.192 7.68-22.528-0.512-30.72z" p-id="5621" fill="#2c2c2c"></path></svg>