<?xml version="1.0" standalone="no"?><!DOCTYPE svg PUBLIC "-//W3C//DTD SVG 1.1//EN" "http://www.w3.org/Graphics/SVG/1.1/DTD/svg11.dtd"><svg t="1716719539279" class="icon" viewBox="0 0 1024 1024" version="1.1" xmlns="http://www.w3.org/2000/svg" p-id="140172" xmlns:xlink="http://www.w3.org/1999/xlink" width="32" height="32"><path d="M225.664 576l-160 0L65.664 192l512 0 0 384-96 0c-17.664 0-32 14.336-32 32S464 640 481.664 640l96 0c35.392 0 64-28.608 64-64L641.664 192c0-35.392-28.608-64-64-64l-512 0c-35.392 0-64 28.608-64 64l0 384c0 35.392 28.608 64 64 64l160 0c17.664 0 32-14.336 32-32S243.392 576 225.664 576zM897.664 384l-160 0c-17.664 0-32 14.336-32 32S720 448 737.664 448l160 0 0 384-512 0L385.664 448l96 0c17.664 0 32-14.336 32-32S499.392 384 481.664 384l-96 0c-35.392 0-64 28.608-64 64l0 384c0 35.392 28.608 64 64 64l512 0c35.392 0 64-28.608 64-64L961.664 448C961.664 412.608 933.056 384 897.664 384z" p-id="140173" fill="#ffffff"></path></svg>