<?xml version="1.0" standalone="no"?><!DOCTYPE svg PUBLIC "-//W3C//DTD SVG 1.1//EN" "http://www.w3.org/Graphics/SVG/1.1/DTD/svg11.dtd"><svg t="1764061466814" class="icon" viewBox="0 0 1024 1024" version="1.1" xmlns="http://www.w3.org/2000/svg" p-id="14739" width="64" height="64" xmlns:xlink="http://www.w3.org/1999/xlink"><path d="M884.48 727.62H139.24a85.34 85.34 0 0 1-85.04-79.4 30.2 30.2 0 0 1-0.2-3.58v-28.86a32 32 0 0 1 64 0v26.62a21.24 21.24 0 0 0 21.24 21.22h745.24a21.26 21.26 0 0 0 21.24-21.22V203.24A21.26 21.26 0 0 0 884.48 182H139.24A21.26 21.26 0 0 0 118 203.24V469.4a32 32 0 0 1-64 0V203.24A85.34 85.34 0 0 1 139.24 118h745.24a85.34 85.34 0 0 1 85.24 85.24V642.4a85.32 85.32 0 0 1-85.24 85.22zM711.48 927.26h-386a32 32 0 1 1 0-64h386a32 32 0 0 1 0 64z" p-id="14740" fill="#2c2c2c"></path><path d="M405.36 927.26a32 32 0 0 1-28.2-47.06l106.46-199.62a32 32 0 0 1 56.48 30l-106.48 199.62a32 32 0 0 1-28.26 17.06z" p-id="14741" fill="#2c2c2c"></path><path d="M631.66 927.26a32 32 0 0 1-28.26-16.96l-106.48-199.62a32 32 0 0 1 56.48-30l106.46 199.62a32 32 0 0 1-28.2 47.06zM272.34 541.32a32 32 0 0 1-18.96-57.8l199.62-146.4a32 32 0 0 1 45.56 8l62 93.14 173-115.32a32 32 0 0 1 35.5 53.24l-199.62 133.08a32 32 0 0 1-44.38-8.86l-61.28-92-172.64 126.6a32 32 0 0 1-18.8 6.32z" p-id="14742" fill="#2c2c2c"></path></svg>