<?xml version="1.0" standalone="no"?><!DOCTYPE svg PUBLIC "-//W3C//DTD SVG 1.1//EN" "http://www.w3.org/Graphics/SVG/1.1/DTD/svg11.dtd"><svg t="1762075728699" class="icon" viewBox="0 0 1024 1024" version="1.1" xmlns="http://www.w3.org/2000/svg" p-id="5156" width="64" height="64" xmlns:xlink="http://www.w3.org/1999/xlink"><path d="M170.666667 640V362.666667a192 192 0 0 1 384 0v298.666666a106.666667 106.666667 0 1 0 213.333333 0V376.746667a128.042667 128.042667 0 1 1 85.333333 0v284.586666a192 192 0 1 1-384 0v-298.666666a106.666667 106.666667 0 0 0-213.333333 0V640h128l-170.666667 213.333333-170.666666-213.333333h128z m640-341.333333a42.666667 42.666667 0 1 0 0-85.333334 42.666667 42.666667 0 0 0 0 85.333334z" p-id="5157" fill="#ffffff"></path></svg>