<?xml version="1.0" standalone="no"?><!DOCTYPE svg PUBLIC "-//W3C//DTD SVG 1.1//EN" "http://www.w3.org/Graphics/SVG/1.1/DTD/svg11.dtd"><svg t="1717402427315" class="icon" viewBox="0 0 1024 1024" version="1.1" xmlns="http://www.w3.org/2000/svg" p-id="8815" xmlns:xlink="http://www.w3.org/1999/xlink" width="64" height="64"><path d="M924.8 337.6a449.344 449.344 0 1 0-828.288 348.8 449.344 449.344 0 0 0 828.288-348.8z m-149.76 437.376A371.968 371.968 0 1 1 883.968 512a369.536 369.536 0 0 1-109.056 263.04z m-64.768-302.08l-233.28-178.56a48 48 0 0 0-77.184 38.08v357.184a48 48 0 0 0 77.184 38.144l233.28-178.624a48 48 0 0 0 0-76.224z" fill="#ffffff" p-id="8816"></path></svg>