<?xml version="1.0" standalone="no"?><!DOCTYPE svg PUBLIC "-//W3C//DTD SVG 1.1//EN" "http://www.w3.org/Graphics/SVG/1.1/DTD/svg11.dtd"><svg t="1713355905597" class="icon" viewBox="0 0 1024 1024" version="1.1" xmlns="http://www.w3.org/2000/svg" p-id="19456" xmlns:xlink="http://www.w3.org/1999/xlink" width="128" height="128"><path d="M682.745116 243.350034c-40.362216-15.062285-103.08251-24.711561-172.157205-26.476672-68.250977-1.765111-131.324293 4.471616-173.098598 16.945071-48.364054 14.473914-87.314181 48.011032-106.848081 92.138818-18.239485 41.303608-17.533441 86.490462 2.00046 127.323374 8.472535 17.533441 22.005056 35.537578 36.243622 54.600782 29.065502 38.597104 61.896575 82.371869 60.366812 132.501034-1.059067 34.949207-8.237187 70.369111-15.179959 104.612273-14.94461 73.899333-30.359917 150.152149 17.180419 218.285451 23.770168 33.89014 59.543094 53.777063 100.729027 55.895197 2.471156 0.117674 4.942312 0.235348 7.413469 0.235348 57.895656 0 120.02758-33.772466 171.686508-93.668582 82.607217-95.786716 137.56102-187.337164 168.156286-280.064353 26.241324-79.54769 29.418524-145.092163 31.889681-197.692484 0.235348-5.413009 0.470696-10.590669 0.823719-15.768329 2.471156-46.363595-7.413468-85.784417-29.300851-117.321076-21.769708-31.183636-54.365433-54.483107-99.905309-71.545852z" fill="#1296db" p-id="19457"></path><path d="M263.236957 96.257412m-91.432774 0a91.432774 91.432774 0 1 0 182.865548 0 91.432774 91.432774 0 1 0-182.865548 0Z" fill="#1296db" p-id="19458"></path><path d="M486.817743 92.491841m-68.250977 0a68.250977 68.250977 0 1 0 136.501954 0 68.250977 68.250977 0 1 0-136.501954 0Z" fill="#1296db" p-id="19459"></path><path d="M631.761952 124.969142a52.247299 52.247299 0 1 0 103.146614-16.730125 52.247299 52.247299 0 1 0-103.146614 16.730125Z" fill="#1296db" p-id="19460"></path><path d="M809.715468 207.577109m-43.539417 0a43.539416 43.539416 0 1 0 87.078833 0 43.539416 43.539416 0 1 0-87.078833 0Z" fill="#1296db" p-id="19461"></path></svg>