<?xml version="1.0" standalone="no"?><!DOCTYPE svg PUBLIC "-//W3C//DTD SVG 1.1//EN" "http://www.w3.org/Graphics/SVG/1.1/DTD/svg11.dtd"><svg t="1704589914984" class="icon" viewBox="0 0 1024 1024" version="1.1" xmlns="http://www.w3.org/2000/svg" p-id="3318" xmlns:xlink="http://www.w3.org/1999/xlink" width="128" height="128"><path d="M162.91703467 326.24366933a28.36616533 28.36616533 0 0 0 20.96715093 8.43229867h1.425408a29.5600128 29.5600128 0 0 0 20.42647893-8.43229867l147.23754667-147.95844266a28.3246592 28.3246592 0 0 0 8.08277333-20.15341227 27.9904256 27.9904256 0 0 0-8.41045333-20.0441856c-10.93905067-10.48576-28.1706496-10.48576-39.10970027 0L184.76346027 267.5376128l-59.20303787-59.3559552a28.13023573 28.13023573 0 0 0-19.98411093-8.43229867 27.79818667 27.79818667 0 0 0-19.98957227 8.43229867 29.0357248 29.0357248 0 0 0-8.51968 20.0441856 27.95656533 27.95656533 0 0 0 8.41045333 20.03872427l77.43952214 77.97910186z m151.38816 92.10320214L185.3095936 547.80122453l-59.20303787-59.36141653a28.114944 28.114944 0 0 0-19.98957226-8.86920533 27.0630912 27.0630912 0 0 0-19.98411094 8.43229866 29.0717696 29.0717696 0 0 0-8.41591466 20.0441856 27.99588693 27.99588693 0 0 0 8.41591466 20.0441856l77.33029547 77.53782614a29.13293653 29.13293653 0 0 0 21.8464256 8.43229866h0.98850133c7.67863467 0 15.05798827-3.03104 20.53024427-8.43229866l147.12832-147.08462934a29.08050773 29.08050773 0 0 0 8.41045333-20.0441856 27.96858027 27.96858027 0 0 0-8.41045333-20.03872426c-11.20228693-10.32192-28.39565653-10.371072-39.65146453-0.114688z m-0.54613334 280.264704L184.6542336 828.06592853l-59.0938112-59.36141653a28.10729813 28.10729813 0 0 0-19.98411093-8.43229867 27.79818667 27.79818667 0 0 0-19.98957227 8.43229867 29.03463253 29.03463253 0 0 0-8.51968 20.15341227 27.97950293 27.97950293 0 0 0 8.41045333 20.0441856l77.33029547 77.5323648a29.97507413 29.97507413 0 0 0 20.97261227 8.43229866h2.51767466a27.000832 27.000832 0 0 0 19.98411094-8.43229866l147.01909333-147.63076267a29.03790933 29.03790933 0 0 0 8.404992-20.03872427 27.94236587 27.94236587 0 0 0-8.404992-20.15341226c-11.3770496-9.78234027-28.16628053-9.78234027-39.54223787 0zM952.18346667 196.33493333c0 27.74903467-22.495232 50.24426667-50.24426667 50.24426667H510.90773333c-27.74903467 0-50.24426667-22.495232-50.24426666-50.24426667s22.495232-50.24426667 50.24426666-50.24426666h391.03146667c27.74903467 0 50.24426667 22.495232 50.24426667 50.24426666zM954.368 504.35413333c0 27.74903467-22.495232 50.24426667-50.24426667 50.24426667H513.09226667c-27.74903467 0-50.24426667-22.495232-50.24426667-50.24426667s22.495232-50.24426667 50.24426667-50.24426666h391.03146666c27.74903467 0 50.24426667 22.495232 50.24426667 50.24426666zM949.99893333 812.37333333c0 27.74903467-22.495232 50.24426667-50.24426666 50.24426667H508.7232c-27.74903467 0-50.24426667-22.495232-50.24426667-50.24426667s22.495232-50.24426667 50.24426667-50.24426666h391.03146667c27.74903467 0 50.24426667 22.495232 50.24426666 50.24426666z" fill="#ffffff" p-id="3319"></path></svg>