<?xml version="1.0" standalone="no"?><!DOCTYPE svg PUBLIC "-//W3C//DTD SVG 1.1//EN" "http://www.w3.org/Graphics/SVG/1.1/DTD/svg11.dtd"><svg t="1759833545073" class="icon" viewBox="0 0 1024 1024" version="1.1" xmlns="http://www.w3.org/2000/svg" p-id="6745" width="64" height="64" xmlns:xlink="http://www.w3.org/1999/xlink"><path d="M583.168 1018.88H440.832c-30.72 0-55.808-25.088-56.32-56.32v-66.048c0-3.072-4.096-9.728-7.168-11.264l-1.536-0.512-118.784-68.096-1.536-1.024c-2.56-2.048-10.24-2.56-12.8-1.024l-56.832 32.768c-26.624 15.36-60.928 6.144-76.8-20.48l-71.68-123.392c-15.36-26.624-6.144-60.928 20.48-76.8l57.344-33.28c2.048-1.536 5.12-7.168 4.608-9.728-0.512-1.536-6.656-36.352-6.656-70.656 0-35.328 7.168-72.192 7.68-73.728 0.512-2.56-2.048-8.192-4.096-9.728l-58.368-33.792c-26.624-15.36-35.84-49.664-20.48-76.8l71.168-123.392c15.36-26.624 49.664-35.84 76.8-20.48l59.392 34.304c3.072 1.536 10.752 1.024 13.312-1.024l1.536-1.024 116.224-66.048 1.536-0.512c3.072-1.024 7.168-7.68 7.168-10.752V61.44c0-30.72 25.088-55.808 56.32-56.32h142.848c30.72 0 55.808 25.088 56.32 56.32v70.144c0 3.072 4.096 9.728 7.168 11.264l1.536 0.512L762.88 209.408l1.536 1.024c2.56 2.048 10.24 2.56 12.8 1.024l61.44-35.328c26.624-15.36 60.928-6.144 76.8 20.48l71.168 123.392c15.36 26.624 6.144 60.928-20.48 76.8l-60.928 35.328c-2.048 1.024-4.608 7.168-4.608 9.728 0.512 1.536 7.168 37.376 7.168 72.192 0 33.28-6.144 67.584-6.656 68.608-0.512 2.56 2.048 8.704 4.608 9.728l59.904 34.816c26.624 15.36 35.84 49.664 20.48 76.8l-71.168 123.392c-15.36 26.624-49.664 35.84-76.8 20.48l-58.88-33.792c-2.56-1.536-10.24-1.024-12.8 1.024l-1.536 1.024-116.736 68.096-1.536 0.512c-3.072 1.536-7.168 7.68-7.168 11.264v66.56c0 31.232-25.088 56.32-56.32 56.32z m-140.8-57.856h139.264V896c0-25.6 17.408-52.736 40.448-63.488l111.104-65.024c20.992-14.848 53.248-16.896 75.264-4.096l57.344 33.28 69.632-120.32-58.368-33.792c-23.552-13.824-37.376-44.032-32.256-70.656 0-0.512 5.632-30.208 5.632-57.856 0-29.184-6.144-60.928-6.144-60.928-5.12-26.624 8.704-57.344 32.256-70.656l59.392-34.304-69.632-120.32-59.904 34.304c-22.528 12.8-54.272 11.264-75.264-3.584l-108.544-62.976c-23.552-10.752-40.448-37.888-40.448-63.488V62.976H442.368v67.584c0 25.6-17.408 52.736-40.96 63.488L290.816 257.024c-20.992 14.848-53.248 16.384-75.264 3.584l-57.856-33.28-69.12 120.32 56.32 32.768c23.552 13.824 37.376 44.032 32.256 70.656 0 0.512-6.656 33.28-6.656 62.464 0 28.672 5.632 59.392 5.632 59.392 5.12 26.624-8.704 57.344-32.256 70.656L88.064 675.84l69.632 120.32 55.296-31.744c22.528-12.8 54.272-11.264 75.264 3.584l113.152 65.024c23.552 10.752 40.96 37.888 40.96 63.488v64.512z" fill="#ffffff" p-id="6746"></path><path d="M512 732.672c-121.856 0-220.672-98.816-220.672-220.672S390.144 291.328 512 291.328s220.672 98.816 220.672 220.672c0 58.368-23.04 114.688-64.512 156.16-41.472 41.472-97.792 64.512-156.16 64.512z m0-376.832c-86.016 0-156.16 70.144-156.16 156.16s70.144 156.16 156.16 156.16 156.16-70.144 156.16-156.16-70.144-156.16-156.16-156.16z" fill="#ffffff" p-id="6747"></path></svg>