<?xml version="1.0" standalone="no"?><!DOCTYPE svg PUBLIC "-//W3C//DTD SVG 1.1//EN" "http://www.w3.org/Graphics/SVG/1.1/DTD/svg11.dtd"><svg t="1759800148641" class="icon" viewBox="0 0 1027 1024" version="1.1" xmlns="http://www.w3.org/2000/svg" p-id="2848" width="64.1875" height="64" xmlns:xlink="http://www.w3.org/1999/xlink"><path d="M-231.218482 336.203719" p-id="2849" fill="#ffffff"></path><path d="M347.203978 216.139364c-6.326354 0-18.592084-4.456236-32.080124-10.385382-18.624474-8.189654-43.288903-20.225241-49.603324-23.413137-11.590645-5.852432-18.602312-9.294337-25.591817-12.722604-9.515955-4.66933-19.045549-9.34548-28.00064-13.864792-8.065207 7.746417-19.932023 19.441053-31.439134 30.948165-14.343828 14.343828-27.492622 14.072772-27.492622 19.555272 0 2.611688 11.614512 25.145171 21.295829 43.931596 6.111555 11.858292 11.583826 22.475521 14.164828 28.853018 4.32156 10.680305 10.218315 22.013532 16.000853 33.130254v0.093762l2.52986 4.872196c15.755367 30.421395 14.795589 32.1432 4.057322 51.371158-1.51212 2.708859-3.528848 6.317831-5.710937 11.633264-1.614405 3.929466-2.758297 6.755953-3.668638 9.180118-1.149006 3.061744-2.188908 6.021203-3.465771 9.868841-9.144318 27.57104-15.963348 29.799158-51.522881 41.408555-6.866763 2.241756-15.105855 4.931863-22.920463 7.664589-11.077513 3.871504-18.919397 6.42523-27.013585 9.059081-7.188962 2.340632-14.625113 4.763092-17.94939 5.879708l-30.678813 9.923392v78.952427l86.559054 30.022482 0.027276-0.080124c5.417719 1.78829 8.322625 2.70204 10.975228 3.533962 24.758191 7.770284 39.826541 12.50269 48.479889 33.421768 2.061052 4.986415 5.064834 12.056044 7.673113 18.199989 8.203292 19.316605 12.379948 29.15135 13.053327 40.35672 0.831922 13.847744-3.19301 21.548133-11.38437 37.221672-0.848969 1.626339-1.772948 3.389058-4.955729 9.691546-2.939002 5.818337-5.064834 10.709286-7.217943 15.673538-2.843535 6.546268-5.738213 13.211869-8.8153 19.318311-6.091098 12.085025-12.112301 23.333014-17.020297 32.497789-7.877684 14.712056-11.834425 22.107293-11.795216 22.927281 0.122743 2.477012 3.329391 0.700655 10.264344 7.083267 5.656385 5.208034 12.565766 11.566779 19.548452 18.549465 1.629748 1.629748 6.084279 6.319535 10.767247 11.246284 5.632518 5.929146 11.786692 12.405519 17.272602 17.652762 18.871664-9.382984 51.695062-25.472484 78.921741-38.517287 25.977092-12.446433 48.304299-22.230036 53.901017-22.230036 9.824517 0 20.716211 5.785946 29.216132 10.303553 2.719088 1.443929 3.915828 2.156518 4.541473 2.449737 3.532257 1.660434 7.032124 3.138458 10.635981 4.541473h0.093762c3.094135 1.206968 6.946886 2.572479 11.294017 4.070961 2.49747 0.860902 3.489638 1.174578 4.319855 1.435405 18.788131 5.915508 20.131479 6.341697 28.24442 29.800863 1.184806 3.421448 2.66965 7.396942 4.195408 11.478132 2.044004 5.472271 4.139151 11.079218 5.697299 15.66331 2.183794 6.413297 4.928453 14.884236 7.628789 23.21709 2.891268 8.926109 5.741623 17.719248 9.226147 27.68185 1.367215 3.912418 3.750466 10.11603 6.084278 16.202014l-0.081828 0.030685c2.611688 6.801982 5.175643 13.484631 7.492409 20.365031h80.952107l39.323637-117.297533 0.56257-1.409834c8.755634-21.387886 25.416227-26.667519 42.173992-31.977839 3.447019-1.092749 6.907677-2.192318 8.8869-2.988439 4.798892-1.9349 8.109531-3.704438 10.779181-5.13132 10.453572-5.58649 16.490118-8.810186 30.535613-6.454211 11.686112 1.962176 26.009483 9.122157 59.874487 26.053806l0.21139 0.105695c8.147035 4.072665 21.302648 10.211496 34.470193 16.352033 10.767247 5.022215 21.543018 10.049545 32.555751 15.514996l56.297907-55.32108c-5.225081-11.282084-13.632944-28.056896-22.27436-45.297107-17.860743-35.636247-36.607959-73.040328-36.607959-85.566885 0-15.180864 8.039636-33.912738 14.933675-49.974962 1.208673-2.819669 2.361089-5.496138 4.110169-9.819402 10.482553-25.902083 27.867668-30.793032 48.914603-36.703426 3.730009-1.046721 7.637313-2.146289 10.516648-3.107772l0.008524 0.025571 88.756486-30.808374v-78.422248c-5.571147-1.912738-11.012732-3.984018-16.491823-6.07064-6.745725-2.567365-13.557935-5.162005-17.603324-6.507059l-0.027276 0.085238-6.527516-2.161633c-14.867189-4.91993-29.746311-9.843269-47.179159-16.594108-6.305897-2.441213-12.92888-4.326674-18.632998-5.949603-18.602312-5.293272-30.866336-8.786319-40.331149-27.172127-0.860902-1.670662-4.91652-11.438922-9.338661-22.264131-6.559906-16.05029-13.94321-36.688083-13.94321-39.040648 0-6.065527 9.62165-28.643333 21.914655-54.833519 12.78909-27.247137 28.641628-60.024506 38.215546-79.480902l-55.806937-56.848543c-15.129721 7.477066-37.173939 18.273294-59.806297 29.009856-33.58031 15.929253-66.587822 30.307176-76.3629 30.307176h-4.243141l-55.317671-20.963401-1.897395-1.116616c-17.124287-10.059773-25.390656-36.396569-30.815193-53.681104-0.415961-1.329711-0.80976-2.574184-1.808748-5.593309v-0.093761L553.76431 48.899259h-81.700495l-37.946194 110.279048-1.097864 3.273134h-0.093761c-4.331788 13.070375-6.962229 21.009429-20.963401 30.293538-4.026637 2.664536-20.341165 9.850088-34.545203 15.187683-12.040701 4.522721-24.118907 8.206702-30.213414 8.206702z m-12.724309-54.361302c8.11635 3.568057 11.609397 6.24964 12.724309 6.24964l13.298812-5.011986c11.505407-4.323265 23.280166-9.188642 24.961057-10.301849 0.288104-0.190933 0.927388-2.11049 1.974109-5.27111l-0.085238-0.027276 1.285387-3.835704L437.772621 0.787598h150.734644l39.067924 118.9699 0.027276-0.008524 1.99968 6.346812c2.933887 9.352299 7.263971 23.14549 8.81871 26.074264l39.809493 15.088807c7.049172-2.867402 29.500826-13.377231 53.665761-24.840019 29.188855-13.846039 62.557775-30.440147 74.465506-36.379522l15.574663-7.768579 104.590272 106.542219-8.176016 15.460444c-4.345426 8.21693-27.881306 56.367801-45.159022 93.175218-9.65745 20.574716-17.216344 32.944436-17.216345 34.536678 0 1.873528 5.393852 9.272175 10.185926 20.997497 3.721485 9.108518 7.078152 17.219754 7.644131 18.319322 0.092057 0.177295 4.246551 1.055245 10.82521 2.927068 6.143945 1.747376 13.281764 3.779447 22.768739 7.453199 14.028448 5.433062 29.483778 10.547334 44.92547 15.656492l6.527516 2.161632v0.093762c8.656758 2.874221 14.200629 4.986415 19.696766 7.078152 9.882478 3.760695 19.623462 7.471951 28.895637 9.631879l18.605721 4.336903v149.445847l-121.465665 42.163763-0.187523 0.093762c-5.134729 1.716691-9.033509 2.811145-12.773747 3.861275-8.585158 2.410527-15.676948 4.403388-17.339087 8.513559-0.797826 1.974109-2.611688 6.195088-4.488626 10.569495-5.071653 11.815673-10.985456 25.595227-10.985456 31.181717 0 1.599062 16.0537 33.628043 31.347078 64.141494 14.144372 28.218848 27.719354 55.302328 30.769165 66.226414l3.79138 13.578392-102.686058 100.901177-15.465559-8.182835c-13.938096-7.37478-30.046348-14.889351-46.135847-22.393693-10.39561-4.84833-20.796335-9.701774-35.598743-17.102125l-0.21139-0.105695c-29.127484-14.563742-41.44606-20.721325-46.342124-21.543019-1.892281-0.317085 1.167759 0.70577-0.088647 1.377444-3.903894 2.086623-8.741996 4.67274-15.477492 7.388419-4.804006 1.9349-8.544244 3.123115-12.272548 4.304512-5.65468 1.7917-11.27697 3.574876-12.168558 4.07096l-49.908476 148.867935h-152.507591l-4.335198-18.605722c-2.766821-11.882159-6.715039-22.165255-10.796228-32.799531h-0.093762c-1.856481-4.843216-3.741942-9.744393-6.459325-17.518086-3.612381-10.32742-6.585478-19.500719-9.601194-28.810399-2.030366-6.266688-4.076075-12.581109-7.441266-22.463588-2.272442-6.684354-3.72319-10.569495-5.134729-14.347237-1.416653-3.789676-2.814554-7.535027-4.570454-12.606681-0.022162-0.063076 0.064781-0.083533 0.221618-0.076714l0.404028-0.13979-3.496457-1.138778c-4.125513-1.421768-8.29194-2.91684-13.17266-4.821054l0.011933-0.03239c-4.347131-1.694529-8.776091-3.574876-13.561345-5.825156-3.61579-1.701348-5.12791-2.504289-6.798572-3.390762-3.847637-2.044004-4.551702-4.664216-6.662192-4.664216-2.216185 0-12.96127 7.633903-33.22913 17.344201-36.123808 17.308401-83.797347 40.878376-91.651164 45.031165l-12.604975 6.667306-11.919664-7.981674c-11.27356-7.55037-24.251878-21.205477-35.457248-33.002397-2.816259-2.962868-5.436471-5.724575-10.017154-10.305258-7.843589-7.843589-13.450535-13.003889-18.044856-17.233392-16.568537-15.249054-24.812743-22.842044-25.67535-40.162379-0.690427-13.880134 5.369986-25.203132 17.434553-47.73491 4.203932-7.852112 9.369346-17.501039 16.454318-31.556763 3.210058-6.368973 5.468862-11.570188 7.69016-16.686165 2.783869-6.416707 5.525119-12.726014 8.343082-18.305684l5.334186-10.254115c4.009589-7.671408 5.978584-11.444036 5.932556-12.22652-0.173885-2.915135-3.250972-10.156944-9.292633-24.383144-1.868414-4.401683-4.043684-9.52107-7.864045-18.76256l-18.40797-5.79447c-4.374407-1.37233-9.042033-2.838421-11.72873-3.724894l-0.281285-0.187524-119.380747-41.408556v-147.812689l63.744286-20.615631c9.507432-3.194715 13.827287-4.60114 18.147142-6.007565 9.089766-2.957754 17.915295-5.831975 26.075968-8.684034 10.763838-3.764104 17.91359-6.099622 23.858079-8.039635 16.294071-5.318843 19.420596-6.341697 20.891801-10.777476 1.663843-5.017101 2.870811-8.476053 4.028342-11.55996 1.396196-3.721485 2.632145-6.791753 4.231208-10.683714 3.262906-7.947579 6.058708-12.951042 8.155559-16.706622 0.789303-1.413244-0.860902 1.541101-4.807416-6.079164l-2.492355-4.798892-0.037505 0.020457c-6.24964-12.016834-12.623728-24.265516-17.882904-37.262586-2.028661-5.013691-6.873582-14.410314-12.282777-24.90821-12.161739-23.595546-26.747643-51.903042-26.747643-65.919556 0-8.278302 19.889404-31.873848 41.587556-53.572 20.283203-20.283203 43.159342-42.14842 48.491822-45.718182l11.924778-7.981674 12.599861 6.667306c14.793884 7.826541 28.159182 14.386447 41.490384 20.927601 10.347877 5.076767 20.659954 10.136487 26.154387 12.910127 5.791061 2.923659 28.885408 14.169943 47.346226 22.287998z m55.70806 715.529274l-2.13947-0.675084-0.404028 0.13979c0.998988 0.049438 4.901177 1.276863 2.543498 0.535294z" p-id="2850" fill="#ffffff"></path><path d="M303.628675 509.100208c0 25.57477 4.578978 52.521869 13.445422 77.363593 8.218635 23.029567 19.91327 43.952054 34.790687 59.859144 0.496084 0.53018 0.876245 0.857493 2.040595 2.032071 2.117309 2.136061 3.57999 3.614086 6.677534 7.637313 1.742262 2.265623 2.482127 3.349848 3.102659 4.256779l0.337542 0.456875 15.763891 13.392573c1.808748 1.626339 3.86298 3.242448 5.949603 4.781845 3.308934 2.437803 5.652975 4.072665 7.531618 5.346119 5.484204 3.718076 10.293325 6.81562 15.714453 9.974535 5.029034 2.933887 10.330829 5.717756 17.022002 8.938043 26.612967 12.811251 55.1847 18.714826 83.868947 18.701188 30.77087-0.015343 61.816206-6.846305 90.894252-19.277396 14.539875-6.215545 30.394119-16.658889 44.96127-28.909275 15.095626-12.695328 28.593895-27.134623 37.664908-40.687444 4.04198-6.03825 7.282723-11.271856 10.346173-16.686165 2.983325-5.27111 5.903575-10.941133 9.34207-17.91359 13.285174-26.931756 19.395024-55.430185 19.395024-83.678014 0-39.393533-11.912844-78.227905-32.850674-111.69911-20.965106-33.515529-50.914283-61.565607-86.952853-79.344521-26.503862-13.073784-56.442811-20.581535-88.662724-20.581535-57.063342 0-109.883544 23.525651-148.341165 61.270683-38.070641 37.364871-62.041234 88.647382-62.041234 144.766289z m-31.846571 93.524692c-10.726333-30.049758-16.26509-62.625966-16.26509-93.524692 0-69.501252 29.560492-132.889244 76.511214-178.97054 47.187683-46.313143 111.98551-75.178094 181.982846-75.178094 39.737894 0 76.864099 9.359118 109.900591 25.654893 44.238453 21.824303 80.912898 56.117202 106.496191 97.012626 25.610569 40.939747 40.18113 88.587715 40.181131 137.069309 0 35.223696-7.707208 70.940067-24.468382 104.915881-3.721485 7.545256-7.013372 13.915934-10.658143 20.354803-3.564648 6.299078-7.391828 12.473709-12.224815 19.693357-11.462788 17.125992-28.184753 35.090725-46.686485 50.650045-18.133504 15.250759-38.201907 28.391029-56.990038 36.423845-34.749774 14.85696-72.201588 23.017634-109.687496 23.038091-35.757285 0.018752-71.429332-7.369666-104.728358-23.399499-7.872569-3.787971-14.166533-7.09861-20.220127-10.629162-5.668318-3.30382-11.45256-7.054286-18.530712-11.853178-3.416334-2.31506-6.786639-4.630121-9.035214-6.287145-3.465772-2.555431-6.829258-5.19951-9.710298-7.789037l-14.689894-12.497576-0.658036-0.658036c-5.039263-4.618188-6.234298-6.363859-8.271482-9.340365-0.472218-0.690427-1.046721-1.529167-1.40813-1.999681-1.271749-1.65191-1.870119-2.255394-2.732726-3.126525l-2.981621-3.16062c-19.787118-21.156039-34.915135-47.789462-45.124926-76.3987z" p-id="2851" fill="#ffffff"></path></svg>