<?xml version="1.0" standalone="no"?><!DOCTYPE svg PUBLIC "-//W3C//DTD SVG 1.1//EN" "http://www.w3.org/Graphics/SVG/1.1/DTD/svg11.dtd"><svg t="1761226063223" class="icon" viewBox="0 0 1024 1024" version="1.1" xmlns="http://www.w3.org/2000/svg" p-id="16921" width="64" height="64" xmlns:xlink="http://www.w3.org/1999/xlink"><path d="M511.354435 957.462261c-64.445217 0-115.244522-36.329739-116.557913-84.101565l-2.092522-76.443826c-14.447304-10.907826-59.236174-33.057391-76.421565-36.129391l-50.020174 30.72c-38.13287 23.485217-94.029913 6.099478-124.616348-38.600348-33.680696-48.37287-46.013217-88.219826-37.576348-119.718957 5.253565-19.611826 18.610087-35.08313 38.689391-44.877913l63.688348-39.15687c3.272348-17.185391 1.936696-65.113043-2.537739-82.409739l-55.54087-30.074435c-40.559304-21.949217-52.246261-82.075826-26.067478-134.032696 35.06087-71.568696 86.572522-99.528348 138.017391-75.709217l63.065043 34.081391c16.473043-4.407652 60.794435-29.406609 75.01913-42.496L396.688696 157.161739c-1.335652-48.951652 49.819826-88.709565 116.446609-90.557217 66.849391-1.647304 119.919304 35.105391 121.277217 84.012522l1.78087 65.402435c12.221217 12.510609 60.527304 40.448 79.36 45.590261l51.289043-31.276522c43.430957-21.214609 99.706435 4.006957 132.719304 57.700174l0 0c15.827478 25.733565 23.930435 54.405565 22.817391 80.784696-1.202087 29.184-13.957565 53.337043-34.949565 66.248348l-56.809739 34.927304c-3.472696 17.853217-1.157565 75.486609 5.542957 93.161739l48.439652 26.445913c40.158609 27.002435 46.458435 88.375652 16.428522 143.827478-14.380522 26.557217-35.172174 47.927652-58.568348 60.17113-25.889391 13.512348-53.181217 14.558609-74.841043 2.849391l-63.398957-34.326261c-17.541565 7.346087-62.70887 38.511304-73.171478 52.802783l1.402435 53.51513c-0.400696 48.417391-51.533913 87.151304-116.446609 88.954435C514.470957 957.44 512.890435 957.462261 511.354435 957.462261zM311.852522 715.954087c33.747478 0 109.100522 40.581565 121.477565 59.458783l3.472696 5.275826 2.515478 91.425391c0.556522 20.23513 32.300522 42.651826 75.53113 40.737391 42.918957-1.179826 72.993391-24.153043 73.149217-44.032l-1.647304-62.486261 1.246609-3.717565c10.529391-31.543652 94.386087-85.481739 118.984348-86.394435l6.077217-0.24487 76.198957 41.249391c11.597913 6.277565 25.644522 0.734609 33.03513-3.138783 15.382261-8.036174 29.985391-23.329391 40.025043-41.894957 20.012522-36.975304 15.961043-73.638957-0.400696-84.658087l-55.941565-30.430609-2.738087-3.272348c-20.74713-24.954435-23.952696-126.664348-9.193739-150.594783l2.782609-4.518957 67.739826-41.627826c11.197217-6.878609 13.445565-21.837913 13.779478-30.163478 0.712348-17.341217-5.209043-37.62087-16.250435-55.607652l-0.022261 0c-21.971478-35.795478-55.785739-50.665739-73.46087-41.984l-60.482783 36.975304-5.209043 0.445217c-29.184 2.470957-115.867826-47.326609-128.467478-74.084174l-2.003478-4.207304L589.913043 151.841391c-0.556522-20.23513-32.411826-41.783652-75.553391-40.759652-43.809391 1.224348-73.728 24.598261-73.171478 44.855652l2.070261 75.53113-2.760348 5.164522c-12.866783 24.286609-94.96487 71.101217-122.969043 69.453913l-4.941913-0.289391-72.236522-39.090087c-35.995826-16.65113-64.178087 27.091478-77.690435 54.672696-17.14087 34.081391-9.928348 67.049739 6.878609 76.154435l67.405913 36.485565 3.072 4.697043c15.693913 23.974957 16.339478 114.465391 4.207304 136.125217l-2.82713 5.075478-78.558609 48.105739c-11.620174 5.453913-14.58087 12.132174-15.805217 16.673391-2.226087 8.258783-3.695304 32.768 30.230261 81.474783 19.678609 28.761043 50.042435 36.953043 65.669565 27.40313l59.703652-36.708174 4.652522-0.623304C308.736 716.065391 310.249739 715.954087 311.852522 715.954087zM512.022261 671.521391c-87.974957 0-159.543652-71.568696-159.543652-159.543652 0-87.974957 71.568696-159.543652 159.543652-159.543652 87.974957 0 159.543652 71.568696 159.543652 159.543652C671.565913 599.952696 599.997217 671.521391 512.022261 671.521391zM512.022261 419.238957c-51.133217 0-92.761043 41.605565-92.761043 92.761043 0 51.155478 41.605565 92.761043 92.761043 92.761043 51.155478 0 92.761043-41.605565 92.761043-92.761043C604.783304 460.844522 563.177739 419.238957 512.022261 419.238957z" fill="#ffffff" p-id="16922"></path></svg>