<?xml version="1.0" standalone="no"?><!DOCTYPE svg PUBLIC "-//W3C//DTD SVG 1.1//EN" "http://www.w3.org/Graphics/SVG/1.1/DTD/svg11.dtd"><svg t="1713666473395" class="icon" viewBox="0 0 1024 1024" version="1.1" xmlns="http://www.w3.org/2000/svg" p-id="31033" xmlns:xlink="http://www.w3.org/1999/xlink" width="128" height="128"><path d="M789.333333 85.333333h-512C194.986667 85.333333 128 152.32 128 234.666667V938.666667l298.666667-149.333334 298.666666 149.333334v-384h213.333334V234.666667C938.666667 152.32 871.68 85.333333 789.333333 85.333333zM640 800.597333l-213.333333-106.666666-213.333334 106.666666V234.666667C213.333333 199.381333 242.048 170.666667 277.333333 170.666667h377.685334A147.242667 147.242667 0 0 0 640 234.666667v565.930666zM853.333333 469.333333h-128V234.666667c0-35.285333 28.714667-64 64-64s64 28.714667 64 64V469.333333z" p-id="31034" fill="#ffffff"></path><path d="M469.333333 298.666667H384v85.333333H298.666667v85.333333h85.333333v85.333334h85.333333v-85.333334h85.333334V384h-85.333334z" p-id="31035" fill="#ffffff"></path></svg>