<?xml version="1.0" standalone="no"?><!DOCTYPE svg PUBLIC "-//W3C//DTD SVG 1.1//EN" "http://www.w3.org/Graphics/SVG/1.1/DTD/svg11.dtd"><svg t="1700881879515" class="icon" viewBox="0 0 1024 1024" version="1.1" xmlns="http://www.w3.org/2000/svg" p-id="32013" xmlns:xlink="http://www.w3.org/1999/xlink" width="100" height="100"><path d="M412.7 696.5l246-178c4.4-3.2 4.4-9.7 0-12.9l-246-178c-5.3-3.8-12.7 0-12.7 6.5V381c0 10.2 4.9 19.9 13.2 25.9L558.6 512 413.2 617.2c-8.3 6-13.2 15.6-13.2 25.9V690c0 6.5 7.4 10.3 12.7 6.5z" fill="#1296db" p-id="32014"></path><path d="M880 112H144c-17.7 0-32 14.3-32 32v736c0 17.7 14.3 32 32 32h736c17.7 0 32-14.3 32-32V144c0-17.7-14.3-32-32-32z m-40 728H184V184h656v656z" fill="#1296db" p-id="32015"></path></svg>