<?xml version="1.0" encoding="UTF-8" standalone="no"?>
<svg
   t="1716796758131"
   class="icon"
   viewBox="0 0 1026 1024"
   version="1.1"
   p-id="87805"
   width="32.0625"
   height="32"
   id="svg2"
   sodipodi:docname="steps.svg"
   inkscape:version="1.3.2 (091e20ef0f, 2023-11-25)"
   xmlns:inkscape="http://www.inkscape.org/namespaces/inkscape"
   xmlns:sodipodi="http://sodipodi.sourceforge.net/DTD/sodipodi-0.dtd"
   xmlns="http://www.w3.org/2000/svg"
   xmlns:svg="http://www.w3.org/2000/svg">
  <defs
     id="defs2" />
  <sodipodi:namedview
     id="namedview2"
     pagecolor="#ffffff"
     bordercolor="#000000"
     borderopacity="0.25"
     inkscape:showpageshadow="2"
     inkscape:pageopacity="0.0"
     inkscape:pagecheckerboard="0"
     inkscape:deskcolor="#d1d1d1"
     inkscape:zoom="23.59375"
     inkscape:cx="16.021192"
     inkscape:cy="16"
     inkscape:window-width="1920"
     inkscape:window-height="992"
     inkscape:window-x="0"
     inkscape:window-y="0"
     inkscape:window-maximized="1"
     inkscape:current-layer="svg2" />
  <path
     d="m 716.54336,234.69875 c 66.72681,0 121.13483,-52.70777 121.13483,-117.34938 C 837.67819,52.707769 783.27017,0 716.54336,0 649.81654,0 595.40852,52.707769 595.40852,117.34937 c 0,64.64161 53.89474,117.34938 121.13484,117.34938 z m 0,-192.930329 c 43.62907,0 78.01905,34.309774 78.01905,75.580949 0,42.26567 -35.41655,75.58096 -78.01905,75.58096 -43.62907,0 -78.01905,-34.30978 -78.01905,-75.58096 0,-41.271175 34.38998,-75.580949 78.01905,-75.580949 z M 1015.2742,902.49624 812.52732,618.07318 V 481.33133 l 38.49624,37.29323 c 1.53985,1.49173 3.59298,2.98346 5.64611,3.97795 l 59.54086,28.8401 c 8.72581,3.97794 17.96491,6.46416 27.20401,6.46416 7.69924,0 15.91178,-1.49173 23.09774,-4.47519 16.42506,-6.46416 28.74386,-19.39248 34.39002,-35.8015 9.2391,-27.34837 -3.59303,-58.17745 -30.28375,-70.60853 l -64.67369,-31.32631 -96.49724,-140.22256 -1.53985,-1.49173 -3.0797,-2.98346 c -1.02657,-0.99448 -2.05313,-1.49173 -3.59298,-2.48621 -1.02657,-0.49725 -2.05313,-0.99449 -3.59298,-1.49173 -1.53985,-0.49724 -3.0797,-0.49724 -4.61955,-0.99449 -0.51329,0 -1.02657,-0.49724 -2.05314,-0.49724 H 641.09073 c -5.13284,0 -9.75238,1.49173 -13.85865,4.97243 L 478.37995,391.82757 c -2.05313,1.98897 -4.10627,3.97794 -5.64612,6.46416 l -62.10726,119.83559 c -12.3188,23.86767 -2.56642,53.70225 22.58446,65.13885 22.58446,10.93934 52.86817,2.48621 65.18696,-18.398 L 556.399,471.88371 620.04611,441.05464 V 622.05113 L 575.90376,749.84261 H 454.76892 c -32.33684,0 -59.02757,25.3594 -59.02757,57.18295 0,31.32632 26.17745,57.18296 59.02757,57.18296 H 666.2416 c 6.67269,0 13.34537,-2.98346 16.93835,-8.45313 l 63.13383,-81.05063 177.59599,197.90276 C 935.202,985.0386 951.11378,992 968.05213,992 c 15.3985,0 30.28371,-5.96692 41.57597,-16.40902 18.9914,-20.38697 21.5579,-50.7188 5.6461,-73.09474 z m -134.48021,-452.49123 69.29323,33.81253 c 7.69925,3.97795 11.80551,12.92832 8.72581,20.88421 -2.05313,6.46416 -7.18596,9.44762 -10.26566,10.44211 -2.56642,0.99449 -8.21253,2.48622 -14.88522,-0.49724 l -55.94786,-27.34837 -65.70025,-63.64712 v -68.61955 l 60.56741,88.50927 c 2.05314,2.48622 5.13284,4.97243 8.21254,6.46416 z M 655.46266,821.94286 H 454.76892 c -8.72581,0 -15.91178,-6.96141 -15.91178,-15.41454 0,-8.45313 7.18597,-15.41454 15.91178,-15.41454 h 137.04662 c 9.2391,0 17.45163,-5.96691 20.53133,-14.42005 l 37.98296,-110.38797 67.75338,75.58096 z m 323.36842,123.81353 c -3.0797,2.98346 -6.67268,4.47519 -11.29223,4.47519 -2.56642,0 -7.69925,-0.49724 -11.80552,-5.46968 L 662.64862,617.57594 V 407.73935 c 0,-6.9614 -3.59298,-13.92281 -10.26566,-17.40351 -6.1594,-3.97795 -14.37193,-3.97795 -21.04461,-0.99449 l -99.57695,48.72983 c -3.59298,1.98897 -6.67268,4.47519 -8.72581,7.95589 l -61.0807,98.45413 c -2.56642,3.97795 -7.18597,4.47519 -9.75238,2.98346 -3.59299,-1.98897 -5.13284,-6.46416 -3.59299,-9.94486 l 60.05414,-115.85764 140.6396,-113.86868 h 120.62155 v 317.24111 c 0,3.97794 1.53985,8.45313 3.59298,11.93383 l 206.85314,289.39549 c 4.10626,5.96692 3.0797,13.92281 -1.53985,19.39248 z M 260.23459,420.17043 c -117.02858,0 -214.039101,-94.47619 -214.039101,-207.35038 0,-112.874185 97.010521,-207.3503761 214.039101,-207.3503761 117.02857,0 214.03909,93.9789481 214.03909,207.3503761 0,113.37143 -97.52381,207.35038 -214.03909,207.35038 z m 0,-376.91028 c -97.01053,0 -175.542861,75.08371 -175.542861,170.05714 0,94.97344 78.019051,169.5599 175.542861,169.5599 97.5238,0 175.54285,-75.08371 175.54285,-170.05714 0,-94.97343 -78.53233,-169.5599 -175.54285,-169.5599 z"
     fill="#2c2c2c"
     p-id="87806"
     id="path1"
     style="stroke-width:0.984251" />
  <path
     d="M279.739348 200.180451h97.010527c11.805514 0 19.504762 7.699248 19.504762 19.504762s-7.699248 19.504762-19.504762 19.504762H260.234586c-11.805514 0-19.504762-7.699248-19.504761-19.504762V102.656642c0-11.805514 7.699248-19.504762 19.504761-19.504762s19.504762 7.699248 19.504762 19.504762v97.523809zM286.925313 566.151378H79.045614c-8.725815 0-15.911779-7.185965-15.911779-15.911779s7.185965-15.911779 15.911779-15.911779H287.438596c8.725815 0 15.911779 7.185965 15.91178 15.911779s-7.699248 15.911779-16.425063 15.911779z m153.471679 135.506767H123.18797c-8.725815 0-15.911779-7.185965-15.91178-15.911779s7.185965-15.911779 15.91178-15.91178h317.209022c8.725815 0 15.911779 7.185965 15.91178 15.91178s-7.185965 15.911779-15.91178 15.911779z m-129.860651 140.639599H76.479198c-8.725815 0-15.911779-7.185965-15.911779-15.911779s7.185965-15.911779 15.911779-15.91178h233.030576c8.725815 0 15.911779 7.185965 15.91178 15.91178s-6.159398 15.911779-14.885213 15.911779z"
     fill="#2c2c2c"
     p-id="87807"
     id="path2" />
</svg>
