<?xml version="1.0" ?><svg style="enable-background:new 0 0 64 64;" version="1.1" viewBox="0 0 64 64" xml:space="preserve" xmlns="http://www.w3.org/2000/svg" xmlns:xlink="http://www.w3.org/1999/xlink"><style type="text/css">
	.st0{fill:#0072FF;}
</style><g id="GUIDES_64"/><g id="Layer_3"/><g id="Layer_2"><path class="st0" d="M6.4,49.4l21.4,9.2c2.7,1.2,5.7,1.2,8.4,0l21.4-9.2c2.4-1,2.4-4.4,0-5.4l-3.4-1.5c-1.4-0.6-3-0.6-4.5,0   l-11.6,5c-1.4,0.6-2.9,1.1-4.5,1.2c-2.6,0.3-5.1-0.1-7.4-1.1l-11.9-5.1c-1.4-0.6-3-0.6-4.5,0l-3.4,1.5C4,44.9,4,48.3,6.4,49.4z"/><path class="st0" d="M6.4,20.1l21.4,9.2c2.7,1.2,5.7,1.2,8.4,0l21.4-9.2c2.4-1,2.4-4.4,0-5.4L36.2,5.5c-2.7-1.2-5.7-1.2-8.4,0   L6.4,14.6C4,15.7,4,19.1,6.4,20.1z"/><path class="st0" d="M6.4,34.7l21.4,9.2c2.7,1.2,5.7,1.2,8.4,0l21.4-9.2c2.4-1,2.4-4.4,0-5.4l-3.4-1.5c-1.4-0.6-3-0.6-4.5,0   l-11.6,5c-1.4,0.6-2.9,1.1-4.5,1.2c-2.6,0.3-5.1-0.1-7.4-1.1l-11.9-5.1c-1.4-0.6-3-0.6-4.5,0l-3.4,1.5C4,30.3,4,33.7,6.4,34.7z"/></g></svg>