<?xml version="1.0" standalone="no"?><!DOCTYPE svg PUBLIC "-//W3C//DTD SVG 1.1//EN" "http://www.w3.org/Graphics/SVG/1.1/DTD/svg11.dtd"><svg t="1714031746951" class="icon" viewBox="0 0 1024 1024" version="1.1" xmlns="http://www.w3.org/2000/svg" p-id="7167" xmlns:xlink="http://www.w3.org/1999/xlink" width="128" height="128"><path d="M288 128C235.328 128 192 171.328 192 224V640h64V224c0-17.984 14.016-32 32-32H576v192h192v192h64V338.752L621.248 128H288zM640 237.248L722.752 320H640V237.248zM375.104 448.256a53.312 53.312 0 0 0-34.496 11.648 57.408 57.408 0 0 0-17.472 28.224c-5.76 19.328-4.48 38.4-1.28 59.776 4.672 30.72 19.52 66.688 33.408 101.568-4.864 14.336-4.8 25.472-10.752 39.68-8.064 19.136-17.856 29.888-27.136 47.232-25.984 8.32-54.592 14.464-74.88 26.752-17.6 10.624-33.024 22.464-43.008 41.088a65.92 65.92 0 0 0 4.48 65.024 60.992 60.992 0 0 0 28.672 23.36c12.416 4.608 25.856 3.904 36.736 0.512 21.76-6.784 37.12-21.12 52.352-38.464 14.4-16.512 25.536-44.16 38.656-66.56 9.6-2.56 15.36-6.784 25.216-8.832 16.192-3.456 26.944-1.856 42.368-3.648 7.936 9.472 13.312 24.448 22.016 31.872 16.32 13.824 35.84 25.216 60.032 23.488 24.128-1.728 44.928-19.2 57.088-41.216l0.128-0.128 0.128-0.256a56.192 56.192 0 0 0 7.04-33.28 51.008 51.008 0 0 0-16.64-30.976c-16.128-14.08-33.472-17.088-52.416-19.2-13.312-1.536-31.616 3.136-46.976 3.712-11.328-16.96-22.272-27.072-32.384-48.256-2.304-4.864-2.432-9.024-4.608-14.016 9.728-32.128 23.36-65.536 25.152-94.016 1.472-24.32 0-46.848-10.56-67.84a71.68 71.68 0 0 0-60.8-37.248zM768 640v192h-128l128 128 32 32 32-32 128-128h-128v-192h-64z" fill="#2c2c2c" p-id="7168"></path></svg>