<?xml version="1.0" standalone="no"?><!DOCTYPE svg PUBLIC "-//W3C//DTD SVG 1.1//EN" "http://www.w3.org/Graphics/SVG/1.1/DTD/svg11.dtd"><svg t="1762074944754" class="icon" viewBox="0 0 1024 1024" version="1.1" xmlns="http://www.w3.org/2000/svg" p-id="2581" width="64" height="64" xmlns:xlink="http://www.w3.org/1999/xlink"><path d="M438.857143 536.380952v73.142858H207.238095a36.571429 36.571429 0 0 0 0 73.142857h609.52381a109.714286 109.714286 0 1 1 0 219.428571h-585.142857v-73.142857h585.142857a36.571429 36.571429 0 0 0 0-73.142857h-609.52381a109.714286 109.714286 0 1 1 0-219.428572H438.857143z m219.428571-438.857142c121.173333 0 219.428571 90.794667 219.428572 202.77638l-0.146286 7.14362c-2.706286 67.047619-42.788571 142.384762-108.592762 218.794666a900.096 900.096 0 0 1-77.360762 79.067429l-10.727619 9.557333-5.071238 4.412952-9.557333 8.118858L658.285714 633.904762l-7.972571-6.509714-9.557333-8.118858-10.361905-9.069714a900.096 900.096 0 0 1-82.797715-83.943619c-65.80419-76.434286-105.886476-151.79581-108.592761-218.819047a176.664381 176.664381 0 0 1-0.146286-7.14362c0-110.445714 95.573333-200.289524 214.454857-202.727619L658.285714 97.52381z m0.731429 73.142857L654.848 170.666667c-78.531048 1.633524-139.776 57.636571-142.701714 124.586666l-0.121905 5.022477c0 1.389714 0.024381 2.779429 0.097524 4.193523 1.828571 45.494857 32.49981 106.154667 90.940952 174.031238a800.670476 800.670476 0 0 0 46.104381 49.103239L658.285714 536.380952l9.142857-8.777142c12.190476-11.946667 23.942095-24.185905 35.108572-36.59581l11.02019-12.483048c58.416762-67.876571 89.088-128.536381 90.940953-174.031238l0.073143-4.193524c0-68.608-61.318095-126.854095-140.580572-129.536L659.017143 170.666667zM658.285714 243.809524a73.142857 73.142857 0 1 1 0 146.285714 73.142857 73.142857 0 0 1 0-146.285714z" p-id="2582" fill="#ffffff"></path></svg>