<?xml version="1.0" standalone="no"?><!DOCTYPE svg PUBLIC "-//W3C//DTD SVG 1.1//EN" "http://www.w3.org/Graphics/SVG/1.1/DTD/svg11.dtd"><svg t="1758419372492" class="icon" viewBox="0 0 1024 1024" version="1.1" xmlns="http://www.w3.org/2000/svg" p-id="12315" width="64" height="64" xmlns:xlink="http://www.w3.org/1999/xlink"><path d="M512 42.666667c259.2 0 469.333333 210.133333 469.333333 469.333333s-210.133333 469.333333-469.333333 469.333333S42.666667 771.2 42.666667 512 252.8 42.666667 512 42.666667z m0 64C288.149333 106.666667 106.666667 288.149333 106.666667 512s181.482667 405.333333 405.333333 405.333333 405.333333-181.482667 405.333333-405.333333S735.850667 106.666667 512 106.666667z m1.258667 254.506666c4.202667 0.256 8.32 1.749333 11.818666 4.458667l2.005334 1.770667 153.088 153.088a8.533333 8.533333 0 0 1 2.496 6.016v66.368a8.533333 8.533333 0 0 1-14.570667 6.037333L512 442.837333l-156.074667 156.074667A8.533333 8.533333 0 0 1 341.333333 592.853333v-66.389333a8.533333 8.533333 0 0 1 2.496-6.016l153.088-153.066667a21.248 21.248 0 0 1 13.824-6.208h2.517334z" fill="#ffffff" p-id="12316"></path></svg>