<?xml version="1.0" standalone="no"?><!DOCTYPE svg PUBLIC "-//W3C//DTD SVG 1.1//EN" "http://www.w3.org/Graphics/SVG/1.1/DTD/svg11.dtd"><svg t="1719822932409" class="icon" viewBox="0 0 1024 1024" version="1.1" xmlns="http://www.w3.org/2000/svg" p-id="12197" xmlns:xlink="http://www.w3.org/1999/xlink" width="64" height="64"><path d="M602.4704 647.5776a30.6176 30.6176 0 0 1-22.3232-9.6256l-69.4272-73.5232-76.0832 74.4448c-12.1344 11.8272-31.5904 11.6736-43.4688-0.4608a30.72 30.72 0 0 1 0.4608-43.4176L490.0864 498.688a30.5152 30.5152 0 0 1 22.1184-8.7552c8.2432 0.1536 16.0768 3.6352 21.7088 9.6256l90.88 96.256c11.6224 12.3392 11.1104 31.7952-1.28 43.4176a30.71488 30.71488 0 0 1-21.0432 8.3456z" fill="#ffffff" p-id="12198"></path><path d="M507.8528 884.48c-16.9472 0-30.72-13.7728-30.72-30.72v-309.4016c0-16.9472 13.7728-30.72 30.72-30.72s30.72 13.7728 30.72 30.72v309.4016c0 16.9472-13.7728 30.72-30.72 30.72z" fill="#ffffff" p-id="12199"></path><path d="M759.3984 871.3216h-98.3552c-16.9472 0-30.72-13.7728-30.72-30.72s13.7728-30.72 30.72-30.72h98.3552c97.792 0 177.3056-79.5648 177.3056-177.3056s-79.5648-177.3056-177.3056-177.3056h-41.1136c-8.96 0-17.5104-3.9424-23.3472-10.752s-8.3968-15.872-7.0144-24.7296c1.4336-9.1648 2.1504-18.432 2.1504-27.648 0-97.5872-79.4112-176.9984-176.9984-176.9984S336.128 294.5536 336.128 392.1408c0 9.216 0.7168 18.4832 2.1504 27.648 1.3824 8.8576-1.1776 17.92-7.0144 24.7296a30.80192 30.80192 0 0 1-23.3472 10.752h-41.1136c-97.792 0-177.3056 79.5648-177.3056 177.3056s79.5648 177.3056 177.3056 177.3056h94.2592c16.9472 0 30.72 13.7728 30.72 30.72s-13.7728 30.72-30.72 30.72H266.8032c-131.6352 0-238.7456-107.1104-238.7456-238.7456S135.168 393.8304 266.8032 393.8304h7.8848v-1.6896c0-131.4816 106.9568-238.4384 238.4384-238.4384s238.4384 106.9568 238.4384 238.4384v1.6896h7.8848c131.6352 0 238.7456 107.1104 238.7456 238.7456s-107.1104 238.7456-238.7968 238.7456z" fill="#ffffff" p-id="12200"></path></svg>