<?xml version="1.0" standalone="no"?><!DOCTYPE svg PUBLIC "-//W3C//DTD SVG 1.1//EN" "http://www.w3.org/Graphics/SVG/1.1/DTD/svg11.dtd"><svg t="1754987226025" class="icon" viewBox="0 0 1024 1024" version="1.1" xmlns="http://www.w3.org/2000/svg" p-id="15551" width="64" height="64" xmlns:xlink="http://www.w3.org/1999/xlink"><path d="M447.394909 943.507394a360.510061 360.510061 0 0 1-70.500848-14.149818 12.536242 12.536242 0 0 0-16.446061 7.261091 11.667394 11.667394 0 0 0 8.874667 14.956606c24.576 7.509333 49.958788 12.536242 75.651878 15.080727h1.241213c7.13697 0.806788 13.467152-4.282182 13.839515-11.046788 0.372364-6.764606-5.399273-12.412121-12.598303-12.288l-0.062061 0.186182z m158.130424-6.826667a12.536242 12.536242 0 0 0-15.515151-7.385212c-22.900364 7.074909-46.545455 11.791515-70.500849 14.211879-7.13697-0.124121-12.908606 5.523394-12.536242 12.288 0.372364 6.826667 6.702545 11.791515 13.839515 11.046788h1.241212c25.693091-2.544485 51.075879-7.633455 75.651879-15.266909a11.605333 11.605333 0 0 0 7.943758-14.646303l-0.124122-0.186182z m-291.684848-32.705939a13.032727 13.032727 0 0 0-2.854788-2.110061 348.594424 348.594424 0 0 1-58.647273-40.091151h-0.620606a12.722424 12.722424 0 0 0-15.266909 2.606545 11.170909 11.170909 0 0 0-0.310303 14.708364c17.37697 14.894545 36.181333 28.051394 56.164849 39.532606l6.144 3.599515c5.895758 3.165091 13.467152 1.241212 16.880484-4.344242a11.23297 11.23297 0 0 0-1.365333-13.901576h-0.124121z m417.667879-41.766788a12.846545 12.846545 0 0 0-17.37697-0.868848 345.05697 345.05697 0 0 1-52.689455 36.864l-5.647515 3.227151a11.419152 11.419152 0 0 0-5.461333 16.508121 12.722424 12.722424 0 0 0 17.811394 3.661576 367.026424 367.026424 0 0 0 62.122667-42.821818 11.29503 11.29503 0 0 0 1.179151-16.508121l0.062061-0.062061zM138.146909 618.744242a12.039758 12.039758 0 0 0-12.039757-11.605333 12.039758 12.039758 0 0 0-12.350061 11.729455c0 24.451879 2.792727 48.841697 8.129939 72.797091l0.620606 1.985939c6.516364-5.957818 13.777455-11.170909 21.659152-15.32897a316.571152 316.571152 0 0 1-6.019879-59.578182z m702.526061-13.591272a12.039758 12.039758 0 0 0-12.412122 11.729454v1.241212c0 17.37697-1.489455 34.753939-4.344242 51.944728 8.254061 2.482424 16.135758 5.957818 23.58303 10.24 3.909818-20.604121 5.833697-41.580606 5.833697-62.495031v-1.117091a12.101818 12.101818 0 0 0-12.722424-11.543272zM161.233455 470.295273a12.660364 12.660364 0 0 0-16.259879 5.771636c-10.426182 22.403879-18.369939 45.800727-23.707152 69.756121a11.729455 11.729455 0 0 0 9.495273 14.27394 12.350061 12.350061 0 0 0 14.708364-9.495273c4.964848-22.341818 12.350061-44.125091 22.093575-65.039515a11.481212 11.481212 0 0 0-6.330181-15.266909z m683.287272 73.728a335.499636 335.499636 0 0 0-24.203636-69.632 12.660364 12.660364 0 0 0-16.384-5.709576 11.481212 11.481212 0 0 0-6.019879 15.515151c9.867636 20.790303 17.37697 42.449455 22.46594 64.729213a12.412121 12.412121 0 0 0 14.708363 8.564363 11.791515 11.791515 0 0 0 9.433212-13.467151z m-592.244363-184.940606a12.846545 12.846545 0 0 0-17.37697-0.868849 356.227879 356.227879 0 0 0-51.572364 54.551273 11.419152 11.419152 0 0 0 3.351273 15.639273 12.908606 12.908606 0 0 0 16.756364-1.861819c14.087758-18.618182 30.223515-35.87103 48.15903-51.324121a11.29503 11.29503 0 0 0 0.682667-16.135757z m529.066666 52.130909a357.469091 357.469091 0 0 0-51.882666-54.303031 12.846545 12.846545 0 0 0-17.439031 0.99297 11.29503 11.29503 0 0 0 1.055031 16.570182c17.997576 15.204848 34.195394 32.147394 48.469333 50.579394a12.722424 12.722424 0 0 0 17.190788 2.482424 11.23297 11.23297 0 0 0 2.668606-16.259879l-0.062061-0.06206zM383.534545 292.491636v-0.868848a12.536242 12.536242 0 0 0-15.266909-6.826667 374.846061 374.846061 0 0 0-70.438788 30.285576 11.481212 11.481212 0 0 0-6.826666 16.011636c3.10303 6.206061 11.23297 8.502303 17.501091 4.964849l1.613575-0.930909 1.241213-0.620606c20.48-11.29503 42.201212-20.48 64.667151-27.492849a11.605333 11.605333 0 0 0 7.819636-14.708363l-0.372363 0.186181z m283.55491 21.535031a378.321455 378.321455 0 0 0-63.115637-27.182546c0.186182 3.723636 0.186182 7.385212 0 11.046788-0.062061 4.530424-0.434424 9.060848-1.117091 13.591273 17.811394 6.206061 35.002182 13.839515 51.510303 22.776242a12.846545 12.846545 0 0 0 17.004606-4.096 11.419152 11.419152 0 0 0-4.344242-16.135757z" fill="#ffffff" p-id="15552"></path><path d="M967.028364 730.018909c-1.365333-99.234909-79.685818-178.858667-175.507394-178.424242a173.769697 173.769697 0 0 0-173.955879 183.513212c-3.723636 48.407273 18.432 96.628364 53.868606 130.761697 6.019879 5.833697 12.412121 11.23297 19.052606 16.197818 30.409697 23.086545 67.397818 34.753939 105.068606 33.078303 93.835636-5.647515 174.948848-87.133091 171.473455-185.126788z m-177.12097 111.709091c-64.853333-0.496485-113.69503-61.129697-102.710303-127.224242 11.046788-66.218667 76.706909-106.309818 137.960727-84.278303 7.819636 2.606545 15.32897 6.206061 22.341818 10.736484 40.277333 25.693091 58.957576 76.148364 45.552485 123.190303-13.34303 46.979879-55.482182 78.81697-102.834424 77.76194l-0.310303-0.186182z m-382.913939-111.709091c-1.365333-99.29697-79.809939-178.982788-175.755637-178.424242a172.528485 172.528485 0 0 0-66.963394 13.156848q-4.530424 1.861818-8.502303 3.971879C93.090909 598.016 53.992727 664.048485 57.281939 735.045818 50.269091 829.129697 139.636364 920.855273 235.333818 915.207758a181.27903 181.27903 0 0 0 86.326303-28.361697c7.13697-4.530424 14.025697-9.433212 20.48-14.894546a177.741576 177.741576 0 0 0 64.853334-141.870545z m-177.369213 111.709091c-57.406061-1.613576-103.020606-50.517333-102.46206-110.033455 0.372364-29.354667 12.288-57.281939 33.016242-77.327515 6.392242-6.206061 13.467152-11.481212 21.162667-15.763394 50.455273-29.354667 114.315636-10.798545 142.615273 41.456485 28.361697 52.25503 10.364121 118.411636-40.091152 147.704243a93.401212 93.401212 0 0 1-18.804364 8.874666 99.917576 99.917576 0 0 1-35.436606 5.08897z m457.510788-601.305212C685.769697 141.125818 607.26303 61.44 511.379394 62.060606a173.769697 173.769697 0 0 0-173.955879 183.513212 100.662303 100.662303 0 0 0 0 10.984727c0 8.874667 0.806788 17.749333 2.482424 26.499879 14.708364 79.623758 93.028848 148.076606 175.941819 142.925576 93.401212-6.081939 174.514424-87.505455 171.349333-185.561212z m-177.431272 111.709091c-55.233939-1.613576-99.793455-47.352242-101.965576-104.510061v-8.874666c3.599515-56.102788 47.910788-100.103758 102.213818-101.531152 54.24097-1.365333 100.662303 40.339394 106.930424 96.193939 0.186182 3.723636 0.186182 7.571394 0 11.357091 0 4.716606-0.372364 9.433212-1.05503 14.087758-7.695515 54.24097-53.123879 94.208-106.123636 93.277091z" fill="#ffffff" p-id="15553"></path></svg>