<?xml version="1.0" standalone="no"?><!DOCTYPE svg PUBLIC "-//W3C//DTD SVG 1.1//EN" "http://www.w3.org/Graphics/SVG/1.1/DTD/svg11.dtd"><svg t="1746014706491" class="icon" viewBox="0 0 1024 1024" version="1.1" xmlns="http://www.w3.org/2000/svg" p-id="3516" xmlns:xlink="http://www.w3.org/1999/xlink" width="64" height="64"><path d="M933.875 747.1953125V775.671875a158.203125 158.203125 0 0 1-158.203125 158.203125H248.328125a158.203125 158.203125 0 0 1-158.203125-158.203125v-28.37109375h68.50195313l0.05273437 28.37109375a89.6484375 89.6484375 0 0 0 89.6484375 89.6484375h527.34375a89.6484375 89.6484375 0 0 0 89.6484375-89.6484375v-28.37109375H933.875zM775.671875 90.125a158.203125 158.203125 0 0 1 158.203125 158.203125v28.31835938h-68.5546875v-28.31835938a89.6484375 89.6484375 0 0 0-89.6484375-89.6484375H248.328125a89.6484375 89.6484375 0 0 0-89.6484375 89.6484375l-0.05273438 28.31835938H90.125v-28.31835938a158.203125 158.203125 0 0 1 158.203125-158.203125h527.34375zM233.5625 395.93164062v85.11328126H148.44921875V395.93164062h-52.20703125v221.48437501h52.20703125V523.75976563H233.5625v93.65624999h52.20703125v-221.48437499zM310.1328125 438.64648437h56.953125v178.76953126h52.5234375v-178.76953126h56.953125v-42.71484374H310.1328125zM591.734375 617.41601563h61.3828125l37.96875-182.25000001h2.53125v182.25000001h50.30859375v-221.48437501h-90.80859375l-30.05859375 158.51953126-0.6328125 3.16406249-0.6328125-3.1640625-30.05859375-158.51953124H500.92578125v221.48437499h50.30859375V435.16601562h2.84765625zM781.89453125 395.93164062v221.48437501h141.75v-42.71484376h-89.54296875v-178.76953124z" fill="#ffffff" p-id="3517"></path></svg>