<?xml version="1.0" standalone="no"?><!DOCTYPE svg PUBLIC "-//W3C//DTD SVG 1.1//EN" "http://www.w3.org/Graphics/SVG/1.1/DTD/svg11.dtd"><svg t="1746151800243" class="icon" viewBox="0 0 1024 1024" version="1.1" xmlns="http://www.w3.org/2000/svg" p-id="6217" xmlns:xlink="http://www.w3.org/1999/xlink" width="64" height="64"><path d="M204.8 819.2v-102.4H102.4v102.4H51.2v-256h51.2v102.4h102.4v-102.4h51.2v256H204.8z m153.6 0v-204.8H286.72v-51.2h189.44v51.2H409.6v204.8H358.4z m153.6 0v-256h51.2l71.68 174.08h5.12L716.8 563.2h51.2v256h-51.2v-158.72h-5.12l-56.32 128h-30.72l-56.32-128H563.2V819.2h-51.2z m460.8 0h-153.6v-256h51.2v204.8h102.4v51.2zM481.28 215.04L363.52 332.8l117.76 117.76-30.72 61.44-179.2-179.2L450.56 153.6l30.72 61.44z m61.44 235.52l117.76-117.76-117.76-117.76 30.72-61.44 179.2 179.2-179.2 179.2-30.72-61.44z" p-id="6218" fill="#ffffff"></path></svg>