<?xml version="1.0" standalone="no"?><!DOCTYPE svg PUBLIC "-//W3C//DTD SVG 1.1//EN" "http://www.w3.org/Graphics/SVG/1.1/DTD/svg11.dtd"><svg t="1757122068405" class="icon" viewBox="0 0 1024 1024" version="1.1" xmlns="http://www.w3.org/2000/svg" p-id="13772" width="64" height="64" xmlns:xlink="http://www.w3.org/1999/xlink"><path d="M512 56.878545c251.345455 0 455.121455 203.776 455.121455 455.121455S763.345455 967.121455 512 967.121455 56.878545 763.345455 56.878545 512 260.654545 56.878545 512 56.878545z m397.218909 483.514182h-203.450182a669.230545 669.230545 0 0 1-136.704 365.754182 398.336 398.336 0 0 0 340.154182-365.754182z m-591.173818 0H114.781091a398.382545 398.382545 0 0 0 339.968 365.754182c-80.802909-105.425455-128.465455-232.727273-136.704-365.754182z m331.589818 0H374.132364a613.189818 613.189818 0 0 0 137.774545 347.694546 613.189818 613.189818 0 0 0 137.728-347.694546zM455.354182 117.76l-2.187637 0.325818a398.382545 398.382545 0 0 0-338.432 366.266182h203.310546a669.230545 669.230545 0 0 1 137.309091-366.545455z m56.552727 18.897455a613.189818 613.189818 0 0 0-137.774545 347.694545h275.502545a613.189818 613.189818 0 0 0-137.774545-347.694545z m56.413091-18.944l9.588364 12.706909a669.277091 669.277091 0 0 1 127.860363 353.931636h203.496728a398.382545 398.382545 0 0 0-340.945455-366.638545z" fill="#ffffff" p-id="13773"></path></svg>