<?xml version="1.0" standalone="no"?><!DOCTYPE svg PUBLIC "-//W3C//DTD SVG 1.1//EN" "http://www.w3.org/Graphics/SVG/1.1/DTD/svg11.dtd"><svg t="1754989996080" class="icon" viewBox="0 0 1024 1024" version="1.1" xmlns="http://www.w3.org/2000/svg" p-id="29224" width="64" height="64" xmlns:xlink="http://www.w3.org/1999/xlink"><path d="M501.333333 85.333333c229.76 0 416 186.24 416 416s-186.24 416-416 416S85.333333 731.093333 85.333333 501.333333 271.573333 85.333333 501.333333 85.333333z m122.496 576H378.88c7.936 37.12 18.56 70.4 31.061333 98.56 14.336 32.256 30.634667 56.448 47.061334 72.106667 16.298667 15.488 31.232 21.333333 44.373333 21.333333 13.141333 0 28.074667-5.845333 44.373333-21.333333 16.426667-15.658667 32.725333-39.850667 47.061334-72.106667 12.501333-28.16 23.125333-61.44 31.061333-98.56z m-310.314666 0H187.733333a353.28 353.28 0 0 0 186.581334 168.405334 371.2 371.2 0 0 1-22.912-43.861334c-16-36.053333-28.885333-78.208-37.888-124.544z m501.418666 0h-125.781333c-9.002667 46.336-21.888 88.490667-37.888 124.544a371.2 371.2 0 0 1-22.912 43.861334A353.28 353.28 0 0 0 814.933333 661.333333z m-511.104-256h-141.226666a352.256 352.256 0 0 0-13.269334 96c0 33.28 4.608 65.493333 13.226667 96h141.269333A880.384 880.384 0 0 1 298.666667 501.333333c0-32.938667 1.792-65.109333 5.162666-96z m330.581334 0H368.213333a812.373333 812.373333 0 0 0-5.589333 96c0 33.365333 1.962667 65.536 5.589333 96h266.154667A812.373333 812.373333 0 0 0 640 501.333333c0-33.365333-1.962667-65.536-5.589333-96z m205.653333 0h-141.226667c3.413333 30.890667 5.162667 63.061333 5.162667 96s-1.792 65.109333-5.162667 96h141.226667c8.661333-30.506667 13.269333-62.72 13.269333-96s-4.608-65.493333-13.226666-96zM374.314667 172.928A353.28 353.28 0 0 0 187.733333 341.333333h125.781334c9.002667-46.336 21.888-88.490667 37.888-124.544a371.2 371.2 0 0 1 22.912-43.861333zM501.333333 149.333333c-13.141333 0-28.074667 5.845333-44.373333 21.333334-16.426667 15.658667-32.725333 39.850667-47.061333 72.106666-12.501333 28.16-23.125333 61.44-31.061334 98.56h244.992c-7.936-37.12-18.56-70.4-31.061333-98.56-14.336-32.256-30.634667-56.448-47.061333-72.106666-16.298667-15.488-31.232-21.333333-44.373334-21.333334z m127.018667 23.594667a371.2 371.2 0 0 1 22.912 43.861333c16 36.053333 28.885333 78.208 37.888 124.544H814.933333a353.28 353.28 0 0 0-186.581333-168.405333z" fill="#ffffff" p-id="29225"></path></svg>