<?xml version="1.0" standalone="no"?><!DOCTYPE svg PUBLIC "-//W3C//DTD SVG 1.1//EN" "http://www.w3.org/Graphics/SVG/1.1/DTD/svg11.dtd"><svg t="1755436288053" class="icon" viewBox="0 0 1024 1024" version="1.1" xmlns="http://www.w3.org/2000/svg" p-id="2586" width="64" height="64" xmlns:xlink="http://www.w3.org/1999/xlink"><path d="M765.5 70.3C685.2 23.9 597.5 1.9 511 1.9c-176.2 0-347.6 91.4-442.1 255-140.8 243.9-57.3 555.8 186.6 696.6 80.3 46.4 168 68.4 254.5 68.4 64.2 0 127.8-12.3 187.2-35.6l10.4-3.6c-0.1-0.2-0.1-0.3-0.2-0.5 99.4-41.6 186.6-114.7 244.7-215.3 140.8-243.9 57.2-555.8-186.6-696.6z m202.3 368c-49.9 1.8-106.6-7.1-165.3-25.5 28.1-91.4 37.1-174.6 25.8-237.7 75.4 71.1 123.5 164.1 139.5 263.2zM549.1 768.2c-38.6-33.4-82.2-64.6-129.8-92-49.8-28.8-100.9-51.7-151.3-68.6 18-54.4 42.7-110.6 73.4-166.4L656.2 623c-30.5 50.1-67.4 100.4-107.1 145.2zM278.7 913.3c-35.1-20.2-50.9-82-42.4-165.3 3.1-30.4 9.5-62.6 18.3-95.7 47.2 15.9 95.2 37.2 141.5 63.9 44.1 25.5 84.9 54.7 121.1 85.9-69.1 70-143 119.5-203.9 119.5-13.4 0.2-24.7-2.6-34.6-8.3z m85.9-512.4c28.8-47.2 63.2-94.5 100.2-137.2 40.4 39 87.3 75.6 139.2 107.8 46 28.6 93.3 51.9 140.1 70.1-17 46.5-38.8 94-64.7 141.1L364.6 400.9z m263.9-68.8c-49.1-30.5-93.9-65.6-132.3-103 71.2-74 148.4-127.1 211.4-127.1 13.5 0 24.8 2.8 34.7 8.4 35.1 20.2 50.9 82 42.4 165.3-3.9 38.3-12.7 79.3-25.6 121.7-43.9-17-88-38.8-130.6-65.3z m15.2-264c-56.4 20.2-119 64.4-180.1 127.1-37.4-41.9-66.3-85.5-84-127.6 42.2-12.5 86.3-19.3 131.4-19.3 45 0 89.7 6.9 132.7 19.8z m-308 14.8c20.2 49.3 53.2 99.2 96.2 146.7-37.6 43-74 93-107.3 148.2L121.3 260.4c52.1-80.5 127.4-142 214.4-177.5zM98.4 300.8l203 117.2c-32.9 59.7-58.8 119.3-77.6 176.1C163 577.9 104.3 571 51.6 574.6c-13-94 3.1-188.7 46.8-273.8zM62.7 631.9c-1-3.7-1.5-7.4-2.4-11.1 45.5-2.2 96.7 4.3 150 18.4-21.6 80.3-27.9 153.1-17.7 209.7-62-58.4-107.2-132.6-129.9-217z m314.6 323.8c54.6-19.5 115.2-61.8 174.5-121.6 39.5 39.1 71.4 80.3 93 121.1-43.2 13.2-88.5 20.4-134.8 20.4-45-0.1-89.7-7-132.7-19.9zM689 939.5c-24-47.5-60-94.9-105.1-139.4 39.5-44.4 77.7-96.3 112.6-154.1l203.2 117.3C848.3 842.7 774.4 903.7 689 939.5zM922.5 723L719.6 605.8c27.7-50.2 50.5-100.4 68.2-148.9 58.1 18.4 114.7 28.2 166.3 28.2 6.4 0 12.6-0.4 18.8-0.7 4.9 80.3-11.4 162.6-50.4 238.6z" fill="#333333" p-id="2587"></path></svg>