<?xml version="1.0" standalone="no"?><!DOCTYPE svg PUBLIC "-//W3C//DTD SVG 1.1//EN" "http://www.w3.org/Graphics/SVG/1.1/DTD/svg11.dtd"><svg t="1746152771568" class="icon" viewBox="0 0 1024 1024" version="1.1" xmlns="http://www.w3.org/2000/svg" p-id="10366" xmlns:xlink="http://www.w3.org/1999/xlink" width="64" height="64"><path d="M0 512s229.229714-438.857143 512-438.857143 512 438.857143 512 438.857143-229.302857 438.857143-512 438.857143-512-438.857143-512-438.857143z m207.506286-174.226286A1320.448 1320.448 0 0 0 84.114286 512a1316.571429 1316.571429 0 0 0 121.782857 172.251429C280.502857 772.461714 394.093714 877.714286 512.073143 877.714286s230.4-104.155429 304.566857-191.488A1320.740571 1320.740571 0 0 0 940.105143 512a1309.257143 1309.257143 0 0 0-121.782857-172.251429C743.716571 251.465143 630.125714 146.285714 512.073143 146.285714s-230.4 104.155429-304.566857 191.268572zM329.216 512a182.857143 182.857143 0 0 1 182.857143-182.857143 182.857143 182.857143 0 0 1 182.857143 182.857143 182.857143 182.857143 0 0 1-182.857143 182.857143A182.857143 182.857143 0 0 1 329.142857 512z m73.142857 0a109.714286 109.714286 0 0 0 109.714286 109.714286 109.714286 109.714286 0 0 0 109.714286-109.714286 109.714286 109.714286 0 0 0-109.714286-109.714286A109.714286 109.714286 0 0 0 402.285714 512z" fill="#ffffff" p-id="10367"></path></svg>