<?xml version="1.0" standalone="no"?><!DOCTYPE svg PUBLIC "-//W3C//DTD SVG 1.1//EN" "http://www.w3.org/Graphics/SVG/1.1/DTD/svg11.dtd"><svg t="1743765680249" class="icon" viewBox="0 0 1024 1024" version="1.1" xmlns="http://www.w3.org/2000/svg" p-id="4558" xmlns:xlink="http://www.w3.org/1999/xlink" width="64" height="64"><path d="M513.3 172.5c43 0 88.3 12.5 134.8 37.2 41.6 22.1 84.4 53.9 127.2 94.7C845.8 371.6 901 448 932.5 496c6.6 10 6.6 23 0 33-31.5 48-86.7 124.4-157.3 191.7-42.8 40.8-85.6 72.6-127.2 94.7-46.5 24.7-91.8 37.2-134.8 37.2s-88.3-12.5-134.8-37.2c-41.6-22.1-84.4-53.9-127.2-94.7C180.7 653.4 125.5 577 94 529c-6.6-10-6.6-23 0-33 31.5-48 86.7-124.4 157.3-191.7 42.8-40.8 85.6-72.6 127.2-94.7 46.4-24.6 91.8-37.1 134.8-37.1m0-60c-228.2 0-420.6 273.1-480.6 368-12.4 19.6-12.4 44.5 0 64 60 94.9 252.5 368 480.6 368s420.6-273.1 480.6-368c12.4-19.6 12.4-44.5 0-64-60-94.9-252.5-368-480.6-368z" fill="#ffffff" p-id="4559"></path><path d="M513.3 372.5c37.4 0 72.6 14.6 99 41 26.4 26.4 41 61.6 41 99s-14.6 72.6-41 99c-26.4 26.4-61.6 41-99 41s-72.6-14.6-99-41c-26.4-26.4-41-61.6-41-99s14.6-72.6 41-99c26.4-26.4 61.6-41 99-41m0-60c-110.5 0-200 89.5-200 200s89.5 200 200 200 200-89.5 200-200-89.6-200-200-200z" fill="#ffffff" p-id="4560"></path></svg>