<?xml version="1.0" standalone="no"?><!DOCTYPE svg PUBLIC "-//W3C//DTD SVG 1.1//EN" "http://www.w3.org/Graphics/SVG/1.1/DTD/svg11.dtd"><svg t="1719114714357" class="icon" viewBox="0 0 1024 1024" version="1.1" xmlns="http://www.w3.org/2000/svg" p-id="2360" xmlns:xlink="http://www.w3.org/1999/xlink" width="64" height="64"><path d="M606.4 189.2c-9.1-5.6-20.3-6.3-29.9-1.5L298.1 323.2H158.8c-17.1 0-30.8 13.8-30.8 30.8v308.1c0 17.1 13.8 30.8 30.8 30.8l139.3 0.2 278.4 135.6c4.2 2.1 8.9 3.1 13.5 3.1 5.7 0 11.4-1.5 16.4-4.7 9.1-5.6 14.5-15.5 14.5-26.1V215.3c0-10.6-5.5-20.5-14.5-26.1z m-47.2 562.5L318.7 634.6c-4.2-2-8.8-3.1-13.5-3.1l-115.6-0.2V384.9h115.6c4.7 0 9.2-1.1 13.5-3.1l240.5-117.1v487z m156.5-474.3c-11.9-12.1-31.4-12.3-43.6-0.4-12.1 11.9-12.3 31.4-0.5 43.6 49.4 50.4 76.6 117 76.6 187.7 0 70.6-27.2 137.3-76.6 187.7-11.9 12.1-11.8 31.7 0.5 43.6 6 5.9 13.8 8.8 21.6 8.8 8 0 16-3.1 22.1-9.2 60.8-62 94.2-143.9 94.2-230.8 0-87-33.6-169-94.3-231z m0 0" p-id="2361" fill="#ffffff"></path><path d="M801.1 193.7c-11.9-12.1-31.4-12.3-43.6-0.5-12.1 11.9-12.3 31.4-0.5 43.6 71.4 72.9 110.8 169.3 110.8 271.3S828.5 706.5 757 779.4c-11.9 12.1-11.8 31.7 0.5 43.6 6 5.9 13.8 8.8 21.6 8.8 8 0 16-3.1 22.1-9.2 82.9-84.5 128.4-196.1 128.4-314.4-0.1-118.3-45.6-230-128.5-314.5z m0 0" p-id="2362" fill="#ffffff"></path></svg>