<?xml version="1.0" standalone="no"?><!DOCTYPE svg PUBLIC "-//W3C//DTD SVG 1.1//EN" "http://www.w3.org/Graphics/SVG/1.1/DTD/svg11.dtd"><svg t="1760319868377" class="icon" viewBox="0 0 1024 1024" version="1.1" xmlns="http://www.w3.org/2000/svg" p-id="25487" width="64" height="64" xmlns:xlink="http://www.w3.org/1999/xlink"><path d="M545.962667 208.042667a66.679467 66.679467 0 0 0-67.413334 1.877333L232.106667 364.885333H150.186667c-36.522667 0-66.389333 29.696-66.389334 66.389334v239.786666c0 36.522667 29.696 66.389333 66.389334 66.389334h81.92l246.613333 154.965333c10.752 6.826667 23.04 10.069333 35.328 10.069333 11.093333 0 22.186667-2.730667 32.085333-8.362666a66.286933 66.286933 0 0 0 34.304-58.026667v-570.026667a66.781867 66.781867 0 0 0-34.474666-58.026666zM512 832.682667l-251.904-158.378667c-5.461333-3.413333-11.776-5.290667-18.090667-5.290667H152.064V433.152h89.941333c6.485333 0 12.8-1.877333 18.090667-5.290667L512 269.482667v563.2zM806.741333 551.082667c0-76.629333-41.130667-147.797333-107.52-185.856-16.384-9.386667-37.205333-3.754667-46.592 12.629333-9.386667 16.384-3.754667 37.205333 12.629334 46.592a146.432 146.432 0 0 1 0 253.610667c-16.384 9.386667-22.016 30.208-12.629334 46.592a34.1504 34.1504 0 0 0 46.762667 12.458666c66.218667-38.229333 107.349333-109.397333 107.349333-186.026666z" fill="#2c2c2c" p-id="25488"></path><path d="M784.896 239.957333c-16.384-9.386667-37.205333-3.754667-46.592 12.458667s-3.754667 37.205333 12.458667 46.592c89.770667 51.882667 145.578667 148.48 145.578666 252.074667s-55.808 200.192-145.578666 252.074666c-16.384 9.386667-21.845333 30.378667-12.458667 46.592 6.314667 10.922667 17.749333 17.066667 29.525333 17.066667 5.802667 0 11.605333-1.536 17.066667-4.608a360.226133 360.226133 0 0 0 179.712-311.125333c0-128-68.778667-247.125333-179.712-311.125334z" fill="#2c2c2c" p-id="25489"></path></svg>