<?xml version="1.0" standalone="no"?><!DOCTYPE svg PUBLIC "-//W3C//DTD SVG 1.1//EN" "http://www.w3.org/Graphics/SVG/1.1/DTD/svg11.dtd"><svg t="1749110589139" class="icon" viewBox="0 0 1024 1024" version="1.1" xmlns="http://www.w3.org/2000/svg" p-id="10994" xmlns:xlink="http://www.w3.org/1999/xlink" width="128" height="128"><path d="M0 0h1024v1024H0z" fill="#2c2c2c" fill-opacity="0" p-id="10995"></path><path d="M725.333333 138.666667H298.666667A202.922667 202.922667 0 0 0 96 341.333333v554.666667a32.042667 32.042667 0 0 0 54.613333 22.613333l102.997334-102.997333c9.984-10.026667 23.552-15.658667 37.717333-15.616H725.333333A202.922667 202.922667 0 0 0 928 597.333333V341.333333A202.922667 202.922667 0 0 0 725.333333 138.666667zM864 597.333333A138.837333 138.837333 0 0 1 725.333333 736H291.370667a116.522667 116.522667 0 0 0-82.986667 34.389333L160 818.773333V341.333333A138.837333 138.837333 0 0 1 298.666667 202.666667h426.666666A138.837333 138.837333 0 0 1 864 341.333333v256zM384 469.333333a42.666667 42.666667 0 1 1-85.333333 0 42.666667 42.666667 0 0 1 85.333333 0z m170.666667 0a42.666667 42.666667 0 1 1-85.333334 0 42.666667 42.666667 0 0 1 85.333334 0z m170.666666 0a42.666667 42.666667 0 1 1-85.333333 0 42.666667 42.666667 0 0 1 85.333333 0z" fill="#2c2c2c" p-id="10996"></path></svg>