<?xml version="1.0" standalone="no"?><!DOCTYPE svg PUBLIC "-//W3C//DTD SVG 1.1//EN" "http://www.w3.org/Graphics/SVG/1.1/DTD/svg11.dtd"><svg t="1754273546669" class="icon" viewBox="0 0 1024 1024" version="1.1" xmlns="http://www.w3.org/2000/svg" p-id="2612" width="128" height="128" xmlns:xlink="http://www.w3.org/1999/xlink"><path d="M501.12 512m-252.48 0a252.48 252.48 0 1 0 504.96 0 252.48 252.48 0 1 0-504.96 0Z" fill="#FF8025" p-id="2613"></path><path d="M478.08 89.6m32 0l0 0q32 0 32 32l0 60.48q0 32-32 32l0 0q-32 0-32-32l0-60.48q0-32 32-32Z" fill="#FF8025" p-id="2614"></path><path d="M778.480379 192.42167m22.980041 22.269209l0 0q22.980042 22.269209 0.710832 45.249251l-42.088806 43.432279q-22.269209 22.980042-45.249251 0.710832l0 0q-22.980042-22.269209-0.710832-45.249251l42.088806-43.432279q22.269209-22.980042 45.249251-0.710832Z" fill="#FF8025" p-id="2615"></path><path d="M922.748972 475.633423m0.999562 31.984385l0 0q0.999562 31.984385-30.984823 32.983947l-60.450488 1.889172q-31.984385 0.999562-32.983947-30.984823l0 0q-0.999562-31.984385 30.984823-32.983947l60.450488-1.889172q31.984385-0.999562 32.983947 30.984823Z" fill="#FF8025" p-id="2616"></path><path d="M829.049537 778.764194m-21.540531 23.664436l0 0q-21.540531 23.664436-45.204967 2.123905l-44.725784-40.711604q-23.664436-21.540531-2.123905-45.204966l0 0q21.540531-23.664436 45.204967-2.123905l44.725784 40.711603q23.664436 21.540531 2.123905 45.204967Z" fill="#FF8025" p-id="2617"></path><path d="M551.227947 932.00205m-31.937205 2.003722l0 0q-31.937206 2.003723-33.940928-29.933483l-3.787036-60.361318q-2.003723-31.937206 29.933483-33.940928l0 0q31.937206-2.003723 33.940928 29.933483l3.787036 60.361318q2.003723 31.937206-29.933483 33.940928Z" fill="#FF8025" p-id="2618"></path><path d="M244.586798 848.065623m-24.329363-20.786584l0 0q-24.329363-20.786584-3.542779-45.115948l39.286644-45.982497q20.786584-24.329363 45.115947-3.542779l0 0q24.329363 20.786584 3.54278 45.115948l-39.286644 45.982496q-20.786584 24.329363-45.115948 3.54278Z" fill="#FF8025" p-id="2619"></path><path d="M83.283247 574.84028m-3.000345-31.859032l0 0q-3.000345-31.859032 28.858686-34.859377l60.213571-5.670653q31.859032-3.000345 34.859378 28.858687l0 0q3.000345 31.859032-28.858687 34.859377l-60.213571 5.670653q-31.859032 3.000345-34.859377-28.858687Z" fill="#FF8025" p-id="2620"></path><path d="M157.32015 265.762881m20.016481-24.966788l0 0q20.016481-24.966787 44.983269-4.950306l47.187228 37.83115q24.966787 20.016481 4.950306 44.983268l0 0q-20.016481 24.966787-44.983268 4.950307l-47.187229-37.83115q-24.966787-20.016481-4.950306-44.983269Z" fill="#FF8025" p-id="2621"></path></svg>