<?xml version="1.0" standalone="no"?><!DOCTYPE svg PUBLIC "-//W3C//DTD SVG 1.1//EN" "http://www.w3.org/Graphics/SVG/1.1/DTD/svg11.dtd"><svg t="1754273654041" class="icon" viewBox="0 0 1025 1024" version="1.1" xmlns="http://www.w3.org/2000/svg" p-id="4613" width="128.125" height="128" xmlns:xlink="http://www.w3.org/1999/xlink"><path d="M712.12464 185.12V118.56a24 24 0 0 0-48 0v66.56a24 24 0 0 0 48 0zM530.68464 240l-47.04-47.04a24 24 0 0 0-33.92 33.92L496.60464 274.24A24 24 0 0 0 530.68464 240zM934.68464 455.68h66.56a24 24 0 0 0 0-48h-66.56a24 24 0 0 0 0 48zM879.32464 274.24l47.04-47.04a24 24 0 0 0-33.92-33.92L845.40464 240a24 24 0 0 0 33.92 33.92zM634.84464 529.6a146.24 146.24 0 0 1 57.28-7.36 205.44 205.44 0 0 1 126.4 48.96 191.04 191.04 0 1 0-302.24-223.04 223.04 223.04 0 0 1 118.56 181.44z" fill="#2DA8C4" p-id="4614"></path><path d="M639.00464 519.84a208.8 208.8 0 0 1 68.32-11.68 194.4 194.4 0 0 1 127.04 46.08 196 196 0 0 0 35.84-64A192 192 0 0 0 752.60464 450.88a208.8 208.8 0 0 0-68.32 11.68 217.6 217.6 0 0 0-103.68-188.48A197.92 197.92 0 0 0 528.60464 327.04a218.88 218.88 0 0 1 110.4 192.8z" fill="#1F88A0" p-id="4615"></path><path d="M705.56464 508.8a203.68 203.68 0 0 0-66.56 11.36 224 224 0 1 0-441.44 53.28 172.96 172.96 0 1 0-24 344.16h532a204.32 204.32 0 0 0 0-408.64z" fill="#58C6FE" p-id="4616"></path><path d="M211.80464 834.08h437.28a14.4 14.4 0 0 0 0-28.8H211.80464a14.4 14.4 0 0 0 0 28.8z" fill="#FFFFFF" p-id="4617"></path></svg>