<?xml version="1.0" standalone="no"?><!DOCTYPE svg PUBLIC "-//W3C//DTD SVG 1.1//EN" "http://www.w3.org/Graphics/SVG/1.1/DTD/svg11.dtd"><svg t="1754530840370" class="icon" viewBox="0 0 1024 1024" version="1.1" xmlns="http://www.w3.org/2000/svg" p-id="7072" width="128" height="128" xmlns:xlink="http://www.w3.org/1999/xlink"><path d="M512 184.32c90.112 0 168.96 67.584 182.272 155.648l6.144 41.984 41.984 9.216c45.056 9.216 76.8 49.152 76.8 95.232 0 52.224-40.96 95.232-94.208 97.28H307.2c-56.32 0-102.4-46.08-102.4-102.4 0-48.128 32.768-89.088 79.872-99.328l38.912-9.216 7.168-38.912C348.16 246.784 423.936 184.32 512 184.32m0-61.44c-119.808 0-219.136 86.016-241.664 198.656C197.632 337.92 143.36 403.456 143.36 481.28c0 90.112 73.728 163.84 163.84 163.84h419.84c84.992-3.072 153.6-72.704 153.6-158.72 0-76.8-54.272-140.288-125.952-155.648C737.28 212.992 634.88 122.88 512 122.88zM522.24 747.52H215.04c-17.408 0-30.72-13.312-30.72-30.72s13.312-30.72 30.72-30.72h307.2c17.408 0 30.72 13.312 30.72 30.72s-13.312 30.72-30.72 30.72zM808.96 747.52H624.64c-17.408 0-30.72-13.312-30.72-30.72s13.312-30.72 30.72-30.72h184.32c17.408 0 30.72 13.312 30.72 30.72s-13.312 30.72-30.72 30.72zM501.76 849.92h286.72c17.408 0 30.72-13.312 30.72-30.72s-13.312-30.72-30.72-30.72H501.76c-17.408 0-30.72 13.312-30.72 30.72s13.312 30.72 30.72 30.72zM235.52 849.92h163.84c17.408 0 30.72-13.312 30.72-30.72s-13.312-30.72-30.72-30.72H235.52c-17.408 0-30.72 13.312-30.72 30.72s13.312 30.72 30.72 30.72z" fill="#59C1F7" p-id="7073"></path></svg>