<?xml version="1.0" standalone="no"?><!DOCTYPE svg PUBLIC "-//W3C//DTD SVG 1.1//EN" "http://www.w3.org/Graphics/SVG/1.1/DTD/svg11.dtd"><svg t="1754434577731" class="icon" viewBox="0 0 1024 1024" version="1.1" xmlns="http://www.w3.org/2000/svg" p-id="20072" width="128" height="128" xmlns:xlink="http://www.w3.org/1999/xlink"><path d="M352 768a32 32 0 0 1 1 63.984L352 832H164a32 32 0 0 1-1-63.984L164 768h188z m496 0a32 32 0 0 1 1 63.984L848 832h-380a32 32 0 0 1-1-63.984L468 768h380z m-340-128a32 32 0 0 1 1 63.984L508 704H164a32 32 0 0 1-1-63.984L164 640h344z m340 0a32 32 0 0 1 1 63.984L848 704h-204a32 32 0 0 1-1-63.984L644 640h204z m0-128a32 32 0 0 1 1 63.984L848 576H164a32 32 0 0 1-1-63.984L164 512h684zM411.672 128c120.972 0 207.084 58.616 253.948 171.5l1.576 3.872 1.896-0.2c37.084-3.7 75.28 3.792 114.012 22.072l2.528 1.208c51.996 25.156 84.4 59.7 93.96 103.708a32 32 0 0 1-62.312 14.56l-0.228-0.972c-4.88-22.48-23.564-42.4-59.292-59.684-37.168-17.98-71.02-22.148-102.8-13.372a32 32 0 0 1-38.924-20.88C580.932 242.748 514.68 192 411.672 192c-68.72 0-136.336 34.104-178.4 94.924-20.36 29.44-33.128 74.412-37.268 134.992a32 32 0 1 1-63.852-4.36c4.86-71.124 20.68-126.832 48.48-167.036C234.876 172.1 322.308 128 411.676 128z" fill="#5780FF" p-id="20073"></path></svg>