<?xml version="1.0" standalone="no"?><!DOCTYPE svg PUBLIC "-//W3C//DTD SVG 1.1//EN" "http://www.w3.org/Graphics/SVG/1.1/DTD/svg11.dtd"><svg t="1754273706661" class="icon" viewBox="0 0 1024 1024" version="1.1" xmlns="http://www.w3.org/2000/svg" p-id="5774" width="128" height="128" xmlns:xlink="http://www.w3.org/1999/xlink"><path d="M402.432 558.4384m-286.5152 0a286.5152 286.5152 0 1 0 573.0304 0 286.5152 286.5152 0 1 0-573.0304 0Z" fill="#9FDFFF" p-id="5775"></path><path d="M731.648 749.1072m-253.0816 0a253.0816 253.0816 0 1 0 506.1632 0 253.0816 253.0816 0 1 0-506.1632 0Z" fill="#78CCFF" p-id="5776"></path><path d="M268.4416 772.9664m-229.2224 0a229.2224 229.2224 0 1 0 458.4448 0 229.2224 229.2224 0 1 0-458.4448 0Z" fill="#78CCFF" p-id="5777"></path><path d="M266.0864 772.9664h463.2064v229.2224H266.0864zM877.1584 460.4928H405.7088c-20.4288 0-37.12-16.6912-37.12-37.12s16.6912-37.12 37.12-37.12h471.4496c20.4288 0 37.12 16.6912 37.12 37.12s-16.6912 37.12-37.12 37.12z" fill="#78CCFF" p-id="5778"></path><path d="M877.1584 231.8336h-342.3744c-20.4288 0-37.12-16.6912-37.12-37.12s16.6912-37.12 37.12-37.12h342.3744c20.4288 0 37.12 16.6912 37.12 37.12s-16.6912 37.12-37.12 37.12z" fill="#9FDFFF" p-id="5779"></path><path d="M880.9984 346.1632h-228.7616c-20.4288 0-37.12-16.6912-37.12-37.12s16.6912-37.12 37.12-37.12h228.7616c20.4288 0 37.12 16.6912 37.12 37.12-0.0512 20.4288-16.7424 37.12-37.12 37.12z" fill="#78CCFF" p-id="5780"></path></svg>