<?xml version="1.0" standalone="no"?><!DOCTYPE svg PUBLIC "-//W3C//DTD SVG 1.1//EN" "http://www.w3.org/Graphics/SVG/1.1/DTD/svg11.dtd"><svg t="1754273147769" class="icon" viewBox="0 0 1024 1024" version="1.1" xmlns="http://www.w3.org/2000/svg" p-id="2506" width="128" height="128" xmlns:xlink="http://www.w3.org/1999/xlink"><path d="M694.4 414.8m-119.9 0a119.9 119.9 0 1 0 239.8 0 119.9 119.9 0 1 0-239.8 0Z" fill="#FFE02C" p-id="2507"></path><path d="M695.4 257.9h-1.9c-9.2 0-16.8-7.6-16.8-16.8v-73c0-9.2 7.6-16.8 16.8-16.8h1.9c9.2 0 16.8 7.6 16.8 16.8v73c0 9.3-7.5 16.8-16.8 16.8zM584.2 303.2l-1.4 1.4c-6.5 6.5-17.2 6.5-23.7 0L507.5 253c-6.5-6.5-6.5-17.2 0-23.7l1.4-1.4c6.5-6.5 17.2-6.5 23.7 0l51.6 51.6c6.5 6.5 6.5 17.2 0 23.7zM537.5 413.9v1.9c0 9.2-7.6 16.8-16.8 16.8h-73c-9.2 0-16.8-7.6-16.8-16.8v-1.9c0-9.2 7.6-16.8 16.8-16.8h73c9.3 0 16.8 7.5 16.8 16.8zM582.8 525.1l1.4 1.4c6.5 6.5 6.5 17.2 0 23.7l-51.6 51.6c-6.5 6.5-17.2 6.5-23.7 0l-1.4-1.4c-6.5-6.5-6.5-17.2 0-23.7l51.6-51.6c6.5-6.5 17.2-6.5 23.7 0zM693.5 571.8h1.9c9.2 0 16.8 7.6 16.8 16.8v73c0 9.2-7.6 16.8-16.8 16.8h-1.9c-9.2 0-16.8-7.6-16.8-16.8v-73c0-9.3 7.5-16.8 16.8-16.8zM804.7 526.5l1.4-1.4c6.5-6.5 17.2-6.5 23.7 0l51.6 51.6c6.5 6.5 6.5 17.2 0 23.7l-1.4 1.4c-6.5 6.5-17.2 6.5-23.7 0l-51.6-51.6c-6.5-6.5-6.5-17.2 0-23.7zM851.4 415.8v-1.9c0-9.2 7.6-16.8 16.8-16.8h73c9.2 0 16.8 7.6 16.8 16.8v1.9c0 9.2-7.6 16.8-16.8 16.8h-73c-9.3 0-16.8-7.6-16.8-16.8zM806.1 304.6l-1.4-1.4c-6.5-6.5-6.5-17.2 0-23.7l51.6-51.6c6.5-6.5 17.2-6.5 23.7 0l1.4 1.4c6.5 6.5 6.5 17.2 0 23.7l-51.6 51.6c-6.5 6.5-17.2 6.5-23.7 0z" fill="#FFE02C" p-id="2508"></path><path d="M649.2 470.6c-21.1-84.5-97.1-147.3-188.2-147.8-90.8-0.5-167.3 61.2-189.6 145.1-1.9-0.1-3.8-0.3-5.7-0.3C157.9 467 70 554 69.4 661.8 68.8 769 154.8 856.4 261.7 858v0.1H608v-0.4c2.4 0.1 4.7 0.4 7.1 0.4 107.9 0.7 195.8-86.3 196.4-194.1 0.5-97-69.8-177.6-162.3-193.4z" fill="#94B0FF" p-id="2509"></path></svg>