<?xml version="1.0" standalone="no"?><!DOCTYPE svg PUBLIC "-//W3C//DTD SVG 1.1//EN" "http://www.w3.org/Graphics/SVG/1.1/DTD/svg11.dtd"><svg t="1754273766399" class="icon" viewBox="0 0 1024 1024" version="1.1" xmlns="http://www.w3.org/2000/svg" p-id="6955" width="128" height="128" xmlns:xlink="http://www.w3.org/1999/xlink"><path d="M249.344 824.32l91.52-105.152-0.128 140.501a54.037 54.037 0 1 1-91.392-35.328z m216.79-0.555l90.9-104.597-0.127 140.501a54.037 54.037 0 1 1-90.795-35.882z m216.767-0.554l90.304-104.043-0.106 140.48a54.037 54.037 0 1 1-90.198-36.437zM282.475 267.115C315.733 173.675 405.93 106.667 512 106.667 637.184 106.667 740.267 200 753.707 320h1.493c89.536 0 162.133 71.637 162.133 160S844.736 640 755.2 640H295.83c-104.47 0-189.163-83.584-189.163-186.667 0-98.666 77.568-179.456 175.808-186.218z" fill="#50ACFB" p-id="6956"></path></svg>