<?xml version="1.0" standalone="no"?><!DOCTYPE svg PUBLIC "-//W3C//DTD SVG 1.1//EN" "http://www.w3.org/Graphics/SVG/1.1/DTD/svg11.dtd"><svg t="1754273826079" class="icon" viewBox="0 0 1024 1024" version="1.1" xmlns="http://www.w3.org/2000/svg" p-id="10164" width="128" height="128" xmlns:xlink="http://www.w3.org/1999/xlink"><path d="M510.144 100.672a32 32 0 0 1 32 32v62.976l37.632-45.44a32 32 0 0 1 49.28 40.832L542.144 295.936v160.448l137.6-79.872 47.36-129.664a32 32 0 0 1 60.16 22.016l-21.056 57.472 54.528-31.68a32 32 0 1 1 32.128 55.36l-52.8 30.656 56.896 9.856a32 32 0 0 1-10.944 63.104l-132.096-22.976-140.992 81.92 146.496 84.992 128.448-22.336a32 32 0 0 1 10.88 63.04l-53.248 9.28 50.048 29.056a32 32 0 0 1-32.128 55.36l-56.64-32.896 22.272 60.928a32 32 0 0 1-60.096 22.016l-48.64-133.12L542.08 568.576v159.36l86.912 104.896a32 32 0 0 1-49.28 40.832l-37.632-45.44v62.912a32 32 0 1 1-64 0v-62.912l-37.632 45.44a32 32 0 0 1-49.28-40.832l86.912-104.96V567.616l-136.96 79.488-46.144 126.208a32 32 0 0 1-60.16-21.952l19.84-54.016-55.168 32a32 32 0 0 1-32.128-55.36l58.24-33.856-60.48-10.496a32 32 0 1 1 10.944-63.04l135.68 23.552L445.44 512.512 305.28 431.168l-129.152 22.4a32 32 0 1 1-10.944-63.04l53.952-9.344-49.024-28.48a32 32 0 0 1 32.128-55.36l54.72 31.808L234.88 268.8a32 32 0 0 1 60.16-22.016l48.448 132.48L478.08 457.6V295.936L391.232 191.04a32 32 0 1 1 49.28-40.832l37.632 45.44v-62.976a32 32 0 0 1 32-32z" fill="#5899FF" p-id="10165"></path></svg>