<?xml version="1.0" standalone="no"?><!DOCTYPE svg PUBLIC "-//W3C//DTD SVG 1.1//EN" "http://www.w3.org/Graphics/SVG/1.1/DTD/svg11.dtd"><svg t="1754554321632" class="icon" viewBox="0 0 1024 1024" version="1.1" xmlns="http://www.w3.org/2000/svg" p-id="16895" width="128" height="128" xmlns:xlink="http://www.w3.org/1999/xlink"><path d="M219.428571 420.571429C219.428571 309.723429 309.979429 219.428571 422.253714 219.428571a202.861714 202.861714 0 0 1 188.086857 125.805715c3.803429 9.289143 6.875429 18.907429 9.252572 28.818285a36.571429 36.571429 0 0 0 44.361143 26.989715c8.777143-2.194286 18.029714-3.328 27.574857-3.328 62.683429 0 113.042286 50.395429 113.042286 112.018285a112.274286 112.274286 0 0 1-85.979429 108.763429 36.571429 36.571429 0 0 0 17.261714 71.094857c81.261714-19.748571 141.860571-92.598857 141.860572-179.894857 0-102.473143-83.602286-185.124571-186.148572-185.124571-3.584 0-7.131429 0.109714-10.642285 0.292571A276.004571 276.004571 0 0 0 422.253714 146.285714C270.08 146.285714 146.285714 268.836571 146.285714 420.571429a273.700571 273.700571 0 0 0 125.696 230.107428 36.571429 36.571429 0 1 0 39.716572-61.44A200.557714 200.557714 0 0 1 219.428571 420.571429z m352.914286 81.810285a36.571429 36.571429 0 1 0-60.854857-40.594285l-119.625143 179.565714a36.571429 36.571429 0 0 0 30.427429 56.832h111.140571l-81.773714 122.697143a36.571429 36.571429 0 0 0 60.891428 40.557714l119.588572-179.565714a36.571429 36.571429 0 0 0-30.390857-56.832h-111.177143l81.773714-122.660572z" fill="#FF6363" p-id="16896"></path></svg>