<?xml version="1.0" standalone="no"?><!DOCTYPE svg PUBLIC "-//W3C//DTD SVG 1.1//EN" "http://www.w3.org/Graphics/SVG/1.1/DTD/svg11.dtd"><svg t="1754273923198" class="icon" viewBox="0 0 1024 1024" version="1.1" xmlns="http://www.w3.org/2000/svg" p-id="12594" width="128" height="128" xmlns:xlink="http://www.w3.org/1999/xlink"><path d="M582.966044 619.005724l90.97728-193.115022H431.0272l-72.47872 193.115022H293.555769C187.983644 619.005724 102.4 534.542222 102.4 430.371271c0-99.704604 78.384924-181.341298 177.656604-188.175929 33.611093-94.424747 124.755627-162.137316 231.941689-162.137315 126.502684 0 230.668516 94.317227 244.252445 215.579875H757.76c90.478364 0 163.84 72.389973 163.84 161.683911 0 89.289956-73.361636 161.683911-163.84 161.683911h-174.793956z m0 0" fill="#6A91F1" p-id="12595"></path><path d="M460.691342 465.038791h155.713991l-86.709475 182.506951h95.220622l-208.223573 259.987342 71.635057-221.244302H376.938951l83.752391-221.249991z m0 0M259.575467 658.976427h87.467235l-48.705991 102.517191h53.486933l-116.962417 146.039466 40.238649-124.276622H212.530631l47.044836-124.280035z m0 0M682.870898 658.976427h87.467235l-48.705991 102.517191h53.486934l-116.962987 146.039466 40.238649-124.276622h-62.568676l47.044836-124.280035z m0 0" fill="#FFC303" p-id="12596"></path></svg>